SplineFontDB: 3.2
FontName: Crispen-Regular
FullName: Crispen Serif Regular
FamilyName: Crispen Serif
Weight: Regular
Copyright: (c) 2024 by PURPLE.STANDARD. All rights reserved.
Version: 1.000; Glyphs 3.3, build 3311.0
ItalicAngle: 0
UnderlinePosition: -150
UnderlineWidth: 50
Ascent: 773
Descent: 227
InvalidEm: 0
sfntRevision: 0x00010000
LayerCount: 2
Layer: 0 1 "Arri+AOgA-re" 1
Layer: 1 1 "Avant" 0
XUID: [1021 63 866202328 10704254]
StyleMap: 0x0040
FSType: 8
OS2Version: 4
OS2_WeightWidthSlopeOnly: 0
OS2_UseTypoMetrics: 1
CreationTime: 1721592925
ModificationTime: 1732632465
PfmFamily: 81
TTFWeight: 400
TTFWidth: 5
LineGap: 0
VLineGap: 0
Panose: 0 0 0 0 0 0 0 0 0 0
OS2TypoAscent: 773
OS2TypoAOffset: 0
OS2TypoDescent: -227
OS2TypoDOffset: 0
OS2TypoLinegap: 0
OS2WinAscent: 968
OS2WinAOffset: 0
OS2WinDescent: 358
OS2WinDOffset: 0
HheadAscent: 968
HheadAOffset: 0
HheadDescent: -358
HheadDOffset: 0
OS2SubXSize: 650
OS2SubYSize: 600
OS2SubXOff: 0
OS2SubYOff: 75
OS2SupXSize: 650
OS2SupYSize: 600
OS2SupXOff: 0
OS2SupYOff: 350
OS2StrikeYSize: 50
OS2StrikeYPos: 240
OS2CapHeight: 700
OS2XHeight: 482
OS2Vendor: 'TWK '
OS2CodePages: 20000093.00000000
OS2UnicodeRanges: a10000ff.400020fb.00000000.00000000
Lookup: 3 0 0 "'aalt' Activer toutes les variantes dans Latin lookup 0" { "sous-table 'aalt' Activer toutes les variantes dans Latin lookup 0"  } ['aalt' ('DFLT' <'MAH ' 'dflt' > 'latn' <'AZE ' 'CAT ' 'CRT ' 'KAZ ' 'MAH ' 'MOL ' 'NLD ' 'ROM ' 'TAT ' 'TRK ' 'dflt' > ) ]
Lookup: 1 0 0 "Substitution simple lookups1" { "sous-table Substitution simple lookups1"  } []
Lookup: 1 0 0 "Substitution simple lookups2" { "sous-table Substitution simple lookups2"  } []
Lookup: 1 0 0 "Substitution simple lookups3" { "sous-table Substitution simple lookups3"  } []
Lookup: 1 0 0 "Substitution simple lookups4" { "sous-table Substitution simple lookups4"  } []
Lookup: 1 0 0 "Substitution simple lookups5" { "sous-table Substitution simple lookups5"  } []

StartChar: .notdef
Encoding: 65536 -1 0
Width: 726
GlyphClass: 1
Flags: W
LayerCount: 2
Fore
SplineSet
100 750 m 1,0,-1
 626 750 l 1,1,-1
 626 0 l 1,2,-1
 100 0 l 1,3,-1
 100 750 l 1,0,-1
521 47 m 1,4,-1
 521 703 l 1,5,-1
 205 703 l 1,6,-1
 205 47 l 1,7,-1
 521 47 l 1,4,-1
EndSplineSet
Validated: 1
EndChar

StartChar: A
Encoding: 65 65 4
Width: 709
GlyphClass: 2
Flags: W
AnchorPoint: "Ancre-11" 336 750 basechar 0
AnchorPoint: "Ancre-10" 650 0 basechar 0
AnchorPoint: "Ancre-3" 315 700 basechar 0
AnchorPoint: "Ancre-2" 355 0 basechar 0
LayerCount: 2
Fore
SplineSet
490 4 m 1,0,-1
 550 57 l 1,1,-1
 465 224 l 1,2,-1
 185 224 l 1,3,-1
 113 59 l 1,4,-1
 170 4 l 1,5,-1
 170 0 l 1,6,-1
 17 0 l 1,7,-1
 17 4 l 1,8,-1
 64 61 l 1,9,-1
 293 587 l 1,10,-1
 218.623046875 665 l 1,11,-1
 336 726 l 1,12,-1
 657 61 l 1,13,-1
 707 4 l 1,14,-1
 707 0 l 1,15,-1
 490 0 l 1,16,-1
 490 4 l 1,0,-1
444 268 m 1,17,-1
 317 535 l 1,18,-1
 204 268 l 1,19,-1
 444 268 l 1,17,-1
EndSplineSet
Validated: 1572865
Substitution2: "sous-table 'ss01' Jeu stylistique 1 dans Latin lookup 41" A.ss01
Substitution2: "sous-table 'c2sc' Capitales vers petites capitales dans Latin lookup 37" a.sc
Substitution2: "sous-table Substitution simple lookups9" ordfeminine
AlternateSubs2: "sous-table 'aalt' Activer toutes les variantes dans Latin lookup 0" a.sc A.ss01
EndChar

StartChar: Aogonek
Encoding: 260 260 11
Width: 709
GlyphClass: 2
Flags: W
AnchorPoint: "Ancre-11" 336 750 basechar 0
AnchorPoint: "Ancre-10" 650 0 basechar 0
LayerCount: 2
Fore
SplineSet
470 4 m 1,0,-1
 550 57 l 1,1,-1
 465 224 l 1,2,-1
 185 224 l 1,3,-1
 113 59 l 1,4,-1
 190 4 l 1,5,-1
 190 0 l 1,6,-1
 -3 0 l 1,7,-1
 -3 4 l 1,8,-1
 64 61 l 1,9,-1
 293 587 l 1,10,-1
 250 678 l 1,11,-1
 336 726 l 1,12,-1
 657 61 l 1,13,-1
 727 4 l 1,14,-1
 727 0 l 1,15,-1
 627 0 l 1,16,17
 610 -38 610 -38 598.5 -74.5 c 128,-1,18
 587 -111 587 -111 587 -140 c 0,19,20
 587 -167 587 -167 599 -179.5 c 128,-1,21
 611 -192 611 -192 627 -192 c 0,22,23
 637 -192 637 -192 646 -188.5 c 128,-1,24
 655 -185 655 -185 667 -177 c 1,25,-1
 681 -194 l 1,26,27
 659 -214 659 -214 640 -223.5 c 128,-1,28
 621 -233 621 -233 597 -233 c 0,29,30
 576 -233 576 -233 558 -224 c 128,-1,31
 540 -215 540 -215 529 -196 c 128,-1,32
 518 -177 518 -177 518 -151 c 0,33,34
 518 -118 518 -118 536 -82 c 128,-1,35
 554 -46 554 -46 589 0 c 1,36,-1
 470 0 l 1,37,-1
 470 4 l 1,0,-1
444 268 m 1,38,-1
 317 535 l 1,39,-1
 204 268 l 1,40,-1
 444 268 l 1,38,-1
EndSplineSet
Validated: 1048577
Substitution2: "sous-table 'ss01' Jeu stylistique 1 dans Latin lookup 41" Aogonek.ss01
Substitution2: "sous-table 'c2sc' Capitales vers petites capitales dans Latin lookup 37" aogonek.sc
AlternateSubs2: "sous-table 'aalt' Activer toutes les variantes dans Latin lookup 0" aogonek.sc Aogonek.ss01
EndChar

StartChar: AE
Encoding: 198 198 14
Width: 1021
GlyphClass: 2
Flags: W
AnchorPoint: "Ancre-11" 702 750 basechar 0
AnchorPoint: "Ancre-3" 665 700 basechar 0
AnchorPoint: "Ancre-2" 511 0 basechar 0
LayerCount: 2
Fore
SplineSet
411 4 m 1,0,-1
 495 49 l 1,1,-1
 495 243 l 1,2,-1
 248 243 l 1,3,-1
 117 59 l 1,4,-1
 180 4 l 1,5,-1
 180 0 l 1,6,-1
 -19 0 l 1,7,-1
 -19 4 l 1,8,-1
 62 61 l 1,9,-1
 473 643 l 1,10,-1
 394 696 l 1,11,-1
 394 700 l 1,12,-1
 916 700 l 1,13,-1
 978 511 l 1,14,-1
 974 511 l 1,15,-1
 822 656 l 1,16,-1
 593 656 l 1,17,-1
 593 385 l 1,18,-1
 785 385 l 1,19,-1
 852 485 l 1,20,-1
 859 485 l 1,21,-1
 859 240 l 1,22,-1
 852 240 l 1,23,-1
 785 341 l 1,24,-1
 593 341 l 1,25,-1
 593 44 l 1,26,-1
 849 44 l 1,27,-1
 1000 190 l 1,28,-1
 1004 190 l 1,29,-1
 942 0 l 1,30,-1
 411 0 l 1,31,-1
 411 4 l 1,0,-1
495 287 m 1,32,-1
 495 596 l 1,33,-1
 279 287 l 1,34,-1
 495 287 l 1,32,-1
EndSplineSet
Validated: 1048577
Substitution2: "sous-table 'c2sc' Capitales vers petites capitales dans Latin lookup 37" ae.sc
AlternateSubs2: "sous-table 'aalt' Activer toutes les variantes dans Latin lookup 0" ae.sc
EndChar

StartChar: B
Encoding: 66 66 17
Width: 648
GlyphClass: 1
Flags: W
LayerCount: 2
Fore
SplineSet
48 4 m 1,0,-1
 114 61 l 1,1,-1
 114 639 l 1,2,-1
 48 696 l 1,3,-1
 48 700 l 1,4,-1
 317 700 l 2,5,6
 388 700 388 700 445.5 678.5 c 128,-1,7
 503 657 503 657 536 619 c 128,-1,8
 569 581 569 581 569 532 c 0,9,10
 569 480 569 480 529 439 c 128,-1,11
 489 398 489 398 420 374 c 1,12,13
 512 358 512 358 564 315 c 128,-1,14
 616 272 616 272 616 203 c 0,15,16
 616 145 616 145 583.5 99 c 128,-1,17
 551 53 551 53 492.5 26.5 c 128,-1,18
 434 0 434 0 358 0 c 2,19,-1
 48 0 l 1,20,-1
 48 4 l 1,0,-1
464 84 m 128,-1,22
 509 124 509 124 509 197 c 256,23,24
 509 270 509 270 464 309.5 c 128,-1,25
 419 349 419 349 331 349 c 2,26,-1
 212 349 l 1,27,-1
 212 44 l 1,28,-1
 331 44 l 2,29,21
 419 44 419 44 464 84 c 128,-1,22
390 409 m 128,-1,31
 423 425 423 425 442 455 c 128,-1,32
 461 485 461 485 461 526 c 0,33,34
 461 565 461 565 443 594.5 c 128,-1,35
 425 624 425 624 392.5 640 c 128,-1,36
 360 656 360 656 316 656 c 2,37,-1
 212 656 l 1,38,-1
 212 393 l 1,39,-1
 316 393 l 2,40,30
 357 393 357 393 390 409 c 128,-1,31
EndSplineSet
Validated: 1
Substitution2: "sous-table 'c2sc' Capitales vers petites capitales dans Latin lookup 37" b.sc
AlternateSubs2: "sous-table 'aalt' Activer toutes les variantes dans Latin lookup 0" b.sc
EndChar

StartChar: C
Encoding: 67 67 18
Width: 687
GlyphClass: 2
Flags: W
AnchorPoint: "Ancre-12" 402 0 basechar 0
AnchorPoint: "Ancre-11" 407 750 basechar 0
AnchorPoint: "Ancre-3" 381 700 basechar 0
AnchorPoint: "Ancre-2" 344 0 basechar 0
LayerCount: 2
Fore
SplineSet
501.5 18 m 128,-1,1
 554 45 554 45 587 77 c 128,-1,2
 620 109 620 109 657 157 c 1,3,-1
 628 181 l 1,4,5
 578 124 578 124 525 96.5 c 128,-1,6
 472 69 472 69 411 69 c 0,7,8
 326 69 326 69 262.5 114 c 128,-1,9
 199 159 199 159 166 231.5 c 128,-1,10
 133 304 133 304 133 384 c 256,11,12
 133 464 133 464 165 528.5 c 128,-1,13
 197 593 197 593 253.5 630 c 128,-1,14
 310 667 310 667 381 667 c 0,15,16
 449 667 449 667 497.5 638.5 c 128,-1,17
 546 610 546 610 567.5 558 c 128,-1,18
 589 506 589 506 619 447 c 1,19,-1
 624 447 l 1,20,-1
 610 661 l 1,21,22
 538 688 538 688 496 698.5 c 128,-1,23
 454 709 454 709 396 709 c 0,24,25
 290 709 290 709 208.5 658 c 128,-1,26
 127 607 127 607 82 523 c 128,-1,27
 37 439 37 439 37 344 c 0,28,29
 37 234 37 234 89 153.5 c 128,-1,30
 141 73 141 73 222 32 c 128,-1,31
 303 -9 303 -9 386 -9 c 0,32,0
 449 -9 449 -9 501.5 18 c 128,-1,1
EndSplineSet
Validated: 1048585
Substitution2: "sous-table 'c2sc' Capitales vers petites capitales dans Latin lookup 37" c.sc
AlternateSubs2: "sous-table 'aalt' Activer toutes les variantes dans Latin lookup 0" c.sc
EndChar

StartChar: Ccedilla
Encoding: 199 199 21
Width: 687
GlyphClass: 2
Flags: W
AnchorPoint: "Ancre-12" 402 0 basechar 0
AnchorPoint: "Ancre-11" 407 750 basechar 0
LayerCount: 2
Fore
SplineSet
365 -183 m 128,-1,1
 385 -165 385 -165 385 -144 c 0,2,3
 385 -120 385 -120 364.5 -103.5 c 128,-1,4
 344 -87 344 -87 305 -80 c 1,5,-1
 353 -7 l 1,6,7
 267 0 267 0 194.5 47 c 128,-1,8
 122 94 122 94 79.5 171.5 c 128,-1,9
 37 249 37 249 37 344 c 256,10,11
 37 439 37 439 82 523 c 128,-1,12
 127 607 127 607 208.5 658 c 128,-1,13
 290 709 290 709 396 709 c 0,14,15
 454 709 454 709 501 698.5 c 128,-1,16
 548 688 548 688 620 661 c 1,17,-1
 644 467 l 1,18,-1
 639 467 l 1,19,20
 609 526 609 526 577.5 568 c 128,-1,21
 546 610 546 610 497.5 638.5 c 128,-1,22
 449 667 449 667 381 667 c 0,23,24
 310 667 310 667 253.5 630 c 128,-1,25
 197 593 197 593 165 528.5 c 128,-1,26
 133 464 133 464 133 384 c 256,27,28
 133 304 133 304 166 231.5 c 128,-1,29
 199 159 199 159 262.5 114 c 128,-1,30
 326 69 326 69 411 69 c 0,31,32
 472 69 472 69 530 101.5 c 128,-1,33
 588 134 588 134 638 191 c 1,34,-1
 667 167 l 1,35,36
 630 119 630 119 592 82 c 128,-1,37
 554 45 554 45 501.5 18 c 128,-1,38
 449 -9 449 -9 386 -9 c 1,39,-1
 360 -48 l 1,40,41
 401 -58 401 -58 425 -81 c 128,-1,42
 449 -104 449 -104 449 -133 c 0,43,44
 449 -156 449 -156 434.5 -173 c 128,-1,45
 420 -190 420 -190 391.5 -204 c 128,-1,46
 363 -218 363 -218 312 -237 c 1,47,-1
 302 -216 l 1,48,0
 345 -201 345 -201 365 -183 c 128,-1,1
EndSplineSet
Validated: 1048577
Substitution2: "sous-table 'c2sc' Capitales vers petites capitales dans Latin lookup 37" ccedilla.sc
AlternateSubs2: "sous-table 'aalt' Activer toutes les variantes dans Latin lookup 0" ccedilla.sc
EndChar

StartChar: D
Encoding: 68 68 24
Width: 741
GlyphClass: 2
Flags: W
AnchorPoint: "Ancre-13" 54 411 basechar 0
AnchorPoint: "Ancre-11" 380 750 basechar 0
AnchorPoint: "Ancre-3" 340 700 basechar 0
AnchorPoint: "Ancre-2" 371 0 basechar 0
LayerCount: 2
Fore
SplineSet
40 4 m 1,0,-1
 114 61 l 1,1,-1
 114 639 l 1,2,-1
 40 696 l 1,3,-1
 40 700 l 1,4,-1
 330 700 l 2,5,6
 433 700 433 700 518.5 657 c 128,-1,7
 604 614 604 614 654 536.5 c 128,-1,8
 704 459 704 459 704 359 c 0,9,10
 704 260 704 260 654 177 c 128,-1,11
 604 94 604 94 518 47 c 128,-1,12
 432 0 432 0 330 0 c 2,13,-1
 40 0 l 1,14,-1
 40 4 l 1,0,-1
330 44 m 2,15,16
 412 44 412 44 472 81 c 128,-1,17
 532 118 532 118 564.5 187 c 128,-1,18
 597 256 597 256 597 350 c 256,19,20
 597 444 597 444 564.5 513.5 c 128,-1,21
 532 583 532 583 472 619.5 c 128,-1,22
 412 656 412 656 330 656 c 2,23,-1
 212 656 l 1,24,-1
 212 44 l 1,25,-1
 330 44 l 2,15,16
EndSplineSet
Validated: 1048577
Substitution2: "sous-table 'c2sc' Capitales vers petites capitales dans Latin lookup 37" d.sc
AlternateSubs2: "sous-table 'aalt' Activer toutes les variantes dans Latin lookup 0" d.sc
EndChar

StartChar: Eth
Encoding: 208 208 25
Width: 741
GlyphClass: 2
Flags: W
AnchorPoint: "Ancre-13" 44 411 basechar 0
AnchorPoint: "Ancre-11" 380 750 basechar 0
LayerCount: 2
Fore
SplineSet
30 4 m 1,0,-1
 114 61 l 1,1,-1
 114 343 l 1,2,-1
 19 343 l 1,3,-1
 41 384 l 1,4,-1
 114 384 l 1,5,-1
 114 639 l 1,6,-1
 30 696 l 1,7,-1
 30 700 l 1,8,-1
 330 700 l 2,9,10
 433 700 433 700 518.5 657 c 128,-1,11
 604 614 604 614 654 536.5 c 128,-1,12
 704 459 704 459 704 359 c 0,13,14
 704 260 704 260 654 177 c 128,-1,15
 604 94 604 94 518 47 c 128,-1,16
 432 0 432 0 330 0 c 2,17,-1
 30 0 l 1,18,-1
 30 4 l 1,0,-1
330 44 m 2,19,20
 412 44 412 44 472 81 c 128,-1,21
 532 118 532 118 564.5 187 c 128,-1,22
 597 256 597 256 597 350 c 256,23,24
 597 444 597 444 564.5 513.5 c 128,-1,25
 532 583 532 583 472 619.5 c 128,-1,26
 412 656 412 656 330 656 c 2,27,-1
 212 656 l 1,28,-1
 212 384 l 1,29,-1
 410 384 l 1,30,-1
 387 343 l 1,31,-1
 212 343 l 1,32,-1
 212 44 l 1,33,-1
 330 44 l 2,19,20
EndSplineSet
Validated: 1048577
Substitution2: "sous-table 'c2sc' Capitales vers petites capitales dans Latin lookup 37" eth.sc
AlternateSubs2: "sous-table 'aalt' Activer toutes les variantes dans Latin lookup 0" eth.sc
EndChar

StartChar: E
Encoding: 69 69 28
Width: 640
GlyphClass: 2
Flags: W
AnchorPoint: "Ancre-11" 349 750 basechar 0
AnchorPoint: "Ancre-10" 503 0 basechar 0
AnchorPoint: "Ancre-3" 320 700 basechar 0
AnchorPoint: "Ancre-2" 320 0 basechar 0
LayerCount: 2
Fore
SplineSet
50 4 m 1,0,-1
 114 61 l 1,1,-1
 114 639 l 1,2,-1
 50 696 l 1,3,-1
 50 700 l 1,4,-1
 535 700 l 1,5,-1
 587 521 l 1,6,-1
 583 521 l 1,7,-1
 442 656 l 1,8,-1
 212 656 l 1,9,-1
 212 385 l 1,10,-1
 394 385 l 1,11,-1
 461 485 l 1,12,-1
 468 485 l 1,13,-1
 468 240 l 1,14,-1
 461 240 l 1,15,-1
 394 341 l 1,16,-1
 212 341 l 1,17,-1
 212 44 l 1,18,-1
 468 44 l 1,19,-1
 609 180 l 1,20,-1
 614 180 l 1,21,-1
 561 0 l 1,22,-1
 50 0 l 1,23,-1
 50 4 l 1,0,-1
EndSplineSet
Validated: 1048577
Substitution2: "sous-table 'c2sc' Capitales vers petites capitales dans Latin lookup 37" e.sc
AlternateSubs2: "sous-table 'aalt' Activer toutes les variantes dans Latin lookup 0" e.sc
EndChar

StartChar: Eogonek
Encoding: 280 280 37
Width: 640
GlyphClass: 2
Flags: W
AnchorPoint: "Ancre-11" 349 750 basechar 0
AnchorPoint: "Ancre-10" 503 0 basechar 0
LayerCount: 2
Fore
SplineSet
30 4 m 1,0,-1
 114 61 l 1,1,-1
 114 639 l 1,2,-1
 30 696 l 1,3,-1
 30 700 l 1,4,-1
 535 700 l 1,5,-1
 597 511 l 1,6,-1
 593 511 l 1,7,-1
 442 656 l 1,8,-1
 212 656 l 1,9,-1
 212 385 l 1,10,-1
 404 385 l 1,11,-1
 471 485 l 1,12,-1
 478 485 l 1,13,-1
 478 240 l 1,14,-1
 471 240 l 1,15,-1
 404 341 l 1,16,-1
 212 341 l 1,17,-1
 212 44 l 1,18,-1
 468 44 l 1,19,-1
 619 190 l 1,20,-1
 624 190 l 1,21,-1
 561 0 l 1,22,-1
 490 0 l 1,23,24
 472 -38 472 -38 461 -74.5 c 128,-1,25
 450 -111 450 -111 450 -140 c 0,26,27
 450 -167 450 -167 461.5 -179.5 c 128,-1,28
 473 -192 473 -192 490 -192 c 0,29,30
 499 -192 499 -192 508.5 -188.5 c 128,-1,31
 518 -185 518 -185 529 -177 c 1,32,-1
 543 -194 l 1,33,34
 522 -214 522 -214 503 -223.5 c 128,-1,35
 484 -233 484 -233 460 -233 c 0,36,37
 439 -233 439 -233 420.5 -224 c 128,-1,38
 402 -215 402 -215 391.5 -196 c 128,-1,39
 381 -177 381 -177 381 -151 c 0,40,41
 381 -118 381 -118 399 -82 c 128,-1,42
 417 -46 417 -46 452 0 c 1,43,-1
 30 0 l 1,44,-1
 30 4 l 1,0,-1
EndSplineSet
Validated: 1048577
Substitution2: "sous-table 'c2sc' Capitales vers petites capitales dans Latin lookup 37" eogonek.sc
AlternateSubs2: "sous-table 'aalt' Activer toutes les variantes dans Latin lookup 0" eogonek.sc
EndChar

StartChar: uni018F
Encoding: 399 399 39
Width: 683
GlyphClass: 1
Flags: W
LayerCount: 2
Fore
SplineSet
315 -9 m 1,0,1
 239 -9 239 -9 175.5 22 c 128,-1,2
 112 53 112 53 73.5 117 c 128,-1,3
 35 181 35 181 35 274 c 0,4,5
 35 293 35 293 36 303 c 1,6,-1
 546 303 l 1,7,8
 547 311 547 311 547 327 c 0,9,10
 547 421 547 421 515 492.5 c 128,-1,11
 483 564 483 564 428 602.5 c 128,-1,12
 373 641 373 641 306 641 c 0,13,14
 232 641 232 641 176.5 608.5 c 128,-1,15
 121 576 121 576 66 511 c 1,16,-1
 37 535 l 1,17,18
 96 614 96 614 166.5 661.5 c 128,-1,19
 237 709 237 709 329 709 c 0,20,21
 410 709 410 709 482 667 c 128,-1,22
 554 625 554 625 599.5 545 c 128,-1,23
 645 465 645 465 645 355 c 0,24,25
 645 248 645 248 599.5 165 c 128,-1,26
 554 82 554 82 477.5 36.5 c 128,-1,27
 401 -9 401 -9 315 -9 c 1,28,-1
 315 -9 l 1,0,1
142 246 m 1,29,30
 142 183 142 183 164.5 136 c 128,-1,31
 187 89 187 89 229.5 62 c 128,-1,32
 272 35 272 35 330 35 c 256,33,34
 388 35 388 35 432.5 62 c 128,-1,35
 477 89 477 89 505.5 139.5 c 128,-1,36
 534 190 534 190 543 260 c 1,37,-1
 143 260 l 1,38,39
 142 255 142 255 142 246 c 1,40,-1
 142 246 l 1,29,30
EndSplineSet
Validated: 5
Substitution2: "sous-table 'c2sc' Capitales vers petites capitales dans Latin lookup 37" uni0259.sc
AlternateSubs2: "sous-table 'aalt' Activer toutes les variantes dans Latin lookup 0" uni0259.sc
EndChar

StartChar: F
Encoding: 70 70 40
Width: 611
GlyphClass: 1
Flags: W
LayerCount: 2
Fore
SplineSet
50 4 m 1,0,-1
 114 61 l 1,1,-1
 114 639 l 1,2,-1
 50 696 l 1,3,-1
 50 700 l 1,4,-1
 543 700 l 1,5,-1
 596 521 l 1,6,-1
 591 521 l 1,7,-1
 450 656 l 1,8,-1
 212 656 l 1,9,-1
 212 378 l 1,10,-1
 384 378 l 1,11,-1
 451 479 l 1,12,-1
 458 479 l 1,13,-1
 458 233 l 1,14,-1
 451 233 l 1,15,-1
 384 334 l 1,16,-1
 212 334 l 1,17,-1
 212 61 l 1,18,-1
 293 4 l 1,19,-1
 293 0 l 1,20,-1
 50 0 l 1,21,-1
 50 4 l 1,0,-1
EndSplineSet
Validated: 1
Substitution2: "sous-table 'c2sc' Capitales vers petites capitales dans Latin lookup 37" f.sc
AlternateSubs2: "sous-table 'aalt' Activer toutes les variantes dans Latin lookup 0" f.sc
EndChar

StartChar: G
Encoding: 71 71 41
Width: 738
GlyphClass: 2
Flags: W
AnchorPoint: "Ancre-12" 411 0 basechar 0
AnchorPoint: "Ancre-11" 407 750 basechar 0
AnchorPoint: "Ancre-3" 387 700 basechar 0
AnchorPoint: "Ancre-2" 369 0 basechar 0
LayerCount: 2
Fore
SplineSet
386 -9 m 1,0,1
 293 -9 293 -9 213 36 c 128,-1,2
 133 81 133 81 85 162 c 128,-1,3
 37 243 37 243 37 344 c 0,4,5
 37 446 37 446 85 529.5 c 128,-1,6
 133 613 133 613 215.5 661 c 128,-1,7
 298 709 298 709 396 709 c 0,8,9
 456 709 456 709 503 698 c 128,-1,10
 550 687 550 687 620 661 c 1,11,-1
 644 466 l 1,12,-1
 639 466 l 1,13,14
 603 536 603 536 566.5 579.5 c 128,-1,15
 530 623 530 623 485 645 c 128,-1,16
 440 667 440 667 381 667 c 0,17,18
 309 667 309 667 252.5 629.5 c 128,-1,19
 196 592 196 592 164.5 527 c 128,-1,20
 133 462 133 462 133 384 c 0,21,22
 133 288 133 288 172 217 c 128,-1,23
 211 146 211 146 275 107.5 c 128,-1,24
 339 69 339 69 411 69 c 0,25,26
 456 69 456 69 499.5 83.5 c 128,-1,27
 543 98 543 98 577 122 c 1,28,-1
 577 326 l 1,29,-1
 374 326 l 1,30,-1
 398 370 l 1,31,-1
 665 370 l 1,32,-1
 665 0 l 1,33,-1
 660 0 l 1,34,-1
 588 79 l 1,35,36
 493 -9 493 -9 386 -9 c 1,37,-1
 386 -9 l 1,0,1
EndSplineSet
Validated: 1048581
Substitution2: "sous-table 'c2sc' Capitales vers petites capitales dans Latin lookup 37" g.sc
AlternateSubs2: "sous-table 'aalt' Activer toutes les variantes dans Latin lookup 0" g.sc
EndChar

StartChar: H
Encoding: 72 72 48
Width: 753
GlyphClass: 2
Flags: W
AnchorPoint: "Ancre-13" 404 558 basechar 0
LayerCount: 2
Fore
SplineSet
477 4 m 1,0,-1
 541 61 l 1,1,-1
 541 341 l 1,2,-1
 212 341 l 1,3,-1
 212 61 l 1,4,-1
 276 4 l 1,5,-1
 276 0 l 1,6,-1
 50 0 l 1,7,-1
 50 4 l 1,8,-1
 114 61 l 1,9,-1
 114 639 l 1,10,-1
 50 696 l 1,11,-1
 50 700 l 1,12,-1
 276 700 l 1,13,-1
 276 696 l 1,14,-1
 212 639 l 1,15,-1
 212 385 l 1,16,-1
 541 385 l 1,17,-1
 541 639 l 1,18,-1
 477 696 l 1,19,-1
 477 700 l 1,20,-1
 703 700 l 1,21,-1
 703 696 l 1,22,-1
 639 639 l 1,23,-1
 639 61 l 1,24,-1
 703 4 l 1,25,-1
 703 0 l 1,26,-1
 477 0 l 1,27,-1
 477 4 l 1,0,-1
EndSplineSet
Validated: 1048577
Substitution2: "sous-table 'c2sc' Capitales vers petites capitales dans Latin lookup 37" h.sc
AlternateSubs2: "sous-table 'aalt' Activer toutes les variantes dans Latin lookup 0" h.sc
EndChar

StartChar: Hbar
Encoding: 294 294 49
Width: 753
GlyphClass: 2
Flags: W
AnchorPoint: "Ancre-13" 404 558 basechar 0
LayerCount: 2
Fore
SplineSet
457 4 m 1,0,-1
 541 61 l 1,1,-1
 541 341 l 1,2,-1
 212 341 l 1,3,-1
 212 61 l 1,4,-1
 296 4 l 1,5,-1
 296 0 l 1,6,-1
 30 0 l 1,7,-1
 30 4 l 1,8,-1
 114 61 l 1,9,-1
 114 500 l 1,10,-1
 18 500 l 1,11,-1
 40 541 l 1,12,-1
 114 541 l 1,13,-1
 114 639 l 1,14,-1
 30 696 l 1,15,-1
 30 700 l 1,16,-1
 296 700 l 1,17,-1
 296 696 l 1,18,-1
 212 639 l 1,19,-1
 212 541 l 1,20,-1
 541 541 l 1,21,-1
 541 639 l 1,22,-1
 457 696 l 1,23,-1
 457 700 l 1,24,-1
 723 700 l 1,25,-1
 723 696 l 1,26,-1
 639 639 l 1,27,-1
 639 541 l 1,28,-1
 736 541 l 1,29,-1
 713 500 l 1,30,-1
 639 500 l 1,31,-1
 639 61 l 1,32,-1
 723 4 l 1,33,-1
 723 0 l 1,34,-1
 457 0 l 1,35,-1
 457 4 l 1,0,-1
541 385 m 1,36,-1
 541 500 l 1,37,-1
 212 500 l 1,38,-1
 212 385 l 1,39,-1
 541 385 l 1,36,-1
EndSplineSet
Validated: 1048577
Substitution2: "sous-table 'c2sc' Capitales vers petites capitales dans Latin lookup 37" hbar.sc
AlternateSubs2: "sous-table 'aalt' Activer toutes les variantes dans Latin lookup 0" hbar.sc
EndChar

StartChar: I
Encoding: 73 73 50
Width: 326
GlyphClass: 2
Flags: W
AnchorPoint: "Ancre-11" 175 750 basechar 0
AnchorPoint: "Ancre-10" 172 0 basechar 0
AnchorPoint: "Ancre-3" 163 700 basechar 0
AnchorPoint: "Ancre-2" 163 0 basechar 0
LayerCount: 2
Fore
SplineSet
50 4 m 1,0,-1
 114 61 l 1,1,-1
 114 639 l 1,2,-1
 50 696 l 1,3,-1
 50 700 l 1,4,-1
 276 700 l 5,5,-1
 276 696 l 5,6,-1
 212 639 l 1,7,-1
 212 61 l 1,8,-1
 276 4 l 5,9,-1
 276 0 l 5,10,-1
 50 0 l 1,11,-1
 50 4 l 1,0,-1
EndSplineSet
Validated: 1048577
Substitution2: "sous-table 'c2sc' Capitales vers petites capitales dans Latin lookup 37" i.sc
AlternateSubs2: "sous-table 'aalt' Activer toutes les variantes dans Latin lookup 0" i.sc
EndChar

StartChar: Iogonek
Encoding: 302 302 58
Width: 326
GlyphClass: 2
Flags: W
AnchorPoint: "Ancre-11" 175 750 basechar 0
AnchorPoint: "Ancre-10" 172 0 basechar 0
LayerCount: 2
Fore
SplineSet
30 4 m 1,0,-1
 114 61 l 1,1,-1
 114 639 l 1,2,-1
 30 696 l 1,3,-1
 30 700 l 1,4,-1
 296 700 l 1,5,-1
 296 696 l 1,6,-1
 212 639 l 1,7,-1
 212 61 l 1,8,-1
 296 4 l 1,9,-1
 296 0 l 1,10,-1
 181 0 l 1,11,12
 163 -38 163 -38 152 -74.5 c 128,-1,13
 141 -111 141 -111 141 -140 c 0,14,15
 141 -167 141 -167 152.5 -179.5 c 128,-1,16
 164 -192 164 -192 181 -192 c 0,17,18
 190 -192 190 -192 199.5 -188.5 c 128,-1,19
 209 -185 209 -185 220 -177 c 1,20,-1
 234 -194 l 1,21,22
 213 -214 213 -214 194 -223.5 c 128,-1,23
 175 -233 175 -233 151 -233 c 0,24,25
 130 -233 130 -233 111.5 -224 c 128,-1,26
 93 -215 93 -215 82.5 -196 c 128,-1,27
 72 -177 72 -177 72 -151 c 0,28,29
 72 -118 72 -118 90 -82 c 128,-1,30
 108 -46 108 -46 143 0 c 1,31,-1
 30 0 l 1,32,-1
 30 4 l 1,0,-1
EndSplineSet
Validated: 1048577
Substitution2: "sous-table 'c2sc' Capitales vers petites capitales dans Latin lookup 37" iogonek.sc
AlternateSubs2: "sous-table 'aalt' Activer toutes les variantes dans Latin lookup 0" iogonek.sc
EndChar

StartChar: J
Encoding: 74 74 61
Width: 313
GlyphClass: 2
Flags: W
AnchorPoint: "Ancre-11" 169 750 basechar 0
AnchorPoint: "Ancre-3" 157 700 basechar 0
AnchorPoint: "Ancre-2" 157 0 basechar 0
LayerCount: 2
Fore
SplineSet
-12 -109 m 1,0,-1
 7 -92 l 2,1,2
 62 -43 62 -43 84 -8 c 0,3,4
 108 30 108 30 108 76 c 2,5,-1
 108 639 l 1,6,-1
 44 696 l 1,7,-1
 44 700 l 1,8,-1
 270 700 l 1,9,-1
 270 696 l 1,10,-1
 206 639 l 1,11,-1
 206 91 l 2,12,13
 206 61 206 61 195 38.5 c 128,-1,14
 184 16 184 16 160.5 -7.5 c 0,15,16
 135.6 -32.4 135.6 -32.4 82 -78 c 2,17,-1
 15 -135 l 1,18,-1
 -12 -109 l 1,0,-1
EndSplineSet
Validated: 1572865
Substitution2: "sous-table 'ss03' Jeu stylistique 3 dans Latin lookup 43" J.ss03
Substitution2: "sous-table 'c2sc' Capitales vers petites capitales dans Latin lookup 37" j.sc
Substitution2: "sous-table Substitution simple lookups2" J_acutecomb
AlternateSubs2: "sous-table 'aalt' Activer toutes les variantes dans Latin lookup 0" j.sc J.ss03
EndChar

StartChar: K
Encoding: 75 75 64
Width: 671
GlyphClass: 2
Flags: W
AnchorPoint: "Ancre-12" 402 0 basechar 0
AnchorPoint: "Ancre-3" 336 750 basechar 0
AnchorPoint: "Ancre-2" 366 0 basechar 0
LayerCount: 2
Fore
SplineSet
216 383 m 1,0,-1
 477 643 l 1,1,-1
 409 696 l 1,2,-1
 409 700 l 1,3,-1
 624 700 l 1,4,-1
 624 695 l 1,5,-1
 524 636 l 1,6,-1
 308 421 l 1,7,-1
 669 0 l 1,8,-1
 544 0 l 1,9,-1
 216 383 l 1,0,-1
50 4 m 1,10,-1
 114 61 l 1,11,-1
 114 639 l 1,12,-1
 50 696 l 1,13,-1
 50 700 l 1,14,-1
 276 700 l 1,15,-1
 276 696 l 1,16,-1
 212 639 l 1,17,-1
 212 61 l 1,18,-1
 276 4 l 1,19,-1
 276 0 l 1,20,-1
 50 0 l 1,21,-1
 50 4 l 1,10,-1
EndSplineSet
Validated: 1048577
Substitution2: "sous-table 'c2sc' Capitales vers petites capitales dans Latin lookup 37" k.sc
AlternateSubs2: "sous-table 'aalt' Activer toutes les variantes dans Latin lookup 0" k.sc
EndChar

StartChar: L
Encoding: 76 76 66
Width: 565
GlyphClass: 2
Flags: W
AnchorPoint: "Ancre-14" 505 750 basechar 0
AnchorPoint: "Ancre-13" 50 322 basechar 0
AnchorPoint: "Ancre-12" 322 0 basechar 0
AnchorPoint: "Ancre-11" 207 750 basechar 0
AnchorPoint: "Ancre-4" 329 754 basechar 0
AnchorPoint: "Ancre-3" 163 700 basechar 0
AnchorPoint: "Ancre-2" 296 0 basechar 0
LayerCount: 2
Fore
SplineSet
50 4 m 1,0,-1
 114 61 l 1,1,-1
 114 639 l 1,2,-1
 50 696 l 1,3,-1
 50 700 l 1,4,-1
 276 700 l 1,5,-1
 276 696 l 1,6,-1
 212 639 l 1,7,-1
 212 44 l 1,8,-1
 406 44 l 1,9,-1
 547 190 l 1,10,-1
 552 190 l 1,11,-1
 489 0 l 1,12,-1
 50 0 l 1,13,-1
 50 4 l 1,0,-1
EndSplineSet
Validated: 1048577
Substitution2: "sous-table 'c2sc' Capitales vers petites capitales dans Latin lookup 37" l.sc
AlternateSubs2: "sous-table 'aalt' Activer toutes les variantes dans Latin lookup 0" l.sc
EndChar

StartChar: Lslash
Encoding: 321 321 72
Width: 565
GlyphClass: 2
Flags: W
AnchorPoint: "Ancre-14" 505 750 basechar 0
AnchorPoint: "Ancre-13" 30 322 basechar 0
AnchorPoint: "Ancre-12" 322 0 basechar 0
AnchorPoint: "Ancre-11" 207 750 basechar 0
LayerCount: 2
Fore
SplineSet
30 4 m 1,0,-1
 114 61 l 1,1,-1
 114 295 l 1,2,-1
 28 257 l 1,3,-1
 28 301 l 1,4,-1
 114 339 l 1,5,-1
 114 639 l 1,6,-1
 30 696 l 1,7,-1
 30 700 l 1,8,-1
 296 700 l 1,9,-1
 296 696 l 1,10,-1
 212 639 l 1,11,-1
 212 382 l 1,12,-1
 379 456 l 1,13,-1
 379 413 l 1,14,-1
 212 338 l 1,15,-1
 212 44 l 1,16,-1
 406 44 l 1,17,-1
 557 190 l 1,18,-1
 562 190 l 1,19,-1
 499 0 l 1,20,-1
 30 0 l 1,21,-1
 30 4 l 1,0,-1
EndSplineSet
Validated: 1048577
Substitution2: "sous-table 'c2sc' Capitales vers petites capitales dans Latin lookup 37" lslash.sc
AlternateSubs2: "sous-table 'aalt' Activer toutes les variantes dans Latin lookup 0" lslash.sc
EndChar

StartChar: M
Encoding: 77 77 73
Width: 940
GlyphClass: 2
Flags: W
AnchorPoint: "Ancre-12" 503 0 basechar 0
AnchorPoint: "Ancre-3" 470 750 basechar 0
AnchorPoint: "Ancre-2" 470 0 basechar 0
LayerCount: 2
Fore
SplineSet
161 614 m 1,0,-1
 161 61 l 1,1,-1
 226 4 l 1,2,-1
 226 0 l 1,3,-1
 50 0 l 1,4,-1
 50 4 l 1,5,-1
 114 61 l 1,6,-1
 114 644 l 1,7,-1
 51 696 l 1,8,-1
 51 700 l 1,9,-1
 227 700 l 1,10,-1
 489 178 l 1,11,-1
 712 700 l 1,12,-1
 890 700 l 1,13,-1
 890 696 l 1,14,-1
 826 639 l 1,15,-1
 826 61 l 1,16,-1
 890 4 l 1,17,-1
 890 0 l 1,18,-1
 664 0 l 1,19,-1
 664 4 l 1,20,-1
 728 61 l 1,21,-1
 728 622 l 1,22,-1
 476 32 l 1,23,-1
 455 32 l 1,24,-1
 161 614 l 1,0,-1
EndSplineSet
Validated: 1048577
Substitution2: "sous-table 'c2sc' Capitales vers petites capitales dans Latin lookup 37" m.sc
AlternateSubs2: "sous-table 'aalt' Activer toutes les variantes dans Latin lookup 0" m.sc
EndChar

StartChar: N
Encoding: 78 78 76
Width: 775
GlyphClass: 2
Flags: W
AnchorPoint: "Ancre-12" 429 0 basechar 0
AnchorPoint: "Ancre-11" 419 750 basechar 0
AnchorPoint: "Ancre-3" 388 700 basechar 0
AnchorPoint: "Ancre-2" 401 0 basechar 0
LayerCount: 2
Fore
SplineSet
166 540 m 1,0,-1
 166 61 l 1,1,-1
 230 4 l 1,2,-1
 230 0 l 1,3,-1
 55 0 l 1,4,-1
 55 4 l 1,5,-1
 119 61 l 1,6,-1
 119 594 l 1,7,-1
 45 700 l 1,8,-1
 157 700 l 1,9,-1
 620 173 l 1,10,-1
 620 639 l 1,11,-1
 556 696 l 1,12,-1
 556 700 l 1,13,-1
 731 700 l 1,14,-1
 731 696 l 1,15,-1
 667 639 l 1,16,-1
 667 -7 l 1,17,-1
 646 -7 l 1,18,-1
 166 540 l 1,0,-1
EndSplineSet
Validated: 1048577
Substitution2: "sous-table 'c2sc' Capitales vers petites capitales dans Latin lookup 37" n.sc
AlternateSubs2: "sous-table 'aalt' Activer toutes les variantes dans Latin lookup 0" n.sc
EndChar

StartChar: uni019D
Encoding: 413 413 82
Width: 770
GlyphClass: 1
Flags: W
LayerCount: 2
Fore
SplineSet
161 540 m 1,0,-1
 161 -16 l 2,1,2
 161 -51 161 -51 154 -78 c 128,-1,3
 147 -105 147 -105 123.5 -136.5 c 128,-1,4
 100 -168 100 -168 53 -208 c 2,5,-1
 24 -233 l 1,6,-1
 5 -213 l 1,7,-1
 11 -207 l 1,8,9
 63 -161 63 -161 88.5 -119.5 c 128,-1,10
 114 -78 114 -78 114 -32 c 2,11,-1
 114 594 l 1,12,-1
 21 700 l 1,13,-1
 152 700 l 1,14,-1
 615 173 l 1,15,-1
 615 639 l 1,16,-1
 531 696 l 1,17,-1
 531 700 l 1,18,-1
 747 700 l 1,19,-1
 747 696 l 1,20,-1
 663 639 l 1,21,-1
 663 -7 l 1,22,-1
 641 -7 l 1,23,-1
 161 540 l 1,0,-1
EndSplineSet
Validated: 1
Substitution2: "sous-table 'c2sc' Capitales vers petites capitales dans Latin lookup 37" uni0272.sc
AlternateSubs2: "sous-table 'aalt' Activer toutes les variantes dans Latin lookup 0" uni0272.sc
EndChar

StartChar: Eng
Encoding: 330 330 85
Width: 775
GlyphClass: 2
Flags: W
AnchorPoint: "Ancre-12" 429 0 basechar 0
AnchorPoint: "Ancre-11" 419 750 basechar 0
LayerCount: 2
Fore
SplineSet
35 4 m 1,0,-1
 119 61 l 1,1,-1
 119 594 l 1,2,-1
 25 700 l 1,3,-1
 157 700 l 1,4,-1
 620 173 l 1,5,-1
 620 639 l 1,6,-1
 536 696 l 1,7,-1
 536 700 l 1,8,-1
 751 700 l 1,9,-1
 751 696 l 1,10,-1
 667 639 l 1,11,-1
 667 -16 l 2,12,13
 667 -51 667 -51 660 -78 c 128,-1,14
 653 -105 653 -105 629.5 -136.5 c 128,-1,15
 606 -168 606 -168 559 -208 c 2,16,-1
 530 -233 l 1,17,-1
 511 -213 l 1,18,-1
 517 -207 l 1,19,20
 569 -161 569 -161 594.5 -119.5 c 128,-1,21
 620 -78 620 -78 620 -32 c 2,22,-1
 620 22 l 1,23,-1
 166 540 l 1,24,-1
 166 61 l 1,25,-1
 250 4 l 1,26,-1
 250 0 l 1,27,-1
 35 0 l 1,28,-1
 35 4 l 1,0,-1
EndSplineSet
Validated: 1048577
Substitution2: "sous-table 'c2sc' Capitales vers petites capitales dans Latin lookup 37" eng.sc
AlternateSubs2: "sous-table 'aalt' Activer toutes les variantes dans Latin lookup 0" eng.sc
EndChar

StartChar: O
Encoding: 79 79 86
Width: 777
GlyphClass: 2
Flags: W
AnchorPoint: "Ancre-15" 416 375 basechar 0
AnchorPoint: "Ancre-12" 431 0 basechar 0
AnchorPoint: "Ancre-11" 399 750 basechar 0
AnchorPoint: "Ancre-4" 757 750 basechar 0
AnchorPoint: "Ancre-3" 389 700 basechar 0
AnchorPoint: "Ancre-2" 389 0 basechar 0
LayerCount: 2
Fore
SplineSet
388 -9 m 1,0,1
 292 -9 292 -9 212 36.5 c 128,-1,2
 132 82 132 82 84.5 162.5 c 128,-1,3
 37 243 37 243 37 341 c 0,4,5
 37 446 37 446 84.5 530 c 128,-1,6
 132 614 132 614 212 661.5 c 128,-1,7
 292 709 292 709 388 709 c 256,8,9
 484 709 484 709 564.5 663.5 c 128,-1,10
 645 618 645 618 692 537.5 c 128,-1,11
 739 457 739 457 739 359 c 0,12,13
 739 254 739 254 692 170 c 128,-1,14
 645 86 645 86 564.5 38.5 c 128,-1,15
 484 -9 484 -9 388 -9 c 1,16,-1
 388 -9 l 1,0,1
143 384 m 1,17,18
 143 290 143 290 176 210.5 c 128,-1,19
 209 131 209 131 269.5 83 c 128,-1,20
 330 35 330 35 408 35 c 0,21,22
 479 35 479 35 530.5 74 c 128,-1,23
 582 113 582 113 608 177 c 128,-1,24
 634 241 634 241 634 316 c 0,25,26
 634 410 634 410 601 489.5 c 128,-1,27
 568 569 568 569 507.5 617 c 128,-1,28
 447 665 447 665 369 665 c 0,29,30
 298 665 298 665 246.5 626 c 128,-1,31
 195 587 195 587 169 523 c 128,-1,32
 143 459 143 459 143 384 c 1,33,-1
 143 384 l 1,17,18
EndSplineSet
Validated: 1048581
Substitution2: "sous-table 'c2sc' Capitales vers petites capitales dans Latin lookup 37" o.sc
Substitution2: "sous-table Substitution simple lookups9" ordmasculine
AlternateSubs2: "sous-table 'aalt' Activer toutes les variantes dans Latin lookup 0" o.sc
EndChar

StartChar: Ocommaaccent.loclMAH
Encoding: 65544 -1 90
Width: 777
GlyphClass: 2
Flags: W
AnchorPoint: "Ancre-9" 416 375 basechar 0
AnchorPoint: "Ancre-8" 399 750 basechar 0
AnchorPoint: "Ancre-7" 431 0 basechar 0
LayerCount: 2
Fore
SplineSet
329 -216 m 1,0,1
 373 -200 373 -200 392.5 -182.5 c 128,-1,2
 412 -165 412 -165 412 -144 c 0,3,4
 412 -120 412 -120 392 -103.5 c 128,-1,5
 372 -87 372 -87 332 -80 c 1,6,-1
 379 -9 l 1,7,8
 285 -7 285 -7 207 39 c 128,-1,9
 129 85 129 85 83 164.5 c 128,-1,10
 37 244 37 244 37 341 c 0,11,12
 37 446 37 446 84.5 530 c 128,-1,13
 132 614 132 614 212 661.5 c 128,-1,14
 292 709 292 709 388 709 c 256,15,16
 484 709 484 709 564.5 663.5 c 128,-1,17
 645 618 645 618 692 537.5 c 128,-1,18
 739 457 739 457 739 359 c 0,19,20
 739 259 739 259 696 177 c 128,-1,21
 653 95 653 95 578.5 46 c 128,-1,22
 504 -3 504 -3 414 -8 c 1,23,-1
 387 -48 l 1,24,25
 428 -58 428 -58 452 -81 c 128,-1,26
 476 -104 476 -104 476 -133 c 0,27,28
 476 -158 476 -158 459 -175.5 c 128,-1,29
 442 -193 442 -193 415 -206 c 128,-1,30
 388 -219 388 -219 339 -237 c 1,31,-1
 329 -216 l 1,0,1
408 35 m 1,32,33
 479 35 479 35 530.5 74 c 128,-1,34
 582 113 582 113 608 177 c 128,-1,35
 634 241 634 241 634 316 c 0,36,37
 634 410 634 410 601 489.5 c 128,-1,38
 568 569 568 569 507.5 617 c 128,-1,39
 447 665 447 665 369 665 c 0,40,41
 298 665 298 665 246.5 626 c 128,-1,42
 195 587 195 587 169 523 c 128,-1,43
 143 459 143 459 143 384 c 0,44,45
 143 290 143 290 176 210.5 c 128,-1,46
 209 131 209 131 269.5 83 c 128,-1,47
 330 35 330 35 408 35 c 1,48,-1
 408 35 l 1,32,33
EndSplineSet
Validated: 5
EndChar

StartChar: Oslash
Encoding: 216 216 96
Width: 777
GlyphClass: 2
Flags: W
AnchorPoint: "Ancre-15" 416 375 basechar 0
AnchorPoint: "Ancre-12" 431 0 basechar 0
AnchorPoint: "Ancre-11" 399 750 basechar 0
AnchorPoint: "Ancre-3" 389 700 basechar 0
AnchorPoint: "Ancre-2" 389 0 basechar 0
LayerCount: 2
Fore
SplineSet
63 15 m 1,0,-1
 134 96 l 1,1,2
 88 144 88 144 62.5 206.5 c 128,-1,3
 37 269 37 269 37 341 c 0,4,5
 37 446 37 446 84.5 530 c 128,-1,6
 132 614 132 614 212 661.5 c 128,-1,7
 292 709 292 709 388 709 c 0,8,9
 449 709 449 709 505 690 c 128,-1,10
 561 671 561 671 607 636 c 1,11,-1
 676 715 l 1,12,-1
 715 685 l 1,13,-1
 643 603 l 1,14,15
 689 555 689 555 714 493 c 128,-1,16
 739 431 739 431 739 359 c 0,17,18
 739 254 739 254 692 170 c 128,-1,19
 645 86 645 86 564.5 38.5 c 128,-1,20
 484 -9 484 -9 388 -9 c 0,21,22
 328 -9 328 -9 272.5 10 c 128,-1,23
 217 29 217 29 171 63 c 1,24,-1
 102 -15 l 1,25,-1
 63 15 l 1,0,-1
408 35 m 1,26,27
 479 35 479 35 530.5 74 c 128,-1,28
 582 113 582 113 608 177 c 128,-1,29
 634 241 634 241 634 316 c 0,30,31
 634 376 634 376 620.5 431 c 128,-1,32
 607 486 607 486 581 531 c 1,33,-1
 226 126 l 1,34,35
 260 83 260 83 306.5 59 c 128,-1,36
 353 35 353 35 408 35 c 1,37,-1
 408 35 l 1,26,27
552 573 m 1,38,39
 516 616 516 616 469.5 640.5 c 128,-1,40
 423 665 423 665 369 665 c 0,41,42
 298 665 298 665 246.5 626 c 128,-1,43
 195 587 195 587 169 523 c 128,-1,44
 143 459 143 459 143 384 c 0,45,46
 143 325 143 325 157 269.5 c 128,-1,47
 171 214 171 214 197 168 c 1,48,-1
 552 573 l 1,38,39
EndSplineSet
Validated: 1048581
Substitution2: "sous-table 'c2sc' Capitales vers petites capitales dans Latin lookup 37" oslash.sc
AlternateSubs2: "sous-table 'aalt' Activer toutes les variantes dans Latin lookup 0" oslash.sc
EndChar

StartChar: OE
Encoding: 338 338 99
Width: 1028
GlyphClass: 1
Flags: W
LayerCount: 2
Fore
SplineSet
388 0 m 1,0,1
 292 0 292 0 212 44.5 c 128,-1,2
 132 89 132 89 84.5 167.5 c 128,-1,3
 37 246 37 246 37 341 c 0,4,5
 37 443 37 443 84.5 525.5 c 128,-1,6
 132 608 132 608 212 654 c 128,-1,7
 292 700 292 700 388 700 c 2,8,-1
 922 700 l 1,9,-1
 985 511 l 1,10,-1
 980 511 l 1,11,-1
 829 656 l 1,12,-1
 599 656 l 1,13,-1
 599 385 l 1,14,-1
 791 385 l 1,15,-1
 859 485 l 1,16,-1
 865 485 l 1,17,-1
 865 240 l 1,18,-1
 859 240 l 1,19,-1
 791 341 l 1,20,-1
 599 341 l 1,21,-1
 599 44 l 1,22,-1
 855 44 l 1,23,-1
 1006 190 l 1,24,-1
 1011 190 l 1,25,-1
 948 0 l 1,26,-1
 388 0 l 1,27,-1
 388 0 l 1,0,1
143 383 m 1,28,29
 143 292 143 292 176 214 c 128,-1,30
 209 136 209 136 269.5 90 c 128,-1,31
 330 44 330 44 408 44 c 2,32,-1
 501 44 l 1,33,-1
 501 656 l 1,34,-1
 369 656 l 2,35,36
 298 656 298 656 246.5 618.5 c 128,-1,37
 195 581 195 581 169 518.5 c 128,-1,38
 143 456 143 456 143 383 c 1,39,-1
 143 383 l 1,28,29
EndSplineSet
Validated: 5
Substitution2: "sous-table 'c2sc' Capitales vers petites capitales dans Latin lookup 37" oe.sc
AlternateSubs2: "sous-table 'aalt' Activer toutes les variantes dans Latin lookup 0" oe.sc
EndChar

StartChar: P
Encoding: 80 80 100
Width: 597
GlyphClass: 1
Flags: W
LayerCount: 2
Fore
SplineSet
50 4 m 1,0,-1
 114 61 l 1,1,-1
 114 639 l 1,2,-1
 50 696 l 1,3,-1
 50 700 l 1,4,-1
 323 700 l 2,5,6
 393 700 393 700 452.5 681 c 128,-1,7
 512 662 512 662 547.5 622.5 c 128,-1,8
 583 583 583 583 583 524 c 256,9,10
 583 465 583 465 547 420.5 c 128,-1,11
 511 376 511 376 451 353 c 128,-1,12
 391 330 391 330 323 330 c 2,13,-1
 212 330 l 1,14,-1
 212 61 l 1,15,-1
 293 4 l 1,16,-1
 293 0 l 1,17,-1
 50 0 l 1,18,-1
 50 4 l 1,0,-1
321 373 m 2,19,20
 366 373 366 373 401 391 c 128,-1,21
 436 409 436 409 456 440.5 c 128,-1,22
 476 472 476 472 476 514 c 256,23,24
 476 556 476 556 456 588.5 c 128,-1,25
 436 621 436 621 401 638.5 c 128,-1,26
 366 656 366 656 321 656 c 2,27,-1
 212 656 l 1,28,-1
 212 373 l 1,29,-1
 321 373 l 2,19,20
EndSplineSet
Validated: 524289
Substitution2: "sous-table 'c2sc' Capitales vers petites capitales dans Latin lookup 37" p.sc
AlternateSubs2: "sous-table 'aalt' Activer toutes les variantes dans Latin lookup 0" p.sc
EndChar

StartChar: Thorn
Encoding: 222 222 101
Width: 612
GlyphClass: 1
Flags: W
LayerCount: 2
Fore
SplineSet
30 4 m 1,0,-1
 114 61 l 1,1,-1
 114 639 l 1,2,-1
 30 696 l 1,3,-1
 30 700 l 1,4,-1
 296 700 l 1,5,-1
 296 696 l 1,6,-1
 212 639 l 1,7,-1
 212 560 l 1,8,-1
 323 560 l 2,9,10
 393 560 393 560 452.5 541 c 128,-1,11
 512 522 512 522 547.5 482 c 128,-1,12
 583 442 583 442 583 384 c 0,13,14
 583 325 583 325 547 280.5 c 128,-1,15
 511 236 511 236 451 213 c 128,-1,16
 391 190 391 190 323 190 c 2,17,-1
 212 190 l 1,18,-1
 212 61 l 1,19,-1
 304 4 l 1,20,-1
 304 0 l 1,21,-1
 30 0 l 1,22,-1
 30 4 l 1,0,-1
321 233 m 2,23,24
 366 233 366 233 401 251 c 128,-1,25
 436 269 436 269 456 300.5 c 128,-1,26
 476 332 476 332 476 374 c 256,27,28
 476 416 476 416 456 448.5 c 128,-1,29
 436 481 436 481 401 498.5 c 128,-1,30
 366 516 366 516 321 516 c 2,31,-1
 212 516 l 1,32,-1
 212 233 l 1,33,-1
 321 233 l 2,23,24
EndSplineSet
Validated: 1
Substitution2: "sous-table 'c2sc' Capitales vers petites capitales dans Latin lookup 37" thorn.sc
AlternateSubs2: "sous-table 'aalt' Activer toutes les variantes dans Latin lookup 0" thorn.sc
EndChar

StartChar: Q
Encoding: 81 81 102
Width: 777
GlyphClass: 2
Flags: W
AnchorPoint: "Ancre-15" 416 375 basechar 0
AnchorPoint: "Ancre-11" 377 750 basechar 0
LayerCount: 2
Fore
SplineSet
345 -35 m 1,0,1
 260 -7 260 -7 191 42 c 128,-1,2
 122 91 122 91 79.5 166.5 c 128,-1,3
 37 242 37 242 37 341 c 0,4,5
 37 446 37 446 84.5 530 c 128,-1,6
 132 614 132 614 212 661.5 c 128,-1,7
 292 709 292 709 388 709 c 256,8,9
 484 709 484 709 564.5 663.5 c 128,-1,10
 645 618 645 618 692 537.5 c 128,-1,11
 739 457 739 457 739 359 c 0,12,13
 739 260 739 260 694 179.5 c 128,-1,14
 649 99 649 99 571 49.5 c 128,-1,15
 493 0 493 0 398 -7 c 1,16,-1
 867 -78 l 1,17,-1
 867 -82 l 1,18,-1
 695 -158 l 1,19,-1
 345 -35 l 1,20,-1
 345 -35 l 1,0,1
143 384 m 1,21,22
 143 290 143 290 176 210.5 c 128,-1,23
 209 131 209 131 269.5 83 c 128,-1,24
 330 35 330 35 408 35 c 0,25,26
 479 35 479 35 530.5 74 c 128,-1,27
 582 113 582 113 608 177 c 128,-1,28
 634 241 634 241 634 316 c 0,29,30
 634 410 634 410 601 489.5 c 128,-1,31
 568 569 568 569 507.5 617 c 128,-1,32
 447 665 447 665 369 665 c 0,33,34
 298 665 298 665 246.5 626 c 128,-1,35
 195 587 195 587 169 523 c 128,-1,36
 143 459 143 459 143 384 c 1,37,-1
 143 384 l 1,21,22
EndSplineSet
Validated: 1048581
Substitution2: "sous-table 'ss04' Jeu stylistique 4 dans Latin lookup 44" Q.ss04
Substitution2: "sous-table 'c2sc' Capitales vers petites capitales dans Latin lookup 37" q.sc
AlternateSubs2: "sous-table 'aalt' Activer toutes les variantes dans Latin lookup 0" q.sc Q.ss04
EndChar

StartChar: R
Encoding: 82 82 103
Width: 674
GlyphClass: 2
Flags: W
AnchorPoint: "Ancre-12" 417 0 basechar 0
AnchorPoint: "Ancre-11" 329 750 basechar 0
AnchorPoint: "Ancre-3" 337 700 basechar 0
AnchorPoint: "Ancre-2" 317 0 basechar 0
LayerCount: 2
Fore
SplineSet
50 4 m 1,0,-1
 114 61 l 1,1,-1
 114 639 l 1,2,-1
 50 696 l 1,3,-1
 50 700 l 1,4,-1
 316 700 l 2,5,6
 387 700 387 700 446 682.5 c 128,-1,7
 505 665 505 665 541 626.5 c 128,-1,8
 577 588 577 588 577 529 c 0,9,10
 577 484 577 484 555 448.5 c 128,-1,11
 533 413 533 413 495 388.5 c 128,-1,12
 457 364 457 364 409 352 c 1,13,-1
 610 59 l 1,14,-1
 680 4 l 1,15,-1
 680 0 l 1,16,-1
 537 0 l 1,17,-1
 308 341 l 1,18,-1
 212 341 l 1,19,-1
 212 61 l 1,20,-1
 276 4 l 1,21,-1
 276 0 l 1,22,-1
 50 0 l 1,23,-1
 50 4 l 1,0,-1
315 385 m 2,24,25
 359 385 359 385 394 401 c 128,-1,26
 429 417 429 417 449.5 447.5 c 128,-1,27
 470 478 470 478 470 520 c 256,28,29
 470 562 470 562 449.5 593 c 128,-1,30
 429 624 429 624 394 640 c 128,-1,31
 359 656 359 656 315 656 c 2,32,-1
 212 656 l 1,33,-1
 212 385 l 1,34,-1
 315 385 l 2,24,25
EndSplineSet
Validated: 1048577
Substitution2: "sous-table 'c2sc' Capitales vers petites capitales dans Latin lookup 37" r.sc
AlternateSubs2: "sous-table 'aalt' Activer toutes les variantes dans Latin lookup 0" r.sc
EndChar

StartChar: S
Encoding: 83 83 107
Width: 539
GlyphClass: 2
Flags: W
AnchorPoint: "Ancre-12" 304 0 basechar 0
AnchorPoint: "Ancre-11" 286 750 basechar 0
AnchorPoint: "Ancre-3" 264 700 basechar 0
AnchorPoint: "Ancre-2" 270 0 basechar 0
LayerCount: 2
Fore
SplineSet
275 -9 m 1,0,1
 215 -9 215 -9 166 1.5 c 128,-1,2
 117 12 117 12 57 32 c 1,3,-1
 45 237 l 1,4,-1
 49 237 l 1,5,6
 147 31 147 31 297 31 c 0,7,8
 333 31 333 31 363.5 45 c 128,-1,9
 394 59 394 59 412.5 86.5 c 128,-1,10
 431 114 431 114 431 152 c 0,11,12
 431 187 431 187 415.5 213.5 c 128,-1,13
 400 240 400 240 370.5 260.5 c 128,-1,14
 341 281 341 281 293 303 c 2,15,-1
 204 345 l 2,16,17
 127 382 127 382 88 426 c 128,-1,18
 49 470 49 470 49 532 c 0,19,20
 49 582 49 582 77 622.5 c 128,-1,21
 105 663 105 663 154 686 c 128,-1,22
 203 709 203 709 262 709 c 0,23,24
 311 709 311 709 352 702 c 128,-1,25
 393 695 393 695 456 677 c 1,26,-1
 467 484 l 1,27,-1
 462 484 l 1,28,29
 414 579 414 579 364.5 624 c 128,-1,30
 315 669 315 669 250 669 c 0,31,32
 213 669 213 669 183.5 656 c 128,-1,33
 154 643 154 643 137.5 619.5 c 128,-1,34
 121 596 121 596 121 566 c 0,35,36
 121 538 121 538 134.5 516 c 128,-1,37
 148 494 148 494 177 474.5 c 128,-1,38
 206 455 206 455 257 430 c 2,39,-1
 345 388 l 2,40,41
 423 352 423 352 463 301.5 c 128,-1,42
 503 251 503 251 503 192 c 0,43,44
 503 135 503 135 472.5 89 c 128,-1,45
 442 43 442 43 390.5 17 c 128,-1,46
 339 -9 339 -9 275 -9 c 1,47,-1
 275 -9 l 1,0,1
EndSplineSet
Validated: 1048581
Substitution2: "sous-table 'c2sc' Capitales vers petites capitales dans Latin lookup 37" s.sc
AlternateSubs2: "sous-table 'aalt' Activer toutes les variantes dans Latin lookup 0" s.sc
EndChar

StartChar: uniA78B
Encoding: 42891 42891 109
Width: 176
GlyphClass: 1
Flags: W
LayerCount: 2
Fore
SplineSet
52 322 m 1,0,1
 75 404 75 404 75 481 c 0,2,3
 75 594 75 594 30 703 c 1,4,-1
 111 703 l 1,5,6
 133 622 133 622 133 545 c 0,7,8
 133 433 133 433 88 322 c 1,9,-1
 52 322 l 1,10,-1
 52 322 l 1,0,1
EndSplineSet
Validated: 5
EndChar

StartChar: Scedilla
Encoding: 350 350 111
Width: 539
GlyphClass: 2
Flags: W
AnchorPoint: "Ancre-12" 304 0 basechar 0
AnchorPoint: "Ancre-11" 286 750 basechar 0
LayerCount: 2
Fore
SplineSet
210 -216 m 1,0,1
 255 -200 255 -200 274 -182.5 c 128,-1,2
 293 -165 293 -165 293 -144 c 0,3,4
 293 -120 293 -120 273 -103.5 c 128,-1,5
 253 -87 253 -87 214 -80 c 1,6,-1
 260 -9 l 1,7,8
 204 -8 204 -8 158 2.5 c 128,-1,9
 112 13 112 13 57 32 c 1,10,-1
 45 237 l 1,11,-1
 49 237 l 1,12,13
 147 31 147 31 297 31 c 0,14,15
 333 31 333 31 363.5 45 c 128,-1,16
 394 59 394 59 412.5 86.5 c 128,-1,17
 431 114 431 114 431 152 c 0,18,19
 431 187 431 187 415.5 213.5 c 128,-1,20
 400 240 400 240 370.5 260.5 c 128,-1,21
 341 281 341 281 293 303 c 2,22,-1
 204 345 l 2,23,24
 127 382 127 382 88 426 c 128,-1,25
 49 470 49 470 49 532 c 0,26,27
 49 582 49 582 77 622.5 c 128,-1,28
 105 663 105 663 154 686 c 128,-1,29
 203 709 203 709 262 709 c 0,30,31
 311 709 311 709 352 702 c 128,-1,32
 393 695 393 695 456 677 c 1,33,-1
 467 484 l 1,34,-1
 462 484 l 1,35,36
 414 579 414 579 364.5 624 c 128,-1,37
 315 669 315 669 250 669 c 0,38,39
 213 669 213 669 183.5 656 c 128,-1,40
 154 643 154 643 137.5 619.5 c 128,-1,41
 121 596 121 596 121 566 c 0,42,43
 121 538 121 538 134.5 516 c 128,-1,44
 148 494 148 494 177 474.5 c 128,-1,45
 206 455 206 455 257 430 c 2,46,-1
 345 388 l 2,47,48
 423 352 423 352 463 301.5 c 128,-1,49
 503 251 503 251 503 192 c 0,50,51
 503 138 503 138 476 93.5 c 128,-1,52
 449 49 449 49 401.5 22 c 128,-1,53
 354 -5 354 -5 295 -8 c 1,54,-1
 269 -48 l 1,55,56
 310 -58 310 -58 334 -81 c 128,-1,57
 358 -104 358 -104 358 -133 c 0,58,59
 358 -158 358 -158 341 -175.5 c 128,-1,60
 324 -193 324 -193 297 -206 c 128,-1,61
 270 -219 270 -219 220 -237 c 1,62,-1
 210 -216 l 1,63,-1
 210 -216 l 1,0,1
EndSplineSet
Validated: 1048581
Substitution2: "sous-table 'c2sc' Capitales vers petites capitales dans Latin lookup 37" scedilla.sc
Substitution2: "sous-table 'locl' Formes localis+AOkA-es g+AOkA-ographiquement dans Latin lookup 15" uni0218
AlternateSubs2: "sous-table 'aalt' Activer toutes les variantes dans Latin lookup 0" uni0218 scedilla.sc
EndChar

StartChar: uni1E9E
Encoding: 7838 7838 114
Width: 682
GlyphClass: 1
Flags: W
LayerCount: 2
Fore
SplineSet
430 -9 m 1,0,1
 379 -9 379 -9 335 12.5 c 128,-1,2
 291 34 291 34 246 78 c 1,3,-1
 269 102 l 1,4,5
 303 72 303 72 332.5 61 c 128,-1,6
 362 50 362 50 397 50 c 0,7,8
 435 50 435 50 470.5 69 c 128,-1,9
 506 88 506 88 528.5 124.5 c 128,-1,10
 551 161 551 161 551 211 c 0,11,12
 551 264 551 264 524.5 304 c 128,-1,13
 498 344 498 344 448 365 c 128,-1,14
 398 386 398 386 327 386 c 2,15,-1
 313 386 l 1,16,-1
 313 391 l 1,17,-1
 483 656 l 1,18,-1
 212 656 l 1,19,-1
 212 0 l 1,20,-1
 30 0 l 1,21,-1
 30 4 l 1,22,-1
 114 61 l 1,23,-1
 114 639 l 1,24,-1
 30 696 l 1,25,-1
 30 700 l 1,26,-1
 619 700 l 1,27,-1
 619 695 l 1,28,-1
 438 412 l 1,29,30
 495 402 495 402 542.5 375.5 c 128,-1,31
 590 349 590 349 618.5 306 c 128,-1,32
 647 263 647 263 647 207 c 0,33,34
 647 146 647 146 616.5 96.5 c 128,-1,35
 586 47 586 47 536 19 c 128,-1,36
 486 -9 486 -9 430 -9 c 1,37,-1
 430 -9 l 1,0,1
EndSplineSet
Validated: 5
Substitution2: "sous-table 'c2sc' Capitales vers petites capitales dans Latin lookup 37" germandbls.sc
AlternateSubs2: "sous-table 'aalt' Activer toutes les variantes dans Latin lookup 0" germandbls.sc
EndChar

StartChar: T
Encoding: 84 84 115
Width: 611
GlyphClass: 2
Flags: W
AnchorPoint: "Ancre-12" 322 0 basechar 0
AnchorPoint: "Ancre-11" 328 750 basechar 0
AnchorPoint: "Ancre-3" 306 700 basechar 0
AnchorPoint: "Ancre-2" 306 0 basechar 0
LayerCount: 2
Fore
SplineSet
193 4 m 1,0,-1
 257 61 l 1,1,-1
 257 660 l 1,2,-1
 123 660 l 1,3,-1
 18 521 l 1,4,-1
 13 521 l 1,5,-1
 38 706 l 1,6,-1
 111 700 l 1,7,-1
 500 700 l 1,8,-1
 573 706 l 1,9,-1
 598 521 l 1,10,-1
 594 521 l 1,11,-1
 488 660 l 1,12,-1
 355 660 l 1,13,-1
 355 61 l 1,14,-1
 419 4 l 1,15,-1
 419 0 l 1,16,-1
 193 0 l 1,17,-1
 193 4 l 1,0,-1
EndSplineSet
Validated: 1048577
Substitution2: "sous-table 'c2sc' Capitales vers petites capitales dans Latin lookup 37" t.sc
AlternateSubs2: "sous-table 'aalt' Activer toutes les variantes dans Latin lookup 0" t.sc
EndChar

StartChar: Tbar
Encoding: 358 358 116
Width: 611
GlyphClass: 2
Flags: W
AnchorPoint: "Ancre-12" 322 0 basechar 0
AnchorPoint: "Ancre-11" 328 750 basechar 0
LayerCount: 2
Fore
SplineSet
173 4 m 1,0,-1
 257 61 l 1,1,-1
 257 344 l 1,2,-1
 77 344 l 1,3,-1
 100 386 l 1,4,-1
 257 386 l 1,5,-1
 257 660 l 1,6,-1
 123 660 l 1,7,-1
 18 511 l 1,8,-1
 13 511 l 1,9,-1
 38 726 l 1,10,-1
 111 700 l 1,11,-1
 500 700 l 1,12,-1
 573 726 l 1,13,-1
 598 511 l 1,14,-1
 594 511 l 1,15,-1
 488 660 l 1,16,-1
 355 660 l 1,17,-1
 355 386 l 1,18,-1
 531 386 l 1,19,-1
 509 344 l 1,20,-1
 355 344 l 1,21,-1
 355 61 l 1,22,-1
 439 4 l 1,23,-1
 439 0 l 1,24,-1
 173 0 l 1,25,-1
 173 4 l 1,0,-1
EndSplineSet
Validated: 1048577
Substitution2: "sous-table 'c2sc' Capitales vers petites capitales dans Latin lookup 37" tbar.sc
AlternateSubs2: "sous-table 'aalt' Activer toutes les variantes dans Latin lookup 0" tbar.sc
EndChar

StartChar: U
Encoding: 85 85 120
Width: 716
GlyphClass: 2
Flags: W
AnchorPoint: "Ancre-11" 409 750 basechar 0
AnchorPoint: "Ancre-10" 515 0 basechar 0
AnchorPoint: "Ancre-4" 696 750 basechar 0
AnchorPoint: "Ancre-3" 386 700 basechar 0
AnchorPoint: "Ancre-2" 358 0 basechar 0
LayerCount: 2
Fore
SplineSet
375 -9 m 1,0,1
 295 -9 295 -9 233.5 18 c 128,-1,2
 172 45 172 45 135.5 104.5 c 128,-1,3
 99 164 99 164 99 260 c 2,4,-1
 99 639 l 1,5,-1
 35 696 l 1,6,-1
 35 700 l 1,7,-1
 261 700 l 1,8,-1
 261 696 l 1,9,-1
 197 639 l 1,10,-1
 197 250 l 2,11,12
 197 182 197 182 220.5 134.5 c 128,-1,13
 244 87 244 87 287 62.5 c 128,-1,14
 330 38 330 38 388 38 c 0,15,16
 445 38 445 38 485.5 62.5 c 128,-1,17
 526 87 526 87 546.5 128.5 c 128,-1,18
 567 170 567 170 567 221 c 2,19,-1
 567 639 l 1,20,-1
 503 696 l 1,21,-1
 503 700 l 1,22,-1
 678 700 l 1,23,-1
 678 696 l 1,24,-1
 614 639 l 1,25,-1
 614 221 l 2,26,27
 614 159 614 159 585.5 106 c 128,-1,28
 557 53 557 53 503 22 c 128,-1,29
 449 -9 449 -9 375 -9 c 1,30,-1
 375 -9 l 1,0,1
EndSplineSet
Validated: 1048581
Substitution2: "sous-table 'c2sc' Capitales vers petites capitales dans Latin lookup 37" u.sc
AlternateSubs2: "sous-table 'aalt' Activer toutes les variantes dans Latin lookup 0" u.sc
EndChar

StartChar: Uogonek
Encoding: 370 370 128
Width: 716
GlyphClass: 2
Flags: W
AnchorPoint: "Ancre-11" 409 750 basechar 0
AnchorPoint: "Ancre-10" 515 0 basechar 0
LayerCount: 2
Fore
SplineSet
375 -9 m 1,0,1
 295 -9 295 -9 233.5 18 c 128,-1,2
 172 45 172 45 135.5 104.5 c 128,-1,3
 99 164 99 164 99 260 c 2,4,-1
 99 639 l 1,5,-1
 15 696 l 1,6,-1
 15 700 l 1,7,-1
 281 700 l 1,8,-1
 281 696 l 1,9,-1
 197 639 l 1,10,-1
 197 250 l 2,11,12
 197 182 197 182 220.5 134.5 c 128,-1,13
 244 87 244 87 287 62.5 c 128,-1,14
 330 38 330 38 388 38 c 0,15,16
 445 38 445 38 485.5 62.5 c 128,-1,17
 526 87 526 87 546.5 128.5 c 128,-1,18
 567 170 567 170 567 221 c 2,19,-1
 567 639 l 1,20,-1
 483 696 l 1,21,-1
 483 700 l 1,22,-1
 698 700 l 1,23,-1
 698 696 l 1,24,-1
 614 639 l 1,25,-1
 614 221 l 2,26,27
 614 163 614 163 589 113 c 128,-1,28
 564 63 564 63 517 31 c 1,29,30
 494 -10 494 -10 477.5 -57.5 c 128,-1,31
 461 -105 461 -105 461 -140 c 0,32,33
 461 -167 461 -167 472.5 -179.5 c 128,-1,34
 484 -192 484 -192 501 -192 c 0,35,36
 511 -192 511 -192 520 -188.5 c 128,-1,37
 529 -185 529 -185 540 -177 c 1,38,-1
 554 -194 l 1,39,40
 533 -214 533 -214 514 -223.5 c 128,-1,41
 495 -233 495 -233 471 -233 c 0,42,43
 450 -233 450 -233 432 -224 c 128,-1,44
 414 -215 414 -215 403 -196 c 128,-1,45
 392 -177 392 -177 392 -151 c 0,46,47
 392 -117 392 -117 411 -80 c 128,-1,48
 430 -43 430 -43 467 6 c 1,49,50
 424 -9 424 -9 375 -9 c 1,51,-1
 375 -9 l 1,0,1
EndSplineSet
Validated: 1048581
Substitution2: "sous-table 'c2sc' Capitales vers petites capitales dans Latin lookup 37" uogonek.sc
AlternateSubs2: "sous-table 'aalt' Activer toutes les variantes dans Latin lookup 0" uogonek.sc
EndChar

StartChar: V
Encoding: 86 86 131
Width: 684
GlyphClass: 1
Flags: W
LayerCount: 2
Fore
SplineSet
49 639 m 1,0,-1
 -8 696 l 1,1,-1
 -8 700 l 1,2,-1
 217 700 l 1,3,-1
 217 696 l 1,4,-1
 157 641 l 1,5,-1
 377 148 l 1,6,-1
 574 641 l 1,7,-1
 512 696 l 1,8,-1
 512 700 l 1,9,-1
 676 700 l 1,10,-1
 676 696 l 1,11,-1
 622 639 l 1,12,-1
 362 -13 l 1,13,-1
 341 -13 l 1,14,-1
 49 639 l 1,0,-1
EndSplineSet
Validated: 1
Substitution2: "sous-table 'c2sc' Capitales vers petites capitales dans Latin lookup 37" v.sc
AlternateSubs2: "sous-table 'aalt' Activer toutes les variantes dans Latin lookup 0" v.sc
EndChar

StartChar: W
Encoding: 87 87 132
Width: 1000
GlyphClass: 2
Flags: W
AnchorPoint: "Ancre-11" 529 750 basechar 0
AnchorPoint: "Ancre-3" 500 700 basechar 0
AnchorPoint: "Ancre-2" 500 0 basechar 0
LayerCount: 2
Fore
SplineSet
498 498 m 1,0,-1
 331 -13 l 1,1,-1
 310 -13 l 1,2,-1
 40 639 l 1,3,-1
 -16 696 l 1,4,-1
 -16 700 l 1,5,-1
 207 700 l 1,6,-1
 207 696 l 1,7,-1
 145 641 l 1,8,-1
 344 165 l 1,9,-1
 472 561 l 1,10,-1
 395 668 l 1,11,-1
 511 726 l 1,12,-1
 737 169 l 1,13,-1
 881 641 l 1,14,-1
 814 696 l 1,15,-1
 814 700 l 1,16,-1
 995 700 l 1,17,-1
 999 696 l 1,18,-1
 927 639 l 1,19,-1
 728 -13 l 1,20,-1
 707 -13 l 1,21,-1
 498 498 l 1,0,-1
EndSplineSet
Validated: 1048577
Substitution2: "sous-table 'ss02' Jeu stylistique 2 dans Latin lookup 42" W.ss02
Substitution2: "sous-table 'c2sc' Capitales vers petites capitales dans Latin lookup 37" w.sc
AlternateSubs2: "sous-table 'aalt' Activer toutes les variantes dans Latin lookup 0" w.sc W.ss02
EndChar

StartChar: X
Encoding: 88 88 137
Width: 665
GlyphClass: 1
Flags: W
LayerCount: 2
Fore
SplineSet
432 4 m 1,0,-1
 492 57 l 1,1,-1
 308 315 l 1,2,-1
 123 57 l 1,3,-1
 173 4 l 1,4,-1
 173 0 l 1,5,-1
 3 0 l 1,6,-1
 3 4 l 1,7,-1
 71 61 l 1,8,-1
 281 354 l 1,9,-1
 77 639 l 1,10,-1
 9 696 l 1,11,-1
 9 700 l 1,12,-1
 244 700 l 1,13,-1
 244 697 l 1,14,-1
 194 643 l 1,15,-1
 351 426 l 1,16,-1
 499 643 l 1,17,-1
 448 697 l 1,18,-1
 448 700 l 1,19,-1
 618 700 l 1,20,-1
 618 696 l 1,21,-1
 550 639 l 1,22,-1
 378 386 l 1,23,-1
 609 61 l 1,24,-1
 678 4 l 5,25,-1
 678 0 l 5,26,-1
 432 0 l 1,27,-1
 432 4 l 1,0,-1
EndSplineSet
Validated: 1
Substitution2: "sous-table 'c2sc' Capitales vers petites capitales dans Latin lookup 37" x.sc
AlternateSubs2: "sous-table 'aalt' Activer toutes les variantes dans Latin lookup 0" x.sc
EndChar

StartChar: Y
Encoding: 89 89 138
Width: 692
GlyphClass: 2
Flags: W
AnchorPoint: "Ancre-11" 393 750 basechar 0
AnchorPoint: "Ancre-3" 366 700 basechar 0
AnchorPoint: "Ancre-2" 346 0 basechar 0
LayerCount: 2
Fore
SplineSet
235 4 m 1,0,-1
 299 61 l 1,1,-1
 299 325 l 1,2,-1
 75 639 l 1,3,-1
 4 696 l 1,4,-1
 4 700 l 1,5,-1
 240 700 l 1,6,-1
 240 697 l 1,7,-1
 189 643 l 1,8,-1
 378 377 l 1,9,-1
 557 643 l 1,10,-1
 505 697 l 1,11,-1
 505 700 l 1,12,-1
 675 700 l 1,13,-1
 675 696 l 1,14,-1
 607 639 l 1,15,-1
 397 326 l 1,16,-1
 397 61 l 1,17,-1
 461 4 l 1,18,-1
 461 0 l 1,19,-1
 235 0 l 1,20,-1
 235 4 l 1,0,-1
EndSplineSet
Validated: 1048577
Substitution2: "sous-table 'c2sc' Capitales vers petites capitales dans Latin lookup 37" y.sc
AlternateSubs2: "sous-table 'aalt' Activer toutes les variantes dans Latin lookup 0" y.sc
EndChar

StartChar: Z
Encoding: 90 90 145
Width: 580
GlyphClass: 2
Flags: W
AnchorPoint: "Ancre-13" 123 411 basechar 0
AnchorPoint: "Ancre-11" 309 750 basechar 0
AnchorPoint: "Ancre-3" 305 700 basechar 0
AnchorPoint: "Ancre-2" 290 0 basechar 0
LayerCount: 2
Fore
SplineSet
21 5 m 1,0,-1
 398 656 l 1,1,-1
 161 656 l 1,2,-1
 46 531 l 1,3,-1
 42 531 l 1,4,-1
 72 700 l 1,5,-1
 532 700 l 1,6,-1
 532 695 l 1,7,-1
 155 44 l 1,8,-1
 428 44 l 1,9,-1
 546 168 l 1,10,-1
 551 168 l 1,11,-1
 516 0 l 1,12,-1
 21 0 l 1,13,-1
 21 5 l 1,0,-1
EndSplineSet
Validated: 1048577
Substitution2: "sous-table 'c2sc' Capitales vers petites capitales dans Latin lookup 37" z.sc
AlternateSubs2: "sous-table 'aalt' Activer toutes les variantes dans Latin lookup 0" z.sc
EndChar

StartChar: uni01B5
Encoding: 437 437 149
Width: 580
GlyphClass: 2
Flags: W
AnchorPoint: "Ancre-13" 123 411 basechar 0
AnchorPoint: "Ancre-11" 309 750 basechar 0
LayerCount: 2
Fore
SplineSet
21 5 m 1,0,-1
 217 343 l 1,1,-1
 92 343 l 1,2,-1
 115 384 l 1,3,-1
 240 384 l 1,4,-1
 398 656 l 1,5,-1
 161 656 l 1,6,-1
 36 511 l 1,7,-1
 32 511 l 1,8,-1
 72 700 l 1,9,-1
 532 700 l 1,10,-1
 532 695 l 1,11,-1
 352 384 l 1,12,-1
 484 384 l 1,13,-1
 461 343 l 1,14,-1
 328 343 l 1,15,-1
 155 44 l 1,16,-1
 428 44 l 1,17,-1
 556 198 l 1,18,-1
 561 198 l 1,19,-1
 516 0 l 1,20,-1
 21 0 l 1,21,-1
 21 5 l 1,0,-1
EndSplineSet
Validated: 1048577
Substitution2: "sous-table 'c2sc' Capitales vers petites capitales dans Latin lookup 37" uni01B6.sc
AlternateSubs2: "sous-table 'aalt' Activer toutes les variantes dans Latin lookup 0" uni01B6.sc
EndChar

StartChar: A.ss01
Encoding: 65545 -1 150
Width: 709
GlyphClass: 2
Flags: W
AnchorPoint: "Ancre-11" 369 750 basechar 0
AnchorPoint: "Ancre-10" 652 0 basechar 0
AnchorPoint: "Ancre-3" 345 700 basechar 0
AnchorPoint: "Ancre-2" 355 0 basechar 0
LayerCount: 2
Fore
SplineSet
-2 4 m 1,0,-1
 64 61 l 1,1,-1
 335 713 l 1,2,-1
 357 713 l 1,3,-1
 659 61 l 1,4,-1
 728 4 l 1,5,-1
 728 0 l 1,6,-1
 472 0 l 1,7,-1
 472 4 l 1,8,-1
 552 59 l 1,9,-1
 471 224 l 1,10,-1
 183 224 l 1,11,-1
 114 59 l 1,12,-1
 192 4 l 1,13,-1
 192 0 l 1,14,-1
 -2 0 l 1,15,-1
 -2 4 l 1,0,-1
451 268 m 1,16,-1
 319 557 l 1,17,-1
 202 268 l 1,18,-1
 451 268 l 1,16,-1
EndSplineSet
Validated: 1048577
EndChar

StartChar: Aogonek.ss01
Encoding: 65552 -1 157
Width: 709
GlyphClass: 2
Flags: W
AnchorPoint: "Ancre-11" 369 750 basechar 0
AnchorPoint: "Ancre-10" 652 0 basechar 0
LayerCount: 2
Fore
SplineSet
-2 4 m 1,0,-1
 64 61 l 1,1,-1
 335 713 l 1,2,-1
 357 713 l 1,3,-1
 659 61 l 1,4,-1
 728 4 l 1,5,-1
 728 0 l 1,6,-1
 629 0 l 1,7,8
 611 -38 611 -38 600 -74.5 c 128,-1,9
 589 -111 589 -111 589 -140 c 0,10,11
 589 -167 589 -167 600.5 -179.5 c 128,-1,12
 612 -192 612 -192 629 -192 c 0,13,14
 639 -192 639 -192 648 -188.5 c 128,-1,15
 657 -185 657 -185 668 -177 c 1,16,-1
 682 -194 l 1,17,18
 661 -214 661 -214 642 -223.5 c 128,-1,19
 623 -233 623 -233 599 -233 c 0,20,21
 578 -233 578 -233 559.5 -224 c 128,-1,22
 541 -215 541 -215 530.5 -196 c 128,-1,23
 520 -177 520 -177 520 -151 c 0,24,25
 520 -118 520 -118 538 -82 c 128,-1,26
 556 -46 556 -46 591 0 c 1,27,-1
 472 0 l 1,28,-1
 472 4 l 1,29,-1
 552 59 l 1,30,-1
 471 224 l 1,31,-1
 183 224 l 1,32,-1
 114 59 l 1,33,-1
 192 4 l 1,34,-1
 192 0 l 1,35,-1
 -2 0 l 1,36,-1
 -2 4 l 1,0,-1
451 268 m 1,37,-1
 319 557 l 1,38,-1
 202 268 l 1,39,-1
 451 268 l 1,37,-1
EndSplineSet
Validated: 1048577
EndChar

StartChar: W.ss02
Encoding: 65555 -1 160
Width: 1000
GlyphClass: 2
Flags: W
AnchorPoint: "Ancre-11" 551 750 basechar 0
AnchorPoint: "Ancre-3" 518 700 basechar 0
AnchorPoint: "Ancre-2" 500 0 basechar 0
LayerCount: 2
Fore
SplineSet
40 639 m 1,0,-1
 -26 696 l 1,1,-1
 -26 700 l 1,2,-1
 227 700 l 1,3,-1
 227 696 l 1,4,-1
 146 641 l 1,5,-1
 341 174 l 1,6,-1
 501 713 l 1,7,-1
 523 713 l 1,8,-1
 738 172 l 1,9,-1
 881 641 l 1,10,-1
 794 696 l 1,11,-1
 794 700 l 1,12,-1
 989 700 l 1,13,-1
 989 696 l 1,14,-1
 927 639 l 1,15,-1
 728 -13 l 1,16,-1
 707 -13 l 1,17,-1
 492 526 l 1,18,-1
 331 -13 l 1,19,-1
 310 -13 l 1,20,-1
 40 639 l 1,0,-1
EndSplineSet
Validated: 1048577
EndChar

StartChar: J.ss03
Encoding: 65560 -1 165
Width: 402
GlyphClass: 2
Flags: W
AnchorPoint: "Ancre-11" 266 750 basechar 0
AnchorPoint: "Ancre-3" 249 700 basechar 0
AnchorPoint: "Ancre-2" 201 0 basechar 0
LayerCount: 2
Fore
SplineSet
150 -9 m 1,0,1
 119 -9 119 -9 85.5 -2.5 c 128,-1,2
 52 4 52 4 23 14 c 1,3,-1
 16 156 l 1,4,-1
 21 156 l 1,5,6
 55 94 55 94 86 61 c 128,-1,7
 117 28 117 28 149 28 c 0,8,9
 175 28 175 28 187.5 45.5 c 128,-1,10
 200 63 200 63 200 104 c 2,11,-1
 200 639 l 1,12,-1
 116 696 l 1,13,-1
 116 700 l 1,14,-1
 382 700 l 1,15,-1
 382 696 l 1,16,-1
 298 639 l 1,17,-1
 298 118 l 2,18,19
 298 73 298 73 276 44.5 c 128,-1,20
 254 16 254 16 221 3.5 c 128,-1,21
 188 -9 188 -9 150 -9 c 1,22,-1
 150 -9 l 1,0,1
EndSplineSet
Validated: 1048581
EndChar

StartChar: Q.ss04
Encoding: 65563 -1 168
Width: 777
GlyphClass: 2
Flags: W
AnchorPoint: "Ancre-15" 416 375 basechar 0
AnchorPoint: "Ancre-12" 431 0 basechar 0
AnchorPoint: "Ancre-11" 399 750 basechar 0
LayerCount: 2
Fore
SplineSet
388 -9 m 1,0,1
 292 -9 292 -9 212 36.5 c 128,-1,2
 132 82 132 82 84.5 162.5 c 128,-1,3
 37 243 37 243 37 341 c 0,4,5
 37 446 37 446 84.5 530 c 128,-1,6
 132 614 132 614 212 661.5 c 128,-1,7
 292 709 292 709 388 709 c 256,8,9
 484 709 484 709 564.5 663.5 c 128,-1,10
 645 618 645 618 692 537.5 c 128,-1,11
 739 457 739 457 739 359 c 0,12,13
 739 275 739 275 708.5 204 c 128,-1,14
 678 133 678 133 624 81 c 1,15,-1
 691 21 l 1,16,-1
 661 -8 l 1,17,-1
 590 54 l 1,18,19
 547 23 547 23 495 7 c 128,-1,20
 443 -9 443 -9 388 -9 c 1,21,-1
 388 -9 l 1,0,1
143 384 m 1,22,23
 143 290 143 290 176 210.5 c 128,-1,24
 209 131 209 131 269.5 83 c 128,-1,25
 330 35 330 35 408 35 c 0,26,27
 492 35 492 35 550 91 c 1,28,-1
 413 213 l 1,29,-1
 442 243 l 1,30,-1
 578 122 l 1,31,32
 606 161 606 161 620 211 c 128,-1,33
 634 261 634 261 634 316 c 0,34,35
 634 410 634 410 601 489.5 c 128,-1,36
 568 569 568 569 507.5 617 c 128,-1,37
 447 665 447 665 369 665 c 0,38,39
 298 665 298 665 246.5 626 c 128,-1,40
 195 587 195 587 169 523 c 128,-1,41
 143 459 143 459 143 384 c 1,42,-1
 143 384 l 1,22,23
EndSplineSet
Validated: 1048581
EndChar

StartChar: W_W_W
Encoding: 65568 -1 173
Width: 2586
GlyphClass: 3
Flags: W
LayerCount: 2
Fore
SplineSet
40 639 m 1,0,-1
 -26 696 l 1,1,-1
 -26 700 l 1,2,-1
 227 700 l 1,3,-1
 227 696 l 1,4,-1
 146 641 l 1,5,-1
 341 174 l 1,6,-1
 501 713 l 1,7,-1
 523 713 l 1,8,-1
 738 172 l 1,9,-1
 893 713 l 1,10,-1
 915 713 l 1,11,-1
 1134 174 l 1,12,-1
 1295 713 l 1,13,-1
 1316 713 l 1,14,-1
 1532 172 l 1,15,-1
 1687 713 l 1,16,-1
 1708 713 l 1,17,-1
 1928 174 l 1,18,-1
 2088 713 l 1,19,-1
 2110 713 l 1,20,-1
 2325 172 l 1,21,-1
 2468 641 l 1,22,-1
 2381 696 l 1,23,-1
 2381 700 l 1,24,-1
 2576 700 l 1,25,-1
 2576 696 l 1,26,-1
 2514 639 l 1,27,-1
 2315 -13 l 1,28,-1
 2294 -13 l 1,29,-1
 2079 526 l 1,30,-1
 1918 -13 l 1,31,-1
 1897 -13 l 1,32,-1
 1678 526 l 1,33,-1
 1522 -13 l 1,34,-1
 1500 -13 l 1,35,-1
 1285 526 l 1,36,-1
 1125 -13 l 1,37,-1
 1103 -13 l 1,38,-1
 884 526 l 1,39,-1
 728 -13 l 1,40,-1
 707 -13 l 1,41,-1
 492 526 l 1,42,-1
 331 -13 l 1,43,-1
 310 -13 l 1,44,-1
 40 639 l 1,0,-1
EndSplineSet
Validated: 1
Ligature2: "sous-table 'dlig' Ligatures facultatives  dans Latin lookup 47" W W W
Ligature2: "sous-table 'liga' Ligatures standard dans Latin lookup 23" W W W
EndChar

StartChar: a
Encoding: 97 97 174
Width: 498
GlyphClass: 2
Flags: W
AnchorPoint: "Ancre-11" 243 500 basechar 0
AnchorPoint: "Ancre-10" 350 0 basechar 0
AnchorPoint: "Ancre-3" 235 500 basechar 0
AnchorPoint: "Ancre-2" 249 0 basechar 0
LayerCount: 2
Fore
SplineSet
109.5 7 m 128,-1,1
 77 24 77 24 58 54.5 c 128,-1,2
 39 85 39 85 39 122 c 0,3,4
 39 174 39 174 78 207.5 c 0,5,6
 116.194672131 240.166495902 116.194672131 240.166495902 201 260 c 2,7,-1
 325 289 l 1,8,-1
 325 339 l 2,9,10
 325 395 325 395 300.5 424.5 c 128,-1,11
 276 454 276 454 233 454 c 256,12,13
 190 454 190 454 147 428.5 c 128,-1,14
 104 403 104 403 59 341 c 1,15,-1
 55 341 l 1,16,-1
 55 455 l 1,17,18
 95 471 95 471 147 482.5 c 128,-1,19
 199 494 199 494 240 494 c 0,20,21
 324 494 324 494 370.5 457 c 128,-1,22
 417 420 417 420 417 349 c 2,23,-1
 417 63 l 1,24,-1
 468 4 l 1,25,-1
 468 0 l 1,26,-1
 325 0 l 1,27,-1
 325 64 l 1,28,29
 296 31 296 31 258.5 10.5 c 128,-1,30
 221 -10 221 -10 182 -10 c 0,31,0
 142 -10 142 -10 109.5 7 c 128,-1,1
325 99 m 1,32,-1
 325 249 l 1,33,-1
 225 226 l 2,34,35
 182 216 182 216 159 191.5 c 128,-1,36
 136 167 136 167 136 132 c 0,37,38
 136 110 136 110 146 92 c 128,-1,39
 156 74 156 74 174 64 c 128,-1,40
 192 54 192 54 214 54 c 0,41,42
 262 54 262 54 325 99 c 1,32,-1
EndSplineSet
Validated: 1572865
Substitution2: "sous-table 'ss05' Jeu stylistique 5 dans Latin lookup 45" a.ss05
Substitution2: "sous-table 'smcp' Bas-de-casse vers petites capitales dans Latin lookup 38" a.sc
Substitution2: "sous-table Substitution simple lookups9" ordfeminine
AlternateSubs2: "sous-table 'aalt' Activer toutes les variantes dans Latin lookup 0" a.sc a.ss05
EndChar

StartChar: aogonek
Encoding: 261 261 181
Width: 498
GlyphClass: 2
Flags: W
AnchorPoint: "Ancre-11" 243 500 basechar 0
AnchorPoint: "Ancre-10" 350 0 basechar 0
LayerCount: 2
Fore
SplineSet
109.5 7 m 128,-1,1
 77 24 77 24 58 54.5 c 128,-1,2
 39 85 39 85 39 122 c 0,3,4
 39 174 39 174 78 207.5 c 128,-1,5
 117 241 117 241 201 260 c 2,6,-1
 325 289 l 1,7,-1
 325 339 l 2,8,9
 325 395 325 395 300.5 424.5 c 128,-1,10
 276 454 276 454 233 454 c 256,11,12
 190 454 190 454 147 423.5 c 128,-1,13
 104 393 104 393 59 331 c 1,14,-1
 55 331 l 1,15,-1
 55 455 l 1,16,17
 95 471 95 471 147 482.5 c 128,-1,18
 199 494 199 494 240 494 c 0,19,20
 324 494 324 494 370.5 457 c 128,-1,21
 417 420 417 420 417 349 c 2,22,-1
 417 63 l 1,23,-1
 488 4 l 1,24,-1
 488 0 l 1,25,-1
 350 0 l 1,26,27
 335 -28 335 -28 326 -59.5 c 128,-1,28
 317 -91 317 -91 317 -123 c 0,29,30
 317 -151 317 -151 329 -165 c 128,-1,31
 341 -179 341 -179 360 -179 c 256,32,33
 379 -179 379 -179 402 -163 c 1,34,-1
 417 -181 l 1,35,36
 393 -203 393 -203 372.5 -213 c 128,-1,37
 352 -223 352 -223 328 -223 c 0,38,39
 291 -223 291 -223 267 -199.5 c 128,-1,40
 243 -176 243 -176 243 -135 c 0,41,42
 243 -95 243 -95 265 -54 c 128,-1,43
 287 -13 287 -13 325 22 c 1,44,-1
 325 64 l 1,45,46
 296 31 296 31 258.5 10.5 c 128,-1,47
 221 -10 221 -10 182 -10 c 0,48,0
 142 -10 142 -10 109.5 7 c 128,-1,1
325 99 m 1,50,-1
 325 249 l 1,51,-1
 225 226 l 2,52,53
 182 216 182 216 159 191.5 c 128,-1,54
 136 167 136 167 136 132 c 0,55,56
 136 110 136 110 146 92 c 128,-1,57
 156 74 156 74 174 64 c 128,-1,58
 192 54 192 54 214 54 c 0,59,49
 262 54 262 54 325 99 c 1,50,-1
EndSplineSet
Validated: 1048577
Substitution2: "sous-table 'ss05' Jeu stylistique 5 dans Latin lookup 45" aogonek.ss05
Substitution2: "sous-table 'smcp' Bas-de-casse vers petites capitales dans Latin lookup 38" aogonek.sc
AlternateSubs2: "sous-table 'aalt' Activer toutes les variantes dans Latin lookup 0" aogonek.sc aogonek.ss05
EndChar

StartChar: ae
Encoding: 230 230 184
Width: 787
GlyphClass: 2
Flags: W
AnchorPoint: "Ancre-11" 411 500 basechar 0
AnchorPoint: "Ancre-10" 674 29 basechar 0
AnchorPoint: "Ancre-3" 414 500 basechar 0
AnchorPoint: "Ancre-2" 394 0 basechar 0
LayerCount: 2
Fore
SplineSet
109.5 7 m 128,-1,1
 77 24 77 24 58 54.5 c 128,-1,2
 39 85 39 85 39 122 c 0,3,4
 39 162 39 162 60.5 194.5 c 128,-1,5
 82 227 82 227 124.5 247.5 c 128,-1,6
 167 268 167 268 227 273 c 2,7,-1
 334 283 l 1,8,-1
 334 339 l 2,9,10
 334 394 334 394 306 424 c 128,-1,11
 278 454 278 454 233 454 c 0,12,13
 190 454 190 454 147 423.5 c 128,-1,14
 104 393 104 393 59 331 c 1,15,-1
 55 331 l 1,16,-1
 55 455 l 1,17,18
 95 471 95 471 147 482.5 c 128,-1,19
 199 494 199 494 240 494 c 0,20,21
 299 494 299 494 340 475.5 c 128,-1,22
 381 457 381 457 401 421 c 1,23,24
 434 456 434 456 475.5 475 c 128,-1,25
 517 494 517 494 560 494 c 0,26,27
 610 494 610 494 653 470 c 0,28,29
 697 445 697 445 723 395.5 c 128,-1,30
 749 346 749 346 751 276 c 1,31,-1
 418 245 l 1,32,33
 423 188 423 188 447 145.5 c 128,-1,34
 471 103 471 103 508 80 c 128,-1,35
 545 57 545 57 589 57 c 0,36,37
 625 57 625 57 657.5 73 c 128,-1,38
 690 89 690 89 729 126 c 1,39,-1
 754 103 l 1,40,41
 721 68 721 68 694 42 c 0,42,43
 667 18 667 18 633.5 4 c 128,-1,44
 600 -10 600 -10 560 -10 c 0,45,46
 506 -10 506 -10 454.5 17 c 128,-1,47
 403 44 403 44 371 92 c 1,48,49
 280 -10 280 -10 182 -10 c 0,50,0
 142 -10 142 -10 109.5 7 c 128,-1,1
279.5 71 m 128,-1,52
 316 88 316 88 354 122 c 1,53,54
 331 174 331 174 331 237 c 1,55,-1
 235 228 l 2,56,57
 204 226 204 226 181.5 213.5 c 128,-1,58
 159 201 159 201 147.5 180.5 c 128,-1,59
 136 160 136 160 136 136 c 256,60,61
 136 112 136 112 146 93.5 c 128,-1,62
 156 75 156 75 174 64.5 c 128,-1,63
 192 54 192 54 214 54 c 0,64,51
 243 54 243 54 279.5 71 c 128,-1,52
617 415 m 128,-1,66
 590 453 590 453 543 453 c 0,67,68
 508 453 508 453 480 433 c 128,-1,69
 452 413 452 413 435.5 376 c 128,-1,70
 419 339 419 339 417 290 c 1,71,-1
 649 311 l 1,72,65
 644 377 644 377 617 415 c 128,-1,66
EndSplineSet
Validated: 1048577
Substitution2: "sous-table 'smcp' Bas-de-casse vers petites capitales dans Latin lookup 38" ae.sc
AlternateSubs2: "sous-table 'aalt' Activer toutes les variantes dans Latin lookup 0" ae.sc
EndChar

StartChar: b
Encoding: 98 98 187
Width: 560
GlyphClass: 1
Flags: W
LayerCount: 2
Fore
SplineSet
287 -10 m 1,0,1
 192 -10 192 -10 69 76 c 1,2,-1
 69 678 l 1,3,-1
 8 711 l 1,4,-1
 8 716 l 1,5,-1
 161 755 l 1,6,-1
 161 425 l 1,7,8
 235 494 235 494 314 494 c 0,9,10
 375 494 375 494 422.5 462 c 128,-1,11
 470 430 470 430 497 373.5 c 128,-1,12
 524 317 524 317 524 246 c 0,13,14
 524 170 524 170 491.5 112 c 128,-1,15
 459 54 459 54 404.5 22 c 128,-1,16
 350 -10 350 -10 287 -10 c 1,17,-1
 287 -10 l 1,0,1
161 195 m 1,18,19
 161 145 161 145 178 108 c 128,-1,20
 195 71 195 71 225 51 c 128,-1,21
 255 31 255 31 291 31 c 0,22,23
 331 31 331 31 361.5 55 c 128,-1,24
 392 79 392 79 408.5 122.5 c 128,-1,25
 425 166 425 166 425 222 c 0,26,27
 425 283 425 283 407 330 c 128,-1,28
 389 377 389 377 354.5 403.5 c 128,-1,29
 320 430 320 430 274 430 c 0,30,31
 250 430 250 430 220.5 418.5 c 128,-1,32
 191 407 191 407 161 385 c 1,33,-1
 161 195 l 1,34,-1
 161 195 l 1,18,19
EndSplineSet
Validated: 5
Substitution2: "sous-table 'smcp' Bas-de-casse vers petites capitales dans Latin lookup 38" b.sc
AlternateSubs2: "sous-table 'aalt' Activer toutes les variantes dans Latin lookup 0" b.sc
EndChar

StartChar: c
Encoding: 99 99 188
Width: 488
GlyphClass: 2
Flags: W
AnchorPoint: "Ancre-12" 273 0 basechar 0
AnchorPoint: "Ancre-11" 287 500 basechar 0
AnchorPoint: "Ancre-3" 277 500 basechar 0
AnchorPoint: "Ancre-2" 244 0 basechar 0
LayerCount: 2
Fore
SplineSet
271 -10 m 1,0,1
 214 -10 214 -10 160 18 c 128,-1,2
 106 46 106 46 71 102 c 128,-1,3
 36 158 36 158 36 237 c 0,4,5
 36 313 36 313 71 371 c 128,-1,6
 106 429 106 429 165 461.5 c 128,-1,7
 224 494 224 494 291 494 c 0,8,9
 329 494 329 494 362.5 488.5 c 128,-1,10
 396 483 396 483 436 471 c 1,11,-1
 437 322 l 1,12,-1
 432 322 l 1,13,14
 395 381 395 381 357.5 416 c 128,-1,15
 320 451 320 451 271 451 c 0,16,17
 233 451 233 451 199 431 c 128,-1,18
 165 411 165 411 142.5 371.5 c 128,-1,19
 120 332 120 332 120 274 c 0,20,21
 120 208 120 208 145.5 158.5 c 128,-1,22
 171 109 171 109 212.5 83 c 128,-1,23
 254 57 254 57 299 57 c 0,24,25
 337 57 337 57 364.5 68.5 c 128,-1,26
 392 80 392 80 429 116 c 1,27,-1
 455 93 l 1,28,29
 419 54 419 54 399 37 c 128,-1,30
 379 20 379 20 346 5 c 128,-1,31
 313 -10 313 -10 271 -10 c 1,32,-1
 271 -10 l 1,0,1
EndSplineSet
Validated: 1048581
Substitution2: "sous-table 'smcp' Bas-de-casse vers petites capitales dans Latin lookup 38" c.sc
AlternateSubs2: "sous-table 'aalt' Activer toutes les variantes dans Latin lookup 0" c.sc
EndChar

StartChar: ccedilla
Encoding: 231 231 191
Width: 488
GlyphClass: 2
Flags: W
AnchorPoint: "Ancre-12" 273 0 basechar 0
AnchorPoint: "Ancre-11" 287 500 basechar 0
LayerCount: 2
Fore
SplineSet
188 -224 m 1,0,1
 234 -207 234 -207 254 -189 c 128,-1,2
 274 -171 274 -171 274 -149 c 0,3,4
 274 -125 274 -125 253 -107.5 c 128,-1,5
 232 -90 232 -90 192 -83 c 1,6,-1
 242 -8 l 1,7,8
 189 -1 189 -1 142 29 c 128,-1,9
 95 59 95 59 65.5 112 c 128,-1,10
 36 165 36 165 36 237 c 0,11,12
 36 313 36 313 71 371 c 128,-1,13
 106 429 106 429 165 461.5 c 128,-1,14
 224 494 224 494 291 494 c 0,15,16
 329 494 329 494 362.5 488.5 c 128,-1,17
 396 483 396 483 436 471 c 1,18,-1
 447 332 l 1,19,-1
 442 332 l 1,20,21
 405 391 405 391 362.5 421 c 128,-1,22
 320 451 320 451 271 451 c 0,23,24
 233 451 233 451 199 431 c 128,-1,25
 165 411 165 411 142.5 371.5 c 128,-1,26
 120 332 120 332 120 274 c 0,27,28
 120 208 120 208 145.5 158.5 c 128,-1,29
 171 109 171 109 212.5 83 c 128,-1,30
 254 57 254 57 299 57 c 0,31,32
 337 57 337 57 369.5 73.5 c 128,-1,33
 402 90 402 90 439 126 c 1,34,-1
 465 103 l 1,35,36
 430 65 430 65 405.5 43 c 128,-1,37
 381 21 381 21 348.5 6 c 128,-1,38
 316 -9 316 -9 275 -10 c 1,39,-1
 249 -49 l 1,40,41
 291 -60 291 -60 316 -83.5 c 128,-1,42
 341 -107 341 -107 341 -138 c 0,43,44
 341 -164 341 -164 323.5 -182 c 128,-1,45
 306 -200 306 -200 278 -213.5 c 128,-1,46
 250 -227 250 -227 198 -246 c 1,47,-1
 188 -224 l 1,48,-1
 188 -224 l 1,0,1
EndSplineSet
Validated: 1048581
Substitution2: "sous-table 'smcp' Bas-de-casse vers petites capitales dans Latin lookup 38" ccedilla.sc
AlternateSubs2: "sous-table 'aalt' Activer toutes les variantes dans Latin lookup 0" ccedilla.sc
EndChar

StartChar: d
Encoding: 100 100 194
Width: 576
GlyphClass: 2
Flags: W
AnchorPoint: "Ancre-14" 698 775 basechar 0
AnchorPoint: "Ancre-13" 265 628 basechar 0
AnchorPoint: "Ancre-4" 530 804 basechar 0
AnchorPoint: "Ancre-3" 288 500 basechar 0
AnchorPoint: "Ancre-2" 288 0 basechar 0
LayerCount: 2
Fore
SplineSet
135 262 m 1,0,1
 135 201 135 201 152.5 154 c 128,-1,2
 170 107 170 107 204.5 80.5 c 128,-1,3
 239 54 239 54 286 54 c 0,4,5
 310 54 310 54 339.5 65.5 c 128,-1,6
 369 77 369 77 399 99 c 1,7,-1
 399 293 l 2,8,9
 399 339 399 339 382 375 c 128,-1,10
 365 411 365 411 335 432 c 128,-1,11
 305 453 305 453 268 453 c 0,12,13
 228 453 228 453 197.5 429 c 128,-1,14
 167 405 167 405 151 361.5 c 128,-1,15
 135 318 135 318 135 262 c 1,16,-1
 135 262 l 1,0,1
542 4 m 1,17,-1
 542 0 l 1,18,-1
 399 0 l 1,19,-1
 399 59 l 1,20,21
 324 -10 324 -10 246 -10 c 0,22,23
 185 -10 185 -10 137 22 c 128,-1,24
 89 54 89 54 62.5 110.5 c 128,-1,25
 36 167 36 167 36 238 c 0,26,27
 36 314 36 314 68.5 372 c 128,-1,28
 101 430 101 430 155 462 c 128,-1,29
 209 494 209 494 272 494 c 0,30,31
 348 494 348 494 399 447 c 1,32,-1
 399 678 l 1,33,-1
 338 711 l 1,34,-1
 338 716 l 1,35,-1
 491 755 l 1,36,-1
 491 63 l 1,37,-1
 542 4 l 1,17,-1
EndSplineSet
Validated: 1048581
Substitution2: "sous-table 'smcp' Bas-de-casse vers petites capitales dans Latin lookup 38" d.sc
AlternateSubs2: "sous-table 'aalt' Activer toutes les variantes dans Latin lookup 0" d.sc
EndChar

StartChar: eth
Encoding: 240 240 195
Width: 563
GlyphClass: 1
Flags: W
LayerCount: 2
Fore
SplineSet
276 -10 m 1,0,1
 212 -10 212 -10 157 20 c 128,-1,2
 102 50 102 50 69 106.5 c 128,-1,3
 36 163 36 163 36 237 c 0,4,5
 36 312 36 312 69 370.5 c 128,-1,6
 102 429 102 429 153.5 461.5 c 128,-1,7
 205 494 205 494 258 494 c 0,8,9
 295 494 295 494 326 479 c 128,-1,10
 357 464 357 464 378 439 c 1,11,12
 346 531 346 531 285 594 c 1,13,-1
 138 534 l 1,14,-1
 122 571 l 1,15,-1
 252 624 l 1,16,17
 181 682 181 682 61 728 c 1,18,-1
 72 757 l 1,19,20
 214 717 214 717 316 650 c 1,21,-1
 405 687 l 1,22,-1
 421 650 l 1,23,-1
 353 622 l 1,24,25
 518 491 518 491 518 272 c 0,26,27
 518 195 518 195 485 130.5 c 128,-1,28
 452 66 452 66 396.5 28 c 128,-1,29
 341 -10 341 -10 276 -10 c 1,30,-1
 276 -10 l 1,0,1
135 255 m 1,31,32
 135 193 135 193 155 141.5 c 128,-1,33
 175 90 175 90 209.5 60.5 c 128,-1,34
 244 31 244 31 284 31 c 256,35,36
 324 31 324 31 353 54.5 c 128,-1,37
 382 78 382 78 397.5 122.5 c 128,-1,38
 413 167 413 167 413 229 c 256,39,40
 413 291 413 291 393 342.5 c 128,-1,41
 373 394 373 394 338.5 423.5 c 128,-1,42
 304 453 304 453 264 453 c 256,43,44
 224 453 224 453 195 429.5 c 128,-1,45
 166 406 166 406 150.5 361.5 c 128,-1,46
 135 317 135 317 135 255 c 1,47,-1
 135 255 l 1,31,32
EndSplineSet
Validated: 5
Substitution2: "sous-table 'smcp' Bas-de-casse vers petites capitales dans Latin lookup 38" eth.sc
AlternateSubs2: "sous-table 'aalt' Activer toutes les variantes dans Latin lookup 0" eth.sc
EndChar

StartChar: dcroat
Encoding: 273 273 197
Width: 576
GlyphClass: 2
Flags: W
AnchorPoint: "Ancre-14" 698 775 basechar 0
AnchorPoint: "Ancre-13" 265 628 basechar 0
LayerCount: 2
Fore
SplineSet
135 262 m 1,0,1
 135 201 135 201 152.5 154 c 128,-1,2
 170 107 170 107 204.5 80.5 c 128,-1,3
 239 54 239 54 286 54 c 0,4,5
 310 54 310 54 339.5 65.5 c 128,-1,6
 369 77 369 77 399 99 c 1,7,-1
 399 293 l 2,8,9
 399 339 399 339 382 375 c 128,-1,10
 365 411 365 411 335 432 c 128,-1,11
 305 453 305 453 268 453 c 0,12,13
 228 453 228 453 197.5 429 c 128,-1,14
 167 405 167 405 151 361.5 c 128,-1,15
 135 318 135 318 135 262 c 1,16,-1
 135 262 l 1,0,1
399 59 m 1,17,18
 324 -10 324 -10 246 -10 c 0,19,20
 185 -10 185 -10 137 22 c 128,-1,21
 89 54 89 54 62.5 110.5 c 128,-1,22
 36 167 36 167 36 238 c 0,23,24
 36 314 36 314 68.5 372 c 128,-1,25
 101 430 101 430 155 462 c 128,-1,26
 209 494 209 494 272 494 c 0,27,28
 348 494 348 494 399 447 c 1,29,-1
 399 565 l 1,30,-1
 233 565 l 1,31,-1
 257 608 l 1,32,-1
 399 608 l 1,33,-1
 399 678 l 1,34,-1
 328 711 l 1,35,-1
 328 716 l 1,36,-1
 491 755 l 1,37,-1
 491 608 l 1,38,-1
 587 608 l 1,39,-1
 563 565 l 1,40,-1
 491 565 l 1,41,-1
 491 63 l 1,42,-1
 562 4 l 1,43,-1
 562 0 l 1,44,-1
 399 0 l 1,45,-1
 399 59 l 1,17,18
EndSplineSet
Validated: 1048581
Substitution2: "sous-table 'smcp' Bas-de-casse vers petites capitales dans Latin lookup 38" dcroat.sc
AlternateSubs2: "sous-table 'aalt' Activer toutes les variantes dans Latin lookup 0" dcroat.sc
EndChar

StartChar: e
Encoding: 101 101 198
Width: 491
GlyphClass: 2
Flags: W
AnchorPoint: "Ancre-11" 270 500 basechar 0
AnchorPoint: "Ancre-10" 351 0 basechar 0
AnchorPoint: "Ancre-3" 261 500 basechar 0
AnchorPoint: "Ancre-2" 246 0 basechar 0
LayerCount: 2
Fore
SplineSet
263 -10 m 1,0,1
 208 -10 208 -10 156 17.5 c 128,-1,2
 104 45 104 45 70 101 c 128,-1,3
 36 157 36 157 36 237 c 0,4,5
 36 312 36 312 70 370.5 c 128,-1,6
 104 429 104 429 158 461.5 c 128,-1,7
 212 494 212 494 269 494 c 0,8,9
 318 494 318 494 360.5 471 c 128,-1,10
 403 448 403 448 428.5 401.5 c 128,-1,11
 454 355 454 355 454 288 c 2,12,-1
 454 273 l 1,13,-1
 120 273 l 1,14,15
 120 210 120 210 143 160.5 c 128,-1,16
 166 111 166 111 204.5 84 c 128,-1,17
 243 57 243 57 291 57 c 0,18,19
 329 57 329 57 356.5 68.5 c 128,-1,20
 384 80 384 80 422 116 c 1,21,-1
 447 93 l 1,22,23
 411 54 411 54 391.5 37 c 128,-1,24
 372 20 372 20 338.5 5 c 128,-1,25
 305 -10 305 -10 263 -10 c 1,26,-1
 263 -10 l 1,0,1
364 316 m 1,27,28
 365 322 365 322 365 336 c 0,29,30
 365 390 365 390 332.5 421.5 c 128,-1,31
 300 453 300 453 253 453 c 0,32,33
 221 453 221 453 193.5 436.5 c 128,-1,34
 166 420 166 420 147.5 389 c 128,-1,35
 129 358 129 358 123 316 c 1,36,-1
 364 316 l 1,27,28
EndSplineSet
Validated: 1048581
Substitution2: "sous-table 'smcp' Bas-de-casse vers petites capitales dans Latin lookup 38" e.sc
AlternateSubs2: "sous-table 'aalt' Activer toutes les variantes dans Latin lookup 0" e.sc
EndChar

StartChar: eogonek
Encoding: 281 281 207
Width: 491
GlyphClass: 2
Flags: W
AnchorPoint: "Ancre-11" 270 500 basechar 0
AnchorPoint: "Ancre-10" 351 0 basechar 0
LayerCount: 2
Fore
SplineSet
263 -10 m 1,0,1
 208 -10 208 -10 156 17.5 c 128,-1,2
 104 45 104 45 70 101 c 128,-1,3
 36 157 36 157 36 237 c 0,4,5
 36 312 36 312 70 370.5 c 128,-1,6
 104 429 104 429 158 461.5 c 128,-1,7
 212 494 212 494 269 494 c 0,8,9
 318 494 318 494 360.5 471 c 128,-1,10
 403 448 403 448 428.5 401.5 c 128,-1,11
 454 355 454 355 454 288 c 2,12,-1
 454 273 l 1,13,-1
 120 273 l 1,14,15
 120 210 120 210 143 160.5 c 128,-1,16
 166 111 166 111 204.5 84 c 128,-1,17
 243 57 243 57 291 57 c 0,18,19
 329 57 329 57 361.5 73.5 c 128,-1,20
 394 90 394 90 432 126 c 1,21,-1
 457 103 l 1,22,23
 428 71 428 71 411 55 c 128,-1,24
 394 39 394 39 374 25 c 1,25,26
 350 -18 350 -18 334.5 -54 c 128,-1,27
 319 -90 319 -90 319 -125 c 0,28,29
 319 -153 319 -153 331.5 -166 c 128,-1,30
 344 -179 344 -179 361 -179 c 0,31,32
 371 -179 371 -179 380.5 -175.5 c 128,-1,33
 390 -172 390 -172 402 -164 c 1,34,-1
 416 -181 l 1,35,36
 394 -202 394 -202 374 -212 c 128,-1,37
 354 -222 354 -222 330 -222 c 0,38,39
 308 -222 308 -222 289 -212.5 c 128,-1,40
 270 -203 270 -203 259 -183.5 c 128,-1,41
 248 -164 248 -164 248 -137 c 0,42,43
 248 -103 248 -103 266.5 -71 c 128,-1,44
 285 -39 285 -39 319 -2 c 1,45,46
 293 -10 293 -10 263 -10 c 1,47,-1
 263 -10 l 1,0,1
354 316 m 1,48,49
 355 322 355 322 355 336 c 0,50,51
 355 390 355 390 327.5 421.5 c 128,-1,52
 300 453 300 453 253 453 c 0,53,54
 221 453 221 453 193.5 436.5 c 128,-1,55
 166 420 166 420 147.5 389 c 128,-1,56
 129 358 129 358 123 316 c 1,57,-1
 354 316 l 1,48,49
EndSplineSet
Validated: 1048581
Substitution2: "sous-table 'smcp' Bas-de-casse vers petites capitales dans Latin lookup 38" eogonek.sc
AlternateSubs2: "sous-table 'aalt' Activer toutes les variantes dans Latin lookup 0" eogonek.sc
EndChar

StartChar: uni0259
Encoding: 601 601 209
Width: 491
GlyphClass: 2
Flags: W
AnchorPoint: "Ancre-12" 237 0 basechar 0
AnchorPoint: "Ancre-10" 156 500 basechar 0
LayerCount: 2
Fore
SplineSet
227 494 m 1,0,1
 283 494 283 494 335 466.5 c 128,-1,2
 387 439 387 439 421 383 c 128,-1,3
 455 327 455 327 455 247 c 0,4,5
 455 172 455 172 421 113.5 c 128,-1,6
 387 55 387 55 333 22.5 c 128,-1,7
 279 -10 279 -10 222 -10 c 0,8,9
 172 -10 172 -10 130 13 c 128,-1,10
 88 36 88 36 62.5 82.5 c 128,-1,11
 37 129 37 129 37 196 c 2,12,-1
 37 211 l 1,13,-1
 371 211 l 1,14,15
 371 274 371 274 348 323.5 c 128,-1,16
 325 373 325 373 286.5 400 c 128,-1,17
 248 427 248 427 199 427 c 0,18,19
 162 427 162 427 129.5 410.5 c 128,-1,20
 97 394 97 394 59 358 c 1,21,-1
 34 381 l 1,22,23
 70 420 70 420 94.5 442 c 128,-1,24
 119 464 119 464 152.5 479 c 128,-1,25
 186 494 186 494 227 494 c 1,26,-1
 227 494 l 1,0,1
136 148 m 1,27,28
 136 94 136 94 163.5 62.5 c 128,-1,29
 191 31 191 31 238 31 c 0,30,31
 270 31 270 31 297 47.5 c 128,-1,32
 324 64 324 64 343 95 c 128,-1,33
 362 126 362 126 368 168 c 1,34,-1
 136 168 l 1,35,36
 136 162 136 162 136 148 c 1,37,-1
 136 148 l 1,27,28
EndSplineSet
Validated: 1048581
Substitution2: "sous-table 'smcp' Bas-de-casse vers petites capitales dans Latin lookup 38" uni0259.sc
AlternateSubs2: "sous-table 'aalt' Activer toutes les variantes dans Latin lookup 0" uni0259.sc
EndChar

StartChar: f
Encoding: 102 102 210
Width: 375
GlyphClass: 1
Flags: W
LayerCount: 2
Fore
SplineSet
50 4 m 1,0,-1
 108 63 l 1,1,-1
 108 439 l 1,2,-1
 27 439 l 1,3,-1
 27 444 l 1,4,-1
 108 482 l 1,5,6
 109 565 109 565 152.5 627.5 c 128,-1,7
 196 690 196 690 261 722.5 c 128,-1,8
 326 755 326 755 405 755 c 1,9,-1
 420 628 l 1,10,-1
 415 628 l 1,11,12
 372 690 372 690 318 690 c 0,13,14
 287 690 287 690 259.5 675.5 c 128,-1,15
 232 661 232 661 216 632.5 c 128,-1,16
 200 604 200 604 200 564 c 2,17,-1
 200 482 l 1,18,-1
 387 482 l 1,19,-1
 364 439 l 1,20,-1
 200 439 l 1,21,-1
 200 63 l 1,22,-1
 276 4 l 1,23,-1
 276 0 l 1,24,-1
 50 0 l 1,25,-1
 50 4 l 1,0,-1
EndSplineSet
Validated: 1
Substitution2: "sous-table 'smcp' Bas-de-casse vers petites capitales dans Latin lookup 38" f.sc
AlternateSubs2: "sous-table 'aalt' Activer toutes les variantes dans Latin lookup 0" f.sc
EndChar

StartChar: g
Encoding: 103 103 211
Width: 555
GlyphClass: 2
Flags: W
AnchorPoint: "Ancre-11" 273 500 basechar 0
AnchorPoint: "Ancre-3" 263 500 basechar 0
AnchorPoint: "Ancre-2" 278 -250 basechar 0
LayerCount: 2
Fore
SplineSet
140.5 -212 m 128,-1,1
 91 -201 91 -201 57 -173.5 c 128,-1,2
 23 -146 23 -146 23 -100 c 0,3,4
 23 -28 23 -28 150 7 c 1,5,6
 96 8 96 8 65 25.5 c 128,-1,7
 34 43 34 43 34 72 c 0,8,9
 34 88 34 88 45.5 102 c 0,10,11
 59.5912408759 118.700729927 59.5912408759 118.700729927 84 142 c 2,12,-1
 128 184 l 1,13,14
 92 208 92 208 72.5 241.5 c 128,-1,15
 53 275 53 275 53 317 c 0,16,17
 53 367 53 367 80.5 407.5 c 128,-1,18
 108 448 108 448 156.5 471 c 128,-1,19
 205 494 205 494 265 494 c 0,20,21
 301 494 301 494 340 482 c 1,22,-1
 544 482 l 1,23,-1
 544 477 l 1,24,-1
 442 420 l 1,25,26
 477 376 477 376 477 323 c 0,27,28
 477 273 477 273 449.5 232.5 c 128,-1,29
 422 192 422 192 373.5 169 c 128,-1,30
 325 146 325 146 265 146 c 0,31,32
 213 146 213 146 166 164 c 1,33,-1
 130 130 l 2,34,35
 115 116 115 116 115 106 c 0,36,37
 115 99 115 99 120.5 95.5 c 128,-1,38
 126 92 126 92 141 92 c 2,39,-1
 386 92 l 2,40,41
 437 92 437 92 469 82 c 128,-1,42
 501 72 501 72 516.5 50 c 128,-1,43
 532 28 532 28 532 -8 c 0,44,45
 532 -63 532 -63 493 -113 c 128,-1,46
 454 -163 454 -163 387 -193 c 128,-1,47
 320 -223 320 -223 242 -223 c 0,48,0
 190 -223 190 -223 140.5 -212 c 128,-1,1
133 -139 m 128,-1,50
 149 -160 149 -160 179 -171.5 c 128,-1,51
 209 -183 209 -183 250 -183 c 0,52,53
 309 -183 309 -183 360 -162 c 128,-1,54
 411 -141 411 -141 441 -109 c 128,-1,55
 471 -77 471 -77 471 -47 c 0,56,57
 471 -20 471 -20 449 -6.5 c 128,-1,58
 427 7 427 7 382 7 c 2,59,-1
 252 7 l 2,60,61
 215 7 215 7 184 -7 c 128,-1,62
 153 -21 153 -21 135 -44 c 128,-1,63
 117 -67 117 -67 117 -91 c 0,64,49
 117 -118 117 -118 133 -139 c 128,-1,50
168 257 m 128,-1,66
 184 223 184 223 211.5 204 c 128,-1,67
 239 185 239 185 273 185 c 0,68,69
 304 185 304 185 327.5 200 c 128,-1,70
 351 215 351 215 364.5 242 c 128,-1,71
 378 269 378 269 378 305 c 0,72,73
 378 349 378 349 362 383 c 128,-1,74
 346 417 346 417 318.5 436 c 128,-1,75
 291 455 291 455 257 455 c 0,76,77
 226 455 226 455 202.5 440 c 128,-1,78
 179 425 179 425 165.5 398 c 128,-1,79
 152 371 152 371 152 335 c 0,80,65
 152 291 152 291 168 257 c 128,-1,66
EndSplineSet
Validated: 1572865
Substitution2: "sous-table 'smcp' Bas-de-casse vers petites capitales dans Latin lookup 38" g.sc
AlternateSubs2: "sous-table 'aalt' Activer toutes les variantes dans Latin lookup 0" g.sc
EndChar

StartChar: h
Encoding: 104 104 217
Width: 566
GlyphClass: 2
Flags: W
AnchorPoint: "Ancre-13" 42 628 basechar 0
AnchorPoint: "Ancre-11" 143 750 basechar 0
AnchorPoint: "Ancre-3" 139 722 basechar 0
AnchorPoint: "Ancre-2" 283 0 basechar 0
LayerCount: 2
Fore
SplineSet
35 4 m 1,0,-1
 93 63 l 1,1,-1
 93 678 l 1,2,-1
 42 711 l 1,3,-1
 42 716 l 1,4,-1
 185 755 l 1,5,-1
 185 425 l 1,6,7
 222 458 222 458 261 476 c 128,-1,8
 300 494 300 494 341 494 c 0,9,10
 381 494 381 494 412 475 c 128,-1,11
 443 456 443 456 460 422.5 c 128,-1,12
 477 389 477 389 477 347 c 2,13,-1
 477 63 l 1,14,-1
 536 4 l 1,15,-1
 536 0 l 1,16,-1
 317 0 l 1,17,-1
 317 4 l 1,18,-1
 385 63 l 1,19,-1
 385 331 l 2,20,21
 385 379 385 379 365.5 404.5 c 128,-1,22
 346 430 346 430 303 430 c 0,23,24
 250 430 250 430 185 385 c 1,25,-1
 185 63 l 1,26,-1
 253 4 l 1,27,-1
 253 0 l 1,28,-1
 35 0 l 1,29,-1
 35 4 l 1,0,-1
EndSplineSet
Validated: 1048577
Substitution2: "sous-table 'smcp' Bas-de-casse vers petites capitales dans Latin lookup 38" h.sc
AlternateSubs2: "sous-table 'aalt' Activer toutes les variantes dans Latin lookup 0" h.sc
EndChar

StartChar: hbar
Encoding: 295 295 218
Width: 566
GlyphClass: 2
Flags: W
AnchorPoint: "Ancre-13" 22 628 basechar 0
AnchorPoint: "Ancre-11" 143 750 basechar 0
LayerCount: 2
Fore
SplineSet
15 4 m 1,0,-1
 93 63 l 1,1,-1
 93 565 l 1,2,-1
 -2 565 l 1,3,-1
 21 608 l 1,4,-1
 93 608 l 1,5,-1
 93 678 l 1,6,-1
 22 711 l 1,7,-1
 22 716 l 1,8,-1
 185 755 l 1,9,-1
 185 608 l 1,10,-1
 351 608 l 1,11,-1
 328 565 l 1,12,-1
 185 565 l 1,13,-1
 185 425 l 1,14,15
 222 458 222 458 261 476 c 128,-1,16
 300 494 300 494 341 494 c 0,17,18
 381 494 381 494 412 475 c 128,-1,19
 443 456 443 456 460 422.5 c 128,-1,20
 477 389 477 389 477 347 c 2,21,-1
 477 63 l 1,22,-1
 556 4 l 1,23,-1
 556 0 l 1,24,-1
 307 0 l 1,25,-1
 307 4 l 1,26,-1
 385 63 l 1,27,-1
 385 331 l 2,28,29
 385 379 385 379 365.5 404.5 c 128,-1,30
 346 430 346 430 303 430 c 0,31,32
 250 430 250 430 185 385 c 1,33,-1
 185 63 l 1,34,-1
 263 4 l 1,35,-1
 263 0 l 1,36,-1
 15 0 l 1,37,-1
 15 4 l 1,0,-1
EndSplineSet
Validated: 1048577
Substitution2: "sous-table 'smcp' Bas-de-casse vers petites capitales dans Latin lookup 38" hbar.sc
AlternateSubs2: "sous-table 'aalt' Activer toutes les variantes dans Latin lookup 0" hbar.sc
EndChar

StartChar: dotlessi
Encoding: 305 305 221
Width: 284
GlyphClass: 2
Flags: W
AnchorPoint: "Ancre-11" 140 500 basechar 0
AnchorPoint: "Ancre-10" 147 0 basechar 0
AnchorPoint: "Ancre-3" 142 500 basechar 0
AnchorPoint: "Ancre-2" 142 0 basechar 0
LayerCount: 2
Fore
SplineSet
40 4 m 1,0,-1
 99 63 l 1,1,-1
 99 411 l 1,2,-1
 38 445 l 1,3,-1
 38 450 l 1,4,-1
 191 489 l 1,5,-1
 191 63 l 1,6,-1
 249 4 l 5,7,-1
 249 0 l 5,8,-1
 40 0 l 1,9,-1
 40 4 l 1,0,-1
EndSplineSet
Validated: 1048577
EndChar

StartChar: iogonek
Encoding: 303 303 229
Width: 284
GlyphClass: 2
Flags: W
AnchorPoint: "Ancre-11" 140 500 basechar 0
AnchorPoint: "Ancre-10" 147 0 basechar 0
LayerCount: 2
Fore
SplineSet
20 4 m 1,0,-1
 99 63 l 1,1,-1
 99 411 l 1,2,-1
 28 445 l 1,3,-1
 28 450 l 1,4,-1
 191 489 l 1,5,-1
 191 63 l 1,6,-1
 269 4 l 1,7,-1
 269 0 l 1,8,-1
 164 0 l 1,9,10
 145 -40 145 -40 133.5 -67.5 c 128,-1,11
 122 -95 122 -95 122 -125 c 0,12,13
 122 -153 122 -153 134 -166 c 128,-1,14
 146 -179 146 -179 164 -179 c 0,15,16
 173 -179 173 -179 183 -175.5 c 128,-1,17
 193 -172 193 -172 204 -164 c 1,18,-1
 219 -181 l 1,19,20
 197 -202 197 -202 177 -212 c 128,-1,21
 157 -222 157 -222 133 -222 c 0,22,23
 110 -222 110 -222 91.5 -212.5 c 128,-1,24
 73 -203 73 -203 61.5 -183.5 c 128,-1,25
 50 -164 50 -164 50 -137 c 0,26,27
 50 -102 50 -102 69 -69.5 c 128,-1,28
 88 -37 88 -37 124 0 c 1,29,-1
 20 0 l 1,30,-1
 20 4 l 1,0,-1
70 632 m 1,31,32
 70 650 70 650 78.5 665.5 c 128,-1,33
 87 681 87 681 102 689.5 c 128,-1,34
 117 698 117 698 136 698 c 0,35,36
 154 698 154 698 169 689.5 c 128,-1,37
 184 681 184 681 192.5 665.5 c 128,-1,38
 201 650 201 650 201 632 c 256,39,40
 201 614 201 614 192.5 599 c 128,-1,41
 184 584 184 584 169 575 c 128,-1,42
 154 566 154 566 136 566 c 0,43,44
 117 566 117 566 102 575 c 128,-1,45
 87 584 87 584 78.5 599 c 128,-1,46
 70 614 70 614 70 632 c 1,47,-1
 70 632 l 1,31,32
EndSplineSet
Validated: 1048581
Substitution2: "sous-table 'smcp' Bas-de-casse vers petites capitales dans Latin lookup 38" iogonek.sc
AlternateSubs2: "sous-table 'aalt' Activer toutes les variantes dans Latin lookup 0" iogonek.sc
EndChar

StartChar: uni0237
Encoding: 567 567 233
Width: 256
GlyphClass: 2
Flags: W
AnchorPoint: "Ancre-11" 129 500 basechar 0
AnchorPoint: "Ancre-3" 128 500 basechar 0
AnchorPoint: "Ancre-2" 128 -250 basechar 0
LayerCount: 2
Fore
SplineSet
-11 -197 m 5,0,-1
 -5 -191 l 5,1,2
 51 -143 51 -143 69.5 -107.5 c 128,-1,3
 88 -72 88 -72 88 -23 c 2,4,-1
 88 411 l 1,5,-1
 27 445 l 1,6,-1
 27 450 l 1,7,-1
 180 489 l 1,8,-1
 180 -6 l 2,9,10
 180 -40 180 -40 171 -63.5 c 128,-1,11
 162 -87 162 -87 137 -113 c 0,12,13
 98.4153846154 -152.6 98.4153846154 -152.6 61 -183 c 2,14,-1
 13 -222 l 5,15,-1
 -11 -197 l 5,0,-1
EndSplineSet
Validated: 1572865
Substitution2: "sous-table 'smcp' Bas-de-casse vers petites capitales dans Latin lookup 38" j.sc
AlternateSubs2: "sous-table 'aalt' Activer toutes les variantes dans Latin lookup 0" j.sc
EndChar

StartChar: k
Encoding: 107 107 236
Width: 563
GlyphClass: 2
Flags: W
AnchorPoint: "Ancre-12" 334 0 basechar 0
AnchorPoint: "Ancre-3" 282 780 basechar 0
AnchorPoint: "Ancre-2" 326 0 basechar 0
LayerCount: 2
Fore
SplineSet
25 4 m 1,0,-1
 93 63 l 1,1,-1
 93 678 l 1,2,-1
 32 711 l 1,3,-1
 32 716 l 1,4,-1
 185 755 l 1,5,-1
 185 63 l 1,6,-1
 243 4 l 1,7,-1
 243 0 l 1,8,-1
 25 0 l 1,9,-1
 25 4 l 1,0,-1
380 424 m 1,10,-1
 330 478 l 1,11,-1
 330 482 l 1,12,-1
 543 482 l 1,13,-1
 543 477 l 1,14,-1
 438 419 l 1,15,-1
 288 304 l 1,16,-1
 558 0 l 1,17,-1
 440 0 l 1,18,-1
 193 278 l 1,19,-1
 380 424 l 1,10,-1
EndSplineSet
Validated: 1048577
Substitution2: "sous-table 'smcp' Bas-de-casse vers petites capitales dans Latin lookup 38" k.sc
AlternateSubs2: "sous-table 'aalt' Activer toutes les variantes dans Latin lookup 0" k.sc
EndChar

StartChar: kgreenlandic
Encoding: 312 312 238
Width: 521
GlyphClass: 2
Flags: W
AnchorPoint: "Ancre-12" 323 0 basechar 0
LayerCount: 2
Fore
SplineSet
204 261 m 1,0,-1
 377 424 l 1,1,-1
 308 478 l 1,2,-1
 308 482 l 1,3,-1
 519 482 l 1,4,-1
 519 477 l 1,5,-1
 414 416 l 1,6,-1
 284 296 l 1,7,-1
 528 0 l 1,8,-1
 418 0 l 1,9,-1
 204 261 l 1,0,-1
16 4 m 1,10,-1
 104 63 l 1,11,-1
 104 419 l 1,12,-1
 16 478 l 1,13,-1
 16 482 l 1,14,-1
 277 482 l 1,15,-1
 277 478 l 1,16,-1
 190 419 l 1,17,-1
 190 63 l 1,18,-1
 277 4 l 1,19,-1
 277 0 l 1,20,-1
 16 0 l 1,21,-1
 16 4 l 1,10,-1
EndSplineSet
Validated: 1048577
Substitution2: "sous-table 'smcp' Bas-de-casse vers petites capitales dans Latin lookup 38" kgreenlandic.sc
AlternateSubs2: "sous-table 'aalt' Activer toutes les variantes dans Latin lookup 0" kgreenlandic.sc
EndChar

StartChar: l
Encoding: 108 108 239
Width: 278
GlyphClass: 2
Flags: W
AnchorPoint: "Ancre-15" 150 385 basechar 0
AnchorPoint: "Ancre-14" 382 775 basechar 0
AnchorPoint: "Ancre-12" 145 0 basechar 0
AnchorPoint: "Ancre-11" 153 750 basechar 0
AnchorPoint: "Ancre-4" 225 804 basechar 0
AnchorPoint: "Ancre-3" 149 728 basechar 0
AnchorPoint: "Ancre-2" 139 0 basechar 0
LayerCount: 2
Fore
SplineSet
25 4 m 1,0,-1
 93 63 l 1,1,-1
 93 678 l 1,2,-1
 32 711 l 1,3,-1
 32 716 l 1,4,-1
 185 755 l 1,5,-1
 185 63 l 1,6,-1
 253 4 l 5,7,-1
 253 0 l 5,8,-1
 25 0 l 1,9,-1
 25 4 l 1,0,-1
EndSplineSet
Validated: 1048577
Substitution2: "sous-table 'smcp' Bas-de-casse vers petites capitales dans Latin lookup 38" l.sc
AlternateSubs2: "sous-table 'aalt' Activer toutes les variantes dans Latin lookup 0" l.sc
EndChar

StartChar: lslash
Encoding: 322 322 245
Width: 278
GlyphClass: 2
Flags: W
AnchorPoint: "Ancre-15" 150 385 basechar 0
AnchorPoint: "Ancre-14" 382 775 basechar 0
AnchorPoint: "Ancre-12" 145 0 basechar 0
AnchorPoint: "Ancre-11" 153 750 basechar 0
LayerCount: 2
Fore
SplineSet
15 4 m 1,0,-1
 93 63 l 1,1,-1
 93 314 l 1,2,-1
 25 269 l 1,3,-1
 25 319 l 1,4,-1
 93 364 l 1,5,-1
 93 678 l 1,6,-1
 22 711 l 1,7,-1
 22 716 l 1,8,-1
 185 755 l 1,9,-1
 185 424 l 1,10,-1
 264 475 l 1,11,-1
 264 425 l 1,12,-1
 185 374 l 1,13,-1
 185 63 l 1,14,-1
 263 4 l 1,15,-1
 263 0 l 1,16,-1
 15 0 l 1,17,-1
 15 4 l 1,0,-1
EndSplineSet
Validated: 1048577
Substitution2: "sous-table 'smcp' Bas-de-casse vers petites capitales dans Latin lookup 38" lslash.sc
AlternateSubs2: "sous-table 'aalt' Activer toutes les variantes dans Latin lookup 0" lslash.sc
EndChar

StartChar: m
Encoding: 109 109 246
Width: 847
GlyphClass: 2
Flags: W
AnchorPoint: "Ancre-12" 443 0 basechar 0
AnchorPoint: "Ancre-3" 424 500 basechar 0
AnchorPoint: "Ancre-2" 424 0 basechar 0
LayerCount: 2
Fore
SplineSet
40 4 m 1,0,-1
 99 63 l 1,1,-1
 99 411 l 1,2,-1
 48 445 l 1,3,-1
 48 450 l 1,4,-1
 191 489 l 1,5,-1
 191 426 l 1,6,7
 263 494 263 494 343 494 c 0,8,9
 385 494 385 494 415.5 472.5 c 128,-1,10
 446 451 446 451 461 413 c 1,11,12
 543 494 543 494 626 494 c 0,13,14
 667 494 667 494 697 474 c 128,-1,15
 727 454 727 454 742.5 418 c 128,-1,16
 758 382 758 382 758 335 c 2,17,-1
 758 63 l 1,18,-1
 816 4 l 5,19,-1
 816 0 l 5,20,-1
 608 0 l 1,21,-1
 608 4 l 1,22,-1
 666 63 l 1,23,-1
 666 329 l 2,24,25
 666 430 666 430 587 430 c 0,26,27
 562 430 562 430 531 418 c 128,-1,28
 500 406 500 406 469 382 c 1,29,30
 474 358 474 358 474 335 c 2,31,-1
 474 63 l 1,32,-1
 533 4 l 1,33,-1
 533 0 l 1,34,-1
 324 0 l 1,35,-1
 324 4 l 1,36,-1
 382 63 l 1,37,-1
 382 329 l 2,38,39
 382 430 382 430 303 430 c 0,40,41
 280 430 280 430 250.5 419 c 128,-1,42
 221 408 221 408 191 385 c 1,43,-1
 191 63 l 1,44,-1
 249 4 l 1,45,-1
 249 0 l 1,46,-1
 40 0 l 1,47,-1
 40 4 l 1,0,-1
EndSplineSet
Validated: 1048577
Substitution2: "sous-table 'smcp' Bas-de-casse vers petites capitales dans Latin lookup 38" m.sc
AlternateSubs2: "sous-table 'aalt' Activer toutes les variantes dans Latin lookup 0" m.sc
EndChar

StartChar: n
Encoding: 110 110 249
Width: 572
GlyphClass: 2
Flags: W
AnchorPoint: "Ancre-12" 321 0 basechar 0
AnchorPoint: "Ancre-11" 312 500 basechar 0
AnchorPoint: "Ancre-3" 308 500 basechar 0
AnchorPoint: "Ancre-2" 295 0 basechar 0
LayerCount: 2
Fore
SplineSet
333 4 m 1,0,-1
 391 63 l 1,1,-1
 391 331 l 2,2,3
 391 379 391 379 371 404.5 c 128,-1,4
 351 430 351 430 309 430 c 0,5,6
 256 430 256 430 191 385 c 1,7,-1
 191 63 l 1,8,-1
 249 4 l 1,9,-1
 249 0 l 1,10,-1
 40 0 l 1,11,-1
 40 4 l 1,12,-1
 99 63 l 1,13,-1
 99 411 l 1,14,-1
 48 445 l 1,15,-1
 48 450 l 1,16,-1
 191 489 l 1,17,-1
 191 425 l 1,18,19
 227 458 227 458 266.5 476 c 128,-1,20
 306 494 306 494 347 494 c 0,21,22
 387 494 387 494 418 475 c 128,-1,23
 449 456 449 456 466 422.5 c 128,-1,24
 483 389 483 389 483 347 c 2,25,-1
 483 63 l 1,26,-1
 541 4 l 5,27,-1
 541 0 l 5,28,-1
 333 0 l 1,29,-1
 333 4 l 1,0,-1
EndSplineSet
Validated: 1048577
Substitution2: "sous-table 'smcp' Bas-de-casse vers petites capitales dans Latin lookup 38" n.sc
AlternateSubs2: "sous-table 'aalt' Activer toutes les variantes dans Latin lookup 0" n.sc
EndChar

StartChar: uni0272
Encoding: 626 626 255
Width: 561
GlyphClass: 2
Flags: W
AnchorPoint: "Ancre-12" 290 0 basechar 0
AnchorPoint: "Ancre-11" 303 500 basechar 0
LayerCount: 2
Fore
SplineSet
302 4 m 1,0,-1
 380 63 l 1,1,-1
 380 331 l 2,2,3
 380 379 380 379 360.5 404.5 c 128,-1,4
 341 430 341 430 298 430 c 0,5,6
 245 430 245 430 180 385 c 1,7,-1
 180 -16 l 2,8,9
 180 -50 180 -50 171 -73.5 c 128,-1,10
 162 -97 162 -97 137 -123 c 128,-1,11
 112 -149 112 -149 61 -193 c 2,12,-1
 3 -242 l 1,13,-1
 -21 -217 l 1,14,-1
 -15 -211 l 1,15,16
 41 -164 41 -164 64.5 -122.5 c 128,-1,17
 88 -81 88 -81 88 -33 c 2,18,-1
 88 411 l 1,19,-1
 17 445 l 1,20,-1
 17 450 l 1,21,-1
 180 489 l 1,22,-1
 180 425 l 1,23,24
 217 458 217 458 256 476 c 128,-1,25
 295 494 295 494 336 494 c 256,26,27
 377 494 377 494 408 475 c 128,-1,28
 439 456 439 456 455.5 422.5 c 128,-1,29
 472 389 472 389 472 347 c 2,30,-1
 472 63 l 1,31,-1
 551 4 l 1,32,-1
 551 0 l 1,33,-1
 302 0 l 1,34,-1
 302 4 l 1,0,-1
EndSplineSet
Validated: 1048577
Substitution2: "sous-table 'smcp' Bas-de-casse vers petites capitales dans Latin lookup 38" uni0272.sc
AlternateSubs2: "sous-table 'aalt' Activer toutes les variantes dans Latin lookup 0" uni0272.sc
EndChar

StartChar: eng
Encoding: 331 331 258
Width: 552
GlyphClass: 2
Flags: W
AnchorPoint: "Ancre-12" 301 0 basechar 0
AnchorPoint: "Ancre-11" 314 500 basechar 0
LayerCount: 2
Fore
SplineSet
282 -217 m 1,0,-1
 288 -211 l 1,1,2
 344 -164 344 -164 367.5 -122.5 c 128,-1,3
 391 -81 391 -81 391 -33 c 2,4,-1
 391 331 l 2,5,6
 391 379 391 379 371 404.5 c 128,-1,7
 351 430 351 430 309 430 c 0,8,9
 256 430 256 430 191 385 c 1,10,-1
 191 63 l 1,11,-1
 269 4 l 1,12,-1
 269 0 l 1,13,-1
 20 0 l 1,14,-1
 20 4 l 1,15,-1
 99 63 l 1,16,-1
 99 411 l 1,17,-1
 28 445 l 1,18,-1
 28 450 l 1,19,-1
 191 489 l 1,20,-1
 191 425 l 1,21,22
 227 458 227 458 266.5 476 c 128,-1,23
 306 494 306 494 347 494 c 0,24,25
 387 494 387 494 418 475 c 128,-1,26
 449 456 449 456 466 422.5 c 128,-1,27
 483 389 483 389 483 347 c 2,28,-1
 483 -16 l 2,29,30
 483 -50 483 -50 474 -73.5 c 128,-1,31
 465 -97 465 -97 440 -123 c 128,-1,32
 415 -149 415 -149 364 -193 c 2,33,-1
 306 -242 l 1,34,-1
 282 -217 l 1,0,-1
EndSplineSet
Validated: 1048577
Substitution2: "sous-table 'smcp' Bas-de-casse vers petites capitales dans Latin lookup 38" eng.sc
AlternateSubs2: "sous-table 'aalt' Activer toutes les variantes dans Latin lookup 0" eng.sc
EndChar

StartChar: o
Encoding: 111 111 259
Width: 548
GlyphClass: 2
Flags: W
AnchorPoint: "Ancre-15" 283 250 basechar 0
AnchorPoint: "Ancre-12" 283 0 basechar 0
AnchorPoint: "Ancre-11" 279 500 basechar 0
AnchorPoint: "Ancre-4" 528 500 basechar 0
AnchorPoint: "Ancre-3" 268 500 basechar 0
AnchorPoint: "Ancre-2" 274 0 basechar 0
LayerCount: 2
Fore
SplineSet
274 -10 m 1,0,1
 211 -10 211 -10 156.5 20 c 128,-1,2
 102 50 102 50 69 106.5 c 128,-1,3
 36 163 36 163 36 237 c 0,4,5
 36 312 36 312 69 370.5 c 128,-1,6
 102 429 102 429 156.5 461.5 c 128,-1,7
 211 494 211 494 274 494 c 256,8,9
 337 494 337 494 391.5 464 c 128,-1,10
 446 434 446 434 479 377.5 c 128,-1,11
 512 321 512 321 512 247 c 0,12,13
 512 172 512 172 479 113.5 c 128,-1,14
 446 55 446 55 391.5 22.5 c 128,-1,15
 337 -10 337 -10 274 -10 c 1,16,-1
 274 -10 l 1,0,1
135 255 m 1,17,18
 135 193 135 193 155 141.5 c 128,-1,19
 175 90 175 90 209.5 60.5 c 128,-1,20
 244 31 244 31 284 31 c 256,21,22
 324 31 324 31 353 54.5 c 128,-1,23
 382 78 382 78 397.5 122.5 c 128,-1,24
 413 167 413 167 413 229 c 256,25,26
 413 291 413 291 393 342.5 c 128,-1,27
 373 394 373 394 338.5 423.5 c 128,-1,28
 304 453 304 453 264 453 c 256,29,30
 224 453 224 453 195 429.5 c 128,-1,31
 166 406 166 406 150.5 361.5 c 128,-1,32
 135 317 135 317 135 255 c 1,33,-1
 135 255 l 1,17,18
EndSplineSet
Validated: 1048581
Substitution2: "sous-table 'smcp' Bas-de-casse vers petites capitales dans Latin lookup 38" o.sc
Substitution2: "sous-table Substitution simple lookups9" ordmasculine
AlternateSubs2: "sous-table 'aalt' Activer toutes les variantes dans Latin lookup 0" o.sc
EndChar

StartChar: ocommaaccent.loclMAH
Encoding: 65576 -1 263
Width: 566
GlyphClass: 2
Flags: W
AnchorPoint: "Ancre-9" 283 250 basechar 0
AnchorPoint: "Ancre-8" 279 500 basechar 0
AnchorPoint: "Ancre-7" 283 0 basechar 0
LayerCount: 2
Fore
SplineSet
204 -231 m 1,0,1
 252 -214 252 -214 272.5 -195.5 c 128,-1,2
 293 -177 293 -177 293 -154 c 0,3,4
 293 -129 293 -129 271.5 -111 c 128,-1,5
 250 -93 250 -93 208 -86 c 1,6,-1
 259 -9 l 1,7,8
 199 -3 199 -3 148 29.5 c 128,-1,9
 97 62 97 62 67 117.5 c 128,-1,10
 37 173 37 173 37 245 c 0,11,12
 37 322 37 322 71 382.5 c 128,-1,13
 105 443 105 443 161.5 476.5 c 128,-1,14
 218 510 218 510 283 510 c 256,15,16
 348 510 348 510 404.5 479 c 128,-1,17
 461 448 461 448 495 390 c 128,-1,18
 529 332 529 332 529 255 c 0,19,20
 529 180 529 180 497 121 c 128,-1,21
 465 62 465 62 411 27.5 c 128,-1,22
 357 -7 357 -7 295 -10 c 1,23,-1
 267 -51 l 1,24,25
 311 -62 311 -62 336.5 -86.5 c 128,-1,26
 362 -111 362 -111 362 -143 c 0,27,28
 362 -169 362 -169 344 -188 c 128,-1,29
 326 -207 326 -207 297 -221 c 128,-1,30
 268 -235 268 -235 215 -254 c 1,31,-1
 204 -231 l 1,0,1
293 32 m 1,32,33
 335 32 335 32 365 56.5 c 128,-1,34
 395 81 395 81 411 127 c 128,-1,35
 427 173 427 173 427 237 c 256,36,37
 427 301 427 301 406 354 c 128,-1,38
 385 407 385 407 349.5 437.5 c 128,-1,39
 314 468 314 468 273 468 c 0,40,41
 231 468 231 468 201 443.5 c 128,-1,42
 171 419 171 419 155 373 c 128,-1,43
 139 327 139 327 139 263 c 256,44,45
 139 199 139 199 160 146 c 128,-1,46
 181 93 181 93 216.5 62.5 c 128,-1,47
 252 32 252 32 293 32 c 1,48,-1
 293 32 l 1,32,33
EndSplineSet
Validated: 5
EndChar

StartChar: oslash
Encoding: 248 248 269
Width: 548
GlyphClass: 2
Flags: W
AnchorPoint: "Ancre-15" 283 250 basechar 0
AnchorPoint: "Ancre-12" 283 0 basechar 0
AnchorPoint: "Ancre-11" 279 500 basechar 0
AnchorPoint: "Ancre-3" 268 500 basechar 0
LayerCount: 2
Fore
SplineSet
274 -10 m 1,0,1
 229 -10 229 -10 188 5.5 c 128,-1,2
 147 21 147 21 114 50 c 1,3,-1
 46 -17 l 1,4,-1
 12 17 l 1,5,-1
 81 86 l 1,6,7
 60 117 60 117 48 155.5 c 128,-1,8
 36 194 36 194 36 237 c 0,9,10
 36 312 36 312 69 370.5 c 128,-1,11
 102 429 102 429 156.5 461.5 c 128,-1,12
 211 494 211 494 274 494 c 0,13,14
 318 494 318 494 359.5 478.5 c 128,-1,15
 401 463 401 463 434 434 c 1,16,-1
 502 501 l 1,17,-1
 537 467 l 1,18,-1
 467 397 l 1,19,20
 512 333 512 333 512 247 c 0,21,22
 512 172 512 172 479 113.5 c 128,-1,23
 446 55 446 55 391.5 22.5 c 128,-1,24
 337 -10 337 -10 274 -10 c 1,25,-1
 274 -10 l 1,0,1
135 255 m 1,26,27
 135 202 135 202 150 154 c 1,28,-1
 377 377 l 1,29,30
 355 412 355 412 325.5 432.5 c 128,-1,31
 296 453 296 453 264 453 c 0,32,33
 224 453 224 453 195 429.5 c 128,-1,34
 166 406 166 406 150.5 361.5 c 128,-1,35
 135 317 135 317 135 255 c 1,36,-1
 135 255 l 1,26,27
172 106 m 1,37,38
 194 71 194 71 223 51 c 128,-1,39
 252 31 252 31 284 31 c 0,40,41
 324 31 324 31 353 54.5 c 128,-1,42
 382 78 382 78 397.5 122.5 c 128,-1,43
 413 167 413 167 413 229 c 0,44,45
 413 281 413 281 398 329 c 1,46,-1
 172 106 l 1,47,-1
 172 106 l 1,37,38
EndSplineSet
Validated: 1048581
Substitution2: "sous-table 'smcp' Bas-de-casse vers petites capitales dans Latin lookup 38" oslash.sc
AlternateSubs2: "sous-table 'aalt' Activer toutes les variantes dans Latin lookup 0" oslash.sc
EndChar

StartChar: oe
Encoding: 339 339 272
Width: 883
GlyphClass: 2
Flags: W
AnchorPoint: "Ancre-15" 283 250 basechar 0
AnchorPoint: "Ancre-12" 283 0 basechar 0
AnchorPoint: "Ancre-11" 675 500 basechar 0
AnchorPoint: "Ancre-10" 756 0 basechar 0
LayerCount: 2
Fore
SplineSet
274 -10 m 1,0,1
 211 -10 211 -10 156.5 20 c 128,-1,2
 102 50 102 50 69 106.5 c 128,-1,3
 36 163 36 163 36 237 c 0,4,5
 36 312 36 312 69 370.5 c 128,-1,6
 102 429 102 429 156.5 461.5 c 128,-1,7
 211 494 211 494 274 494 c 0,8,9
 335 494 335 494 387.5 466.5 c 128,-1,10
 440 439 440 439 473 387 c 1,11,12
 506 437 506 437 557 465.5 c 128,-1,13
 608 494 608 494 661 494 c 0,14,15
 711 494 711 494 753 471 c 128,-1,16
 795 448 795 448 820.5 401.5 c 128,-1,17
 846 355 846 355 846 288 c 2,18,-1
 846 273 l 1,19,-1
 512 273 l 1,20,21
 512 210 512 210 535 160.5 c 128,-1,22
 558 111 558 111 596.5 84 c 128,-1,23
 635 57 635 57 683 57 c 0,24,25
 721 57 721 57 748.5 68.5 c 128,-1,26
 776 80 776 80 814 116 c 1,27,-1
 839 93 l 1,28,29
 803 54 803 54 783.5 37 c 128,-1,30
 764 20 764 20 730.5 5 c 128,-1,31
 697 -10 697 -10 655 -10 c 0,32,33
 602 -10 602 -10 550.5 16.5 c 128,-1,34
 499 43 499 43 467 93 c 1,35,36
 434 45 434 45 382.5 17.5 c 128,-1,37
 331 -10 331 -10 274 -10 c 1,38,-1
 274 -10 l 1,0,1
135 255 m 1,39,40
 135 193 135 193 155 141.5 c 128,-1,41
 175 90 175 90 209.5 60.5 c 128,-1,42
 244 31 244 31 284 31 c 256,43,44
 324 31 324 31 353 54.5 c 128,-1,45
 382 78 382 78 397.5 122.5 c 128,-1,46
 413 167 413 167 413 229 c 256,47,48
 413 291 413 291 393 342.5 c 128,-1,49
 373 394 373 394 338.5 423.5 c 128,-1,50
 304 453 304 453 264 453 c 256,51,52
 224 453 224 453 195 429.5 c 128,-1,53
 166 406 166 406 150.5 361.5 c 128,-1,54
 135 317 135 317 135 255 c 1,55,-1
 135 255 l 1,39,40
746 316 m 1,56,57
 747 322 747 322 747 336 c 0,58,59
 747 390 747 390 719.5 421.5 c 128,-1,60
 692 453 692 453 645 453 c 0,61,62
 613 453 613 453 586 436.5 c 128,-1,63
 559 420 559 420 540 389 c 128,-1,64
 521 358 521 358 515 316 c 1,65,-1
 746 316 l 1,56,57
EndSplineSet
Validated: 1048581
Substitution2: "sous-table 'smcp' Bas-de-casse vers petites capitales dans Latin lookup 38" oe.sc
AlternateSubs2: "sous-table 'aalt' Activer toutes les variantes dans Latin lookup 0" oe.sc
EndChar

StartChar: p
Encoding: 112 112 273
Width: 576
GlyphClass: 1
Flags: W
LayerCount: 2
Fore
SplineSet
314 -10 m 1,0,1
 227 -10 227 -10 177 47 c 1,2,-1
 177 -145 l 1,3,-1
 253 -204 l 5,4,-1
 253 -208 l 5,5,-1
 27 -208 l 1,6,-1
 27 -204 l 1,7,-1
 85 -145 l 1,8,-1
 85 411 l 1,9,-1
 35 445 l 1,10,-1
 35 450 l 1,11,-1
 177 489 l 1,12,-1
 177 425 l 1,13,14
 252 494 252 494 330 494 c 0,15,16
 391 494 391 494 439 462 c 128,-1,17
 487 430 487 430 513.5 373.5 c 128,-1,18
 540 317 540 317 540 246 c 0,19,20
 540 170 540 170 508 112 c 128,-1,21
 476 54 476 54 424 22 c 128,-1,22
 372 -10 372 -10 314 -10 c 1,23,-1
 314 -10 l 1,0,1
177 191 m 1,24,25
 177 145 177 145 194 109 c 128,-1,26
 211 73 211 73 241 52 c 128,-1,27
 271 31 271 31 308 31 c 0,28,29
 348 31 348 31 378 55 c 128,-1,30
 408 79 408 79 424.5 122.5 c 128,-1,31
 441 166 441 166 441 222 c 0,32,33
 441 283 441 283 423.5 330 c 128,-1,34
 406 377 406 377 371.5 403.5 c 128,-1,35
 337 430 337 430 290 430 c 0,36,37
 266 430 266 430 236.5 418.5 c 128,-1,38
 207 407 207 407 177 385 c 1,39,-1
 177 191 l 1,40,-1
 177 191 l 1,24,25
EndSplineSet
Validated: 5
Substitution2: "sous-table 'smcp' Bas-de-casse vers petites capitales dans Latin lookup 38" p.sc
AlternateSubs2: "sous-table 'aalt' Activer toutes les variantes dans Latin lookup 0" p.sc
EndChar

StartChar: thorn
Encoding: 254 254 274
Width: 563
GlyphClass: 1
Flags: W
LayerCount: 2
Fore
SplineSet
-6 -228 m 1,0,-1
 73 -169 l 1,1,-1
 73 678 l 1,2,-1
 2 711 l 1,3,-1
 2 716 l 1,4,-1
 165 755 l 1,5,-1
 165 425 l 1,6,7
 239 494 239 494 318 494 c 0,8,9
 378 494 378 494 426 462 c 128,-1,10
 474 430 474 430 501 373.5 c 128,-1,11
 528 317 528 317 528 246 c 0,12,13
 528 170 528 170 496 112 c 128,-1,14
 464 54 464 54 411.5 22 c 128,-1,15
 359 -10 359 -10 301 -10 c 0,16,17
 215 -10 215 -10 165 47 c 1,18,-1
 165 -169 l 1,19,-1
 260 -228 l 1,20,-1
 260 -232 l 1,21,-1
 -6 -232 l 1,22,-1
 -6 -228 l 1,0,-1
165 191 m 1,23,24
 165 145 165 145 181.5 109 c 128,-1,25
 198 73 198 73 228 52 c 128,-1,26
 258 31 258 31 295 31 c 0,27,28
 335 31 335 31 365.5 55 c 128,-1,29
 396 79 396 79 412.5 122.5 c 128,-1,30
 429 166 429 166 429 222 c 0,31,32
 429 283 429 283 411 330 c 128,-1,33
 393 377 393 377 358.5 403.5 c 128,-1,34
 324 430 324 430 278 430 c 0,35,36
 254 430 254 430 224.5 418.5 c 128,-1,37
 195 407 195 407 165 385 c 1,38,-1
 165 191 l 1,39,-1
 165 191 l 1,23,24
EndSplineSet
Validated: 5
Substitution2: "sous-table 'smcp' Bas-de-casse vers petites capitales dans Latin lookup 38" thorn.sc
AlternateSubs2: "sous-table 'aalt' Activer toutes les variantes dans Latin lookup 0" thorn.sc
EndChar

StartChar: q
Encoding: 113 113 275
Width: 563
GlyphClass: 1
Flags: W
LayerCount: 2
Fore
SplineSet
246 -10 m 1,0,1
 185 -10 185 -10 137 22 c 128,-1,2
 89 54 89 54 62.5 110.5 c 128,-1,3
 36 167 36 167 36 238 c 0,4,5
 36 314 36 314 68.5 372 c 128,-1,6
 101 430 101 430 155 462 c 128,-1,7
 209 494 209 494 272 494 c 0,8,9
 349 494 349 494 417 451 c 1,10,-1
 486 496 l 5,11,-1
 491 496 l 5,12,-1
 491 -145 l 1,13,-1
 549 -204 l 1,14,-1
 549 -208 l 1,15,-1
 323 -208 l 1,16,-1
 323 -204 l 1,17,-1
 399 -145 l 1,18,-1
 399 59 l 1,19,20
 324 -10 324 -10 246 -10 c 1,21,-1
 246 -10 l 1,0,1
135 262 m 1,22,23
 135 201 135 201 152.5 154 c 128,-1,24
 170 107 170 107 204.5 80.5 c 128,-1,25
 239 54 239 54 286 54 c 0,26,27
 310 54 310 54 339.5 65.5 c 128,-1,28
 369 77 369 77 399 99 c 1,29,-1
 399 293 l 2,30,31
 399 339 399 339 382 375 c 128,-1,32
 365 411 365 411 335 432 c 128,-1,33
 305 453 305 453 268 453 c 0,34,35
 228 453 228 453 197.5 429 c 128,-1,36
 167 405 167 405 151 361.5 c 128,-1,37
 135 318 135 318 135 262 c 1,38,-1
 135 262 l 1,22,23
EndSplineSet
Validated: 5
Substitution2: "sous-table 'smcp' Bas-de-casse vers petites capitales dans Latin lookup 38" q.sc
AlternateSubs2: "sous-table 'aalt' Activer toutes les variantes dans Latin lookup 0" q.sc
EndChar

StartChar: r
Encoding: 114 114 276
Width: 378
GlyphClass: 2
Flags: W
AnchorPoint: "Ancre-12" 154 0 basechar 0
AnchorPoint: "Ancre-11" 243 500 basechar 0
AnchorPoint: "Ancre-3" 243 500 basechar 0
AnchorPoint: "Ancre-2" 152 0 basechar 0
LayerCount: 2
Fore
SplineSet
40 4 m 1,0,-1
 99 63 l 1,1,-1
 99 411 l 1,2,-1
 38 455 l 1,3,-1
 38 460 l 1,4,-1
 191 489 l 1,5,-1
 191 413 l 1,6,7
 267 494 267 494 357 494 c 1,8,-1
 357 393 l 1,9,10
 320 408 320 408 287 408 c 0,11,12
 238 408 238 408 191 376 c 1,13,-1
 191 63 l 1,14,-1
 267 4 l 1,15,-1
 267 0 l 1,16,-1
 40 0 l 1,17,-1
 40 4 l 1,0,-1
EndSplineSet
Validated: 1048577
Substitution2: "sous-table 'smcp' Bas-de-casse vers petites capitales dans Latin lookup 38" r.sc
AlternateSubs2: "sous-table 'aalt' Activer toutes les variantes dans Latin lookup 0" r.sc
EndChar

StartChar: s
Encoding: 115 115 280
Width: 425
GlyphClass: 2
Flags: W
AnchorPoint: "Ancre-12" 219 0 basechar 0
AnchorPoint: "Ancre-11" 214 500 basechar 0
AnchorPoint: "Ancre-3" 206 500 basechar 0
AnchorPoint: "Ancre-2" 213 0 basechar 0
LayerCount: 2
Fore
SplineSet
214 -10 m 1,0,1
 172 -10 172 -10 130 -2.5 c 128,-1,2
 88 5 88 5 52 15 c 1,3,-1
 38 160 l 1,4,-1
 43 160 l 1,5,6
 85 93 85 93 127 60 c 128,-1,7
 169 27 169 27 222 27 c 0,8,9
 252 27 252 27 275 36 c 128,-1,10
 298 45 298 45 311 62 c 128,-1,11
 324 79 324 79 324 101 c 0,12,13
 324 126 324 126 304 147.5 c 128,-1,14
 284 169 284 169 233 194 c 2,15,-1
 156 230 l 2,16,17
 98 258 98 258 72 287 c 128,-1,18
 46 316 46 316 46 359 c 0,19,20
 46 397 46 397 67 428 c 128,-1,21
 88 459 88 459 124.5 476.5 c 128,-1,22
 161 494 161 494 206 494 c 0,23,24
 245 494 245 494 279 488.5 c 128,-1,25
 313 483 313 483 352 471 c 1,26,-1
 364 332 l 1,27,-1
 359 332 l 1,28,29
 331 375 331 375 307 401.5 c 128,-1,30
 283 428 283 428 255.5 442.5 c 128,-1,31
 228 457 228 457 197 457 c 0,32,33
 158 457 158 457 135 440.5 c 128,-1,34
 112 424 112 424 112 396 c 0,35,36
 112 378 112 378 122 364 c 128,-1,37
 132 350 132 350 152.5 336 c 128,-1,38
 173 322 173 322 211 304 c 2,39,-1
 288 267 l 2,40,41
 343 241 343 241 366.5 210 c 128,-1,42
 390 179 390 179 390 135 c 0,43,44
 390 94 390 94 367.5 61 c 128,-1,45
 345 28 345 28 304.5 9 c 128,-1,46
 264 -10 264 -10 214 -10 c 1,47,-1
 214 -10 l 1,0,1
EndSplineSet
Validated: 1048581
Substitution2: "sous-table 'smcp' Bas-de-casse vers petites capitales dans Latin lookup 38" s.sc
AlternateSubs2: "sous-table 'aalt' Activer toutes les variantes dans Latin lookup 0" s.sc
EndChar

StartChar: uniA78C
Encoding: 42892 42892 282
Width: 200
GlyphClass: 1
Flags: W
LayerCount: 2
Fore
SplineSet
56 319 m 1,0,1
 91 409 91 409 91 496 c 0,2,3
 91 608 91 608 31 726 c 1,4,-1
 121 726 l 1,5,6
 156 636 156 636 156 550 c 0,7,8
 156 438 156 438 96 319 c 1,9,-1
 56 319 l 1,10,-1
 56 319 l 1,0,1
EndSplineSet
Validated: 5
EndChar

StartChar: scedilla
Encoding: 351 351 284
Width: 425
GlyphClass: 2
Flags: W
AnchorPoint: "Ancre-12" 219 0 basechar 0
AnchorPoint: "Ancre-11" 214 500 basechar 0
LayerCount: 2
Fore
SplineSet
136 -224 m 1,0,1
 182 -207 182 -207 202 -189 c 128,-1,2
 222 -171 222 -171 222 -149 c 0,3,4
 222 -125 222 -125 201 -107.5 c 128,-1,5
 180 -90 180 -90 139 -83 c 1,6,-1
 189 -9 l 1,7,8
 121 -5 121 -5 52 15 c 1,9,-1
 38 160 l 1,10,-1
 43 160 l 1,11,12
 85 93 85 93 127 60 c 128,-1,13
 169 27 169 27 222 27 c 0,14,15
 252 27 252 27 275 36 c 128,-1,16
 298 45 298 45 311 62 c 128,-1,17
 324 79 324 79 324 101 c 0,18,19
 324 126 324 126 304 147.5 c 128,-1,20
 284 169 284 169 233 194 c 2,21,-1
 156 230 l 2,22,23
 98 258 98 258 72 287 c 128,-1,24
 46 316 46 316 46 359 c 0,25,26
 46 397 46 397 67 428 c 128,-1,27
 88 459 88 459 124.5 476.5 c 128,-1,28
 161 494 161 494 206 494 c 0,29,30
 245 494 245 494 279 488.5 c 128,-1,31
 313 483 313 483 352 471 c 1,32,-1
 364 332 l 1,33,-1
 359 332 l 1,34,35
 331 375 331 375 307 401.5 c 128,-1,36
 283 428 283 428 255.5 442.5 c 128,-1,37
 228 457 228 457 197 457 c 0,38,39
 158 457 158 457 135 440.5 c 128,-1,40
 112 424 112 424 112 396 c 0,41,42
 112 378 112 378 122 364 c 128,-1,43
 132 350 132 350 152.5 336 c 128,-1,44
 173 322 173 322 211 304 c 2,45,-1
 288 267 l 2,46,47
 343 241 343 241 366.5 210 c 128,-1,48
 390 179 390 179 390 135 c 0,49,50
 390 95 390 95 369 63 c 128,-1,51
 348 31 348 31 309.5 11.5 c 128,-1,52
 271 -8 271 -8 223 -10 c 1,53,-1
 197 -49 l 1,54,55
 239 -60 239 -60 263.5 -83.5 c 128,-1,56
 288 -107 288 -107 288 -138 c 0,57,58
 288 -164 288 -164 271 -182 c 128,-1,59
 254 -200 254 -200 225.5 -213.5 c 128,-1,60
 197 -227 197 -227 146 -246 c 1,61,-1
 136 -224 l 1,62,-1
 136 -224 l 1,0,1
EndSplineSet
Validated: 1048581
Substitution2: "sous-table 'smcp' Bas-de-casse vers petites capitales dans Latin lookup 38" scedilla.sc
Substitution2: "sous-table 'locl' Formes localis+AOkA-es g+AOkA-ographiquement dans Latin lookup 15" uni0219
AlternateSubs2: "sous-table 'aalt' Activer toutes les variantes dans Latin lookup 0" uni0219 scedilla.sc
EndChar

StartChar: germandbls
Encoding: 223 223 287
Width: 607
GlyphClass: 1
Flags: W
LayerCount: 2
Fore
SplineSet
433 -10 m 1,0,1
 392 -10 392 -10 356 -3.5 c 128,-1,2
 320 3 320 3 278 15 c 1,3,-1
 263 160 l 1,4,-1
 268 160 l 1,5,6
 308 95 308 95 353 61 c 128,-1,7
 398 27 398 27 441 27 c 0,8,9
 469 27 469 27 489 36 c 128,-1,10
 509 45 509 45 519.5 61.5 c 128,-1,11
 530 78 530 78 530 99 c 256,12,13
 530 120 530 120 519.5 136.5 c 128,-1,14
 509 153 509 153 490 166.5 c 128,-1,15
 471 180 471 180 437 200 c 2,16,-1
 358 246 l 2,17,18
 318 269 318 269 296 297.5 c 128,-1,19
 274 326 274 326 274 362 c 0,20,21
 274 389 274 389 285 409.5 c 128,-1,22
 296 430 296 430 312.5 444.5 c 128,-1,23
 329 459 329 459 357 479 c 256,24,25
 385 499 385 499 402 514 c 128,-1,26
 419 529 419 529 430 549.5 c 128,-1,27
 441 570 441 570 441 597 c 0,28,29
 441 635 441 635 427 662 c 128,-1,30
 413 689 413 689 388 703.5 c 128,-1,31
 363 718 363 718 329 718 c 0,32,33
 290 718 290 718 260.5 698 c 128,-1,34
 231 678 231 678 215.5 641.5 c 128,-1,35
 200 605 200 605 200 559 c 2,36,-1
 200 0 l 1,37,-1
 30 0 l 1,38,-1
 30 4 l 1,39,-1
 108 63 l 1,40,-1
 108 441 l 1,41,-1
 7 441 l 1,42,-1
 7 446 l 1,43,-1
 108 484 l 1,44,-1
 108 508 l 2,45,46
 108 574 108 574 137 630.5 c 128,-1,47
 166 687 166 687 216.5 721 c 128,-1,48
 267 755 267 755 332 755 c 0,49,50
 391 755 391 755 438 734 c 128,-1,51
 485 713 485 713 511.5 679 c 128,-1,52
 538 645 538 645 538 606 c 0,53,54
 538 570 538 570 521 545 c 128,-1,55
 504 520 504 520 480.5 504 c 128,-1,56
 457 488 457 488 419 469 c 0,57,58
 391 454 391 454 375.5 445 c 128,-1,59
 360 436 360 436 350 423 c 128,-1,60
 340 410 340 410 340 394 c 0,61,62
 340 380 340 380 347.5 369.5 c 128,-1,63
 355 359 355 359 371.5 347.5 c 128,-1,64
 388 336 388 336 419 318 c 2,65,-1
 498 272 l 2,66,67
 545 244 545 244 567.5 209 c 128,-1,68
 590 174 590 174 590 130 c 0,69,70
 590 87 590 87 568.5 55.5 c 128,-1,71
 547 24 547 24 511.5 7 c 128,-1,72
 476 -10 476 -10 433 -10 c 1,73,-1
 433 -10 l 1,0,1
EndSplineSet
Validated: 5
Substitution2: "sous-table 'smcp' Bas-de-casse vers petites capitales dans Latin lookup 38" germandbls.sc
Substitution2: "sous-table Substitution simple lookups7" germandbls.calt
AlternateSubs2: "sous-table 'aalt' Activer toutes les variantes dans Latin lookup 0" germandbls.sc
EndChar

StartChar: t
Encoding: 116 116 288
Width: 406
GlyphClass: 2
Flags: W
AnchorPoint: "Ancre-14" 381 750 basechar 0
AnchorPoint: "Ancre-13" 18 363 basechar 0
AnchorPoint: "Ancre-12" 243 0 basechar 0
AnchorPoint: "Ancre-4" 223 780 basechar 0
AnchorPoint: "Ancre-3" 203 578 basechar 0
AnchorPoint: "Ancre-2" 238 0 basechar 0
LayerCount: 2
Fore
SplineSet
233 -10 m 1,0,1
 195 -10 195 -10 164 5.5 c 128,-1,2
 133 21 133 21 115.5 50.5 c 128,-1,3
 98 80 98 80 98 122 c 2,4,-1
 98 439 l 1,5,-1
 20 439 l 1,6,-1
 20 444 l 1,7,-1
 124 495 l 1,8,9
 124 495 124 495 185 578 c 1,10,-1
 190 578 l 1,11,-1
 190 482 l 1,12,-1
 389 482 l 1,13,-1
 366 439 l 1,14,-1
 190 439 l 1,15,-1
 190 143 l 2,16,17
 190 97 190 97 210.5 72.5 c 128,-1,18
 231 48 231 48 266 48 c 0,19,20
 294 48 294 48 317 58 c 128,-1,21
 340 68 340 68 376 100 c 1,22,-1
 398 74 l 1,23,24
 366 43 366 43 345 29 c 128,-1,25
 324 15 324 15 295 2.5 c 128,-1,26
 266 -10 266 -10 233 -10 c 1,27,-1
 233 -10 l 1,0,1
EndSplineSet
Validated: 1048581
Substitution2: "sous-table 'smcp' Bas-de-casse vers petites capitales dans Latin lookup 38" t.sc
AlternateSubs2: "sous-table 'aalt' Activer toutes les variantes dans Latin lookup 0" t.sc
EndChar

StartChar: tbar
Encoding: 359 359 289
Width: 406
GlyphClass: 2
Flags: W
AnchorPoint: "Ancre-14" 381 750 basechar 0
AnchorPoint: "Ancre-13" 18 363 basechar 0
AnchorPoint: "Ancre-12" 243 0 basechar 0
LayerCount: 2
Fore
SplineSet
233 -10 m 1,0,1
 195 -10 195 -10 164 5.5 c 128,-1,2
 133 21 133 21 115.5 50.5 c 128,-1,3
 98 80 98 80 98 122 c 2,4,-1
 98 309 l 1,5,-1
 -6 309 l 1,6,-1
 17 351 l 1,7,-1
 98 351 l 1,8,-1
 98 439 l 1,9,-1
 0 439 l 1,10,-1
 0 444 l 1,11,-1
 185 578 l 1,12,-1
 190 578 l 1,13,-1
 190 482 l 1,14,-1
 399 482 l 1,15,-1
 376 439 l 1,16,-1
 190 439 l 1,17,-1
 190 351 l 1,18,-1
 348 351 l 1,19,-1
 324 309 l 1,20,-1
 190 309 l 1,21,-1
 190 143 l 2,22,23
 190 97 190 97 210.5 72.5 c 128,-1,24
 231 48 231 48 266 48 c 0,25,26
 294 48 294 48 322 63 c 128,-1,27
 350 78 350 78 386 110 c 1,28,-1
 408 84 l 1,29,30
 376 53 376 53 350 34 c 128,-1,31
 324 15 324 15 295 2.5 c 128,-1,32
 266 -10 266 -10 233 -10 c 1,33,-1
 233 -10 l 1,0,1
EndSplineSet
Validated: 1048581
Substitution2: "sous-table 'smcp' Bas-de-casse vers petites capitales dans Latin lookup 38" tbar.sc
AlternateSubs2: "sous-table 'aalt' Activer toutes les variantes dans Latin lookup 0" tbar.sc
EndChar

StartChar: uni0163
Encoding: 355 355 291
Width: 406
GlyphClass: 2
Flags: W
AnchorPoint: "Ancre-14" 381 750 basechar 0
AnchorPoint: "Ancre-13" 18 363 basechar 0
AnchorPoint: "Ancre-12" 243 0 basechar 0
LayerCount: 2
Fore
SplineSet
159 -224 m 1,0,1
 205 -207 205 -207 225 -189 c 128,-1,2
 245 -171 245 -171 245 -149 c 0,3,4
 245 -125 245 -125 224 -107.5 c 128,-1,5
 203 -90 203 -90 163 -83 c 1,6,-1
 212 -9 l 1,7,8
 161 -3 161 -3 129.5 31.5 c 128,-1,9
 98 66 98 66 98 122 c 2,10,-1
 98 439 l 1,11,-1
 0 439 l 1,12,-1
 0 444 l 1,13,-1
 185 578 l 1,14,-1
 190 578 l 1,15,-1
 190 482 l 1,16,-1
 399 482 l 1,17,-1
 376 439 l 1,18,-1
 190 439 l 1,19,-1
 190 143 l 2,20,21
 190 97 190 97 210.5 72.5 c 128,-1,22
 231 48 231 48 266 48 c 0,23,24
 294 48 294 48 322 63 c 128,-1,25
 350 78 350 78 386 110 c 1,26,-1
 408 84 l 1,27,28
 363 41 363 41 326 17.5 c 128,-1,29
 289 -6 289 -6 247 -9 c 1,30,-1
 220 -49 l 1,31,32
 262 -60 262 -60 287 -83.5 c 128,-1,33
 312 -107 312 -107 312 -138 c 0,34,35
 312 -164 312 -164 294.5 -182 c 128,-1,36
 277 -200 277 -200 249 -213.5 c 128,-1,37
 221 -227 221 -227 169 -246 c 1,38,-1
 159 -224 l 1,39,-1
 159 -224 l 1,0,1
EndSplineSet
Validated: 1048581
Substitution2: "sous-table 'smcp' Bas-de-casse vers petites capitales dans Latin lookup 38" uni0163.sc
Substitution2: "sous-table 'locl' Formes localis+AOkA-es g+AOkA-ographiquement dans Latin lookup 15" uni021B
AlternateSubs2: "sous-table 'aalt' Activer toutes les variantes dans Latin lookup 0" uni021B uni0163.sc
EndChar

StartChar: u
Encoding: 117 117 293
Width: 554
GlyphClass: 2
Flags: W
AnchorPoint: "Ancre-11" 282 500 basechar 0
AnchorPoint: "Ancre-10" 390 0 basechar 0
AnchorPoint: "Ancre-4" 534 500 basechar 0
AnchorPoint: "Ancre-3" 277 500 basechar 0
AnchorPoint: "Ancre-2" 277 0 basechar 0
LayerCount: 2
Fore
SplineSet
374 59 m 1,0,1
 298 -10 298 -10 219 -10 c 0,2,3
 178 -10 178 -10 148 9 c 128,-1,4
 118 28 118 28 102 61.5 c 128,-1,5
 86 95 86 95 86 137 c 2,6,-1
 86 411 l 1,7,-1
 35 445 l 1,8,-1
 35 450 l 1,9,-1
 178 489 l 1,10,-1
 178 153 l 2,11,12
 178 105 178 105 199 79.5 c 128,-1,13
 220 54 220 54 259 54 c 0,14,15
 284 54 284 54 311.5 64.5 c 128,-1,16
 339 75 339 75 374 99 c 1,17,-1
 374 411 l 1,18,-1
 323 445 l 1,19,-1
 323 450 l 1,20,-1
 466 489 l 1,21,-1
 466 63 l 1,22,-1
 517 4 l 1,23,-1
 517 0 l 1,24,-1
 374 0 l 1,25,-1
 374 59 l 1,0,1
EndSplineSet
Validated: 1048577
Substitution2: "sous-table 'smcp' Bas-de-casse vers petites capitales dans Latin lookup 38" u.sc
AlternateSubs2: "sous-table 'aalt' Activer toutes les variantes dans Latin lookup 0" u.sc
EndChar

StartChar: uogonek
Encoding: 371 371 301
Width: 554
GlyphClass: 2
Flags: W
AnchorPoint: "Ancre-11" 282 500 basechar 0
AnchorPoint: "Ancre-10" 390 0 basechar 0
LayerCount: 2
Fore
SplineSet
537 4 m 1,0,-1
 537 0 l 1,1,-1
 400 0 l 1,2,3
 381 -29 381 -29 369 -62 c 128,-1,4
 357 -95 357 -95 357 -125 c 0,5,6
 357 -153 357 -153 369 -166 c 128,-1,7
 381 -179 381 -179 399 -179 c 0,8,9
 408 -179 408 -179 418 -175.5 c 128,-1,10
 428 -172 428 -172 439 -164 c 1,11,-1
 454 -181 l 1,12,13
 432 -202 432 -202 412 -212 c 128,-1,14
 392 -222 392 -222 368 -222 c 0,15,16
 346 -222 346 -222 327 -212.5 c 128,-1,17
 308 -203 308 -203 297 -183.5 c 128,-1,18
 286 -164 286 -164 286 -137 c 0,19,20
 286 -99 286 -99 308 -58 c 128,-1,21
 330 -17 330 -17 374 19 c 1,22,-1
 374 59 l 1,23,24
 298 -10 298 -10 219 -10 c 0,25,26
 178 -10 178 -10 148 9 c 128,-1,27
 118 28 118 28 102 61.5 c 128,-1,28
 86 95 86 95 86 137 c 2,29,-1
 86 411 l 1,30,-1
 15 445 l 1,31,-1
 15 450 l 1,32,-1
 178 489 l 1,33,-1
 178 153 l 2,34,35
 178 105 178 105 199 79.5 c 128,-1,36
 220 54 220 54 259 54 c 0,37,38
 284 54 284 54 311.5 64.5 c 128,-1,39
 339 75 339 75 374 99 c 1,40,-1
 374 411 l 1,41,-1
 303 445 l 1,42,-1
 303 450 l 1,43,-1
 466 489 l 1,44,-1
 466 63 l 1,45,-1
 537 4 l 1,0,-1
EndSplineSet
Validated: 1048577
Substitution2: "sous-table 'smcp' Bas-de-casse vers petites capitales dans Latin lookup 38" uogonek.sc
AlternateSubs2: "sous-table 'aalt' Activer toutes les variantes dans Latin lookup 0" uogonek.sc
EndChar

StartChar: v
Encoding: 118 118 304
Width: 529
GlyphClass: 1
Flags: W
LayerCount: 2
Fore
SplineSet
45 419 m 1,0,-1
 13 478 l 1,1,-1
 13 482 l 1,2,-1
 220 482 l 1,3,-1
 220 479 l 1,4,-1
 146 424 l 1,5,-1
 294 128 l 1,6,-1
 429 424 l 1,7,-1
 353 479 l 1,8,-1
 353 482 l 1,9,-1
 506 482 l 1,10,-1
 506 478 l 1,11,-1
 476 419 l 1,12,-1
 280 -14 l 1,13,-1
 260 -14 l 1,14,-1
 45 419 l 1,0,-1
EndSplineSet
Validated: 1
Substitution2: "sous-table 'smcp' Bas-de-casse vers petites capitales dans Latin lookup 38" v.sc
AlternateSubs2: "sous-table 'aalt' Activer toutes les variantes dans Latin lookup 0" v.sc
EndChar

StartChar: w
Encoding: 119 119 305
Width: 720
GlyphClass: 2
Flags: W
AnchorPoint: "Ancre-11" 378 500 basechar 0
AnchorPoint: "Ancre-3" 366 500 basechar 0
AnchorPoint: "Ancre-2" 360 0 basechar 0
LayerCount: 2
Fore
SplineSet
364 318 m 1,0,-1
 244 -14 l 1,1,-1
 225 -14 l 1,2,-1
 40 419 l 1,3,-1
 10 478 l 1,4,-1
 10 482 l 1,5,-1
 194 482 l 1,6,-1
 194 478 l 1,7,-1
 137 424 l 1,8,-1
 258 147 l 1,9,-1
 340 378 l 1,10,-1
 283 457 l 1,11,-1
 384 513 l 1,12,-1
 529 158 l 1,13,-1
 620 424 l 1,14,-1
 558 478 l 1,15,-1
 558 482 l 1,16,-1
 688 482 l 1,17,-1
 688 478 l 1,18,-1
 665 419 l 1,19,-1
 519 -14 l 1,20,-1
 499 -14 l 1,21,-1
 364 318 l 1,0,-1
EndSplineSet
Validated: 1048577
Substitution2: "sous-table 'ss06' Jeu stylistique 6 dans Latin lookup 46" w.ss06
Substitution2: "sous-table 'smcp' Bas-de-casse vers petites capitales dans Latin lookup 38" w.sc
AlternateSubs2: "sous-table 'aalt' Activer toutes les variantes dans Latin lookup 0" w.sc w.ss06
EndChar

StartChar: x
Encoding: 120 120 310
Width: 513
GlyphClass: 1
Flags: W
LayerCount: 2
Fore
SplineSet
293 4 m 1,0,-1
 346 58 l 1,1,-1
 233 205 l 1,2,-1
 126 58 l 1,3,-1
 181 4 l 1,4,-1
 181 0 l 1,5,-1
 26 0 l 1,6,-1
 26 4 l 1,7,-1
 74 63 l 1,8,-1
 205 244 l 1,9,-1
 72 419 l 1,10,-1
 20 478 l 1,11,-1
 20 482 l 1,12,-1
 236 482 l 1,13,-1
 236 479 l 1,14,-1
 183 424 l 1,15,-1
 278 304 l 1,16,-1
 368 424 l 1,17,-1
 313 479 l 1,18,-1
 313 482 l 1,19,-1
 463 482 l 1,20,-1
 463 478 l 1,21,-1
 415 419 l 1,22,-1
 303 269 l 1,23,-1
 457 63 l 1,24,-1
 499 4 l 1,25,-1
 499 0 l 1,26,-1
 293 0 l 1,27,-1
 293 4 l 1,0,-1
EndSplineSet
Validated: 1
Substitution2: "sous-table 'smcp' Bas-de-casse vers petites capitales dans Latin lookup 38" x.sc
Substitution2: "sous-table Substitution simple lookups6" multiply.case
AlternateSubs2: "sous-table 'aalt' Activer toutes les variantes dans Latin lookup 0" x.sc
EndChar

StartChar: y
Encoding: 121 121 311
Width: 524
GlyphClass: 2
Flags: W
AnchorPoint: "Ancre-11" 288 500 basechar 0
AnchorPoint: "Ancre-3" 273 500 basechar 0
AnchorPoint: "Ancre-2" 262 0 basechar 0
LayerCount: 2
Fore
SplineSet
249 6 m 1,0,-1
 42 419 l 1,1,-1
 8 478 l 1,2,-1
 8 482 l 1,3,-1
 205 482 l 1,4,-1
 205 479 l 1,5,-1
 141 424 l 1,6,-1
 293 121 l 1,7,-1
 418 424 l 1,8,-1
 351 479 l 1,9,-1
 351 482 l 1,10,-1
 494 482 l 1,11,-1
 494 478 l 1,12,-1
 464 419 l 1,13,-1
 212 -208 l 1,14,-1
 119 -208 l 1,15,-1
 249 6 l 1,0,-1
EndSplineSet
Validated: 1048577
Substitution2: "sous-table 'smcp' Bas-de-casse vers petites capitales dans Latin lookup 38" y.sc
AlternateSubs2: "sous-table 'aalt' Activer toutes les variantes dans Latin lookup 0" y.sc
EndChar

StartChar: z
Encoding: 122 122 318
Width: 461
GlyphClass: 2
Flags: W
AnchorPoint: "Ancre-13" 86 286 basechar 0
AnchorPoint: "Ancre-11" 246 500 basechar 0
AnchorPoint: "Ancre-3" 237 500 basechar 0
AnchorPoint: "Ancre-2" 231 0 basechar 0
LayerCount: 2
Fore
SplineSet
28 5 m 1,0,-1
 290 439 l 1,1,-1
 136 439 l 1,2,-1
 52 353 l 1,3,-1
 47 353 l 1,4,-1
 64 482 l 1,5,-1
 418 482 l 1,6,-1
 418 477 l 1,7,-1
 156 43 l 1,8,-1
 336 43 l 1,9,-1
 415 137 l 1,10,-1
 420 137 l 1,11,-1
 409 0 l 1,12,-1
 28 0 l 1,13,-1
 28 5 l 1,0,-1
EndSplineSet
Validated: 1048577
Substitution2: "sous-table 'smcp' Bas-de-casse vers petites capitales dans Latin lookup 38" z.sc
AlternateSubs2: "sous-table 'aalt' Activer toutes les variantes dans Latin lookup 0" z.sc
EndChar

StartChar: uni01B6
Encoding: 438 438 322
Width: 461
GlyphClass: 2
Flags: W
AnchorPoint: "Ancre-13" 86 286 basechar 0
AnchorPoint: "Ancre-11" 246 500 basechar 0
LayerCount: 2
Fore
SplineSet
28 5 m 1,0,-1
 166 234 l 1,1,-1
 60 234 l 1,2,-1
 83 277 l 1,3,-1
 192 277 l 1,4,-1
 290 439 l 1,5,-1
 136 439 l 1,6,-1
 42 323 l 1,7,-1
 37 323 l 1,8,-1
 64 482 l 1,9,-1
 418 482 l 1,10,-1
 418 477 l 1,11,-1
 297 277 l 1,12,-1
 413 277 l 1,13,-1
 390 234 l 1,14,-1
 271 234 l 1,15,-1
 156 43 l 1,16,-1
 336 43 l 1,17,-1
 425 167 l 1,18,-1
 430 167 l 1,19,-1
 409 0 l 1,20,-1
 28 0 l 1,21,-1
 28 5 l 1,0,-1
EndSplineSet
Validated: 1048577
Substitution2: "sous-table 'smcp' Bas-de-casse vers petites capitales dans Latin lookup 38" uni01B6.sc
AlternateSubs2: "sous-table 'aalt' Activer toutes les variantes dans Latin lookup 0" uni01B6.sc
EndChar

StartChar: a.ss05
Encoding: 65578 -1 324
Width: 576
GlyphClass: 2
Flags: W
AnchorPoint: "Ancre-11" 291 500 basechar 0
AnchorPoint: "Ancre-10" 416 0 basechar 0
AnchorPoint: "Ancre-3" 280 500 basechar 0
AnchorPoint: "Ancre-2" 288 0 basechar 0
LayerCount: 2
Fore
SplineSet
562 4 m 1,0,-1
 562 0 l 1,1,-1
 399 0 l 1,2,-1
 399 59 l 1,3,4
 324 -10 324 -10 246 -10 c 0,5,6
 185 -10 185 -10 137 22 c 128,-1,7
 89 54 89 54 62.5 110.5 c 128,-1,8
 36 167 36 167 36 238 c 0,9,10
 36 314 36 314 68.5 372 c 128,-1,11
 101 430 101 430 155 462 c 128,-1,12
 209 494 209 494 272 494 c 0,13,14
 349 494 349 494 417 451 c 1,15,-1
 486 486 l 1,16,-1
 491 486 l 1,17,-1
 491 63 l 1,18,-1
 562 4 l 1,0,-1
135 262 m 1,19,20
 135 201 135 201 152.5 154 c 128,-1,21
 170 107 170 107 204.5 80.5 c 128,-1,22
 239 54 239 54 286 54 c 0,23,24
 310 54 310 54 339.5 65.5 c 128,-1,25
 369 77 369 77 399 99 c 1,26,-1
 399 293 l 2,27,28
 399 339 399 339 382 375 c 128,-1,29
 365 411 365 411 335 432 c 128,-1,30
 305 453 305 453 268 453 c 0,31,32
 228 453 228 453 197.5 429 c 128,-1,33
 167 405 167 405 151 361.5 c 128,-1,34
 135 318 135 318 135 262 c 1,35,-1
 135 262 l 1,19,20
EndSplineSet
Validated: 1048581
EndChar

StartChar: aogonek.ss05
Encoding: 65585 -1 331
Width: 576
GlyphClass: 2
Flags: W
AnchorPoint: "Ancre-11" 291 500 basechar 0
AnchorPoint: "Ancre-10" 416 0 basechar 0
LayerCount: 2
Fore
SplineSet
135 262 m 1,0,1
 135 201 135 201 152.5 154 c 128,-1,2
 170 107 170 107 204.5 80.5 c 128,-1,3
 239 54 239 54 286 54 c 0,4,5
 310 54 310 54 339.5 65.5 c 128,-1,6
 369 77 369 77 399 99 c 1,7,-1
 399 293 l 2,8,9
 399 339 399 339 382 375 c 128,-1,10
 365 411 365 411 335 432 c 128,-1,11
 305 453 305 453 268 453 c 0,12,13
 228 453 228 453 197.5 429 c 128,-1,14
 167 405 167 405 151 361.5 c 128,-1,15
 135 318 135 318 135 262 c 1,16,-1
 135 262 l 1,0,1
425 0 m 1,17,18
 407 -39 407 -39 394.5 -77 c 128,-1,19
 382 -115 382 -115 382 -145 c 0,20,21
 382 -173 382 -173 394.5 -186 c 128,-1,22
 407 -199 407 -199 424 -199 c 0,23,24
 434 -199 434 -199 443.5 -195.5 c 128,-1,25
 453 -192 453 -192 465 -184 c 1,26,-1
 479 -201 l 1,27,28
 457 -222 457 -222 437 -232 c 128,-1,29
 417 -242 417 -242 393 -242 c 0,30,31
 371 -242 371 -242 352 -232.5 c 128,-1,32
 333 -223 333 -223 322 -203.5 c 128,-1,33
 311 -184 311 -184 311 -157 c 0,34,35
 311 -119 311 -119 333 -78 c 128,-1,36
 355 -37 355 -37 399 19 c 1,37,-1
 399 59 l 1,38,39
 324 -10 324 -10 246 -10 c 0,40,41
 185 -10 185 -10 137 22 c 128,-1,42
 89 54 89 54 62.5 110.5 c 128,-1,43
 36 167 36 167 36 238 c 0,44,45
 36 314 36 314 68.5 372 c 128,-1,46
 101 430 101 430 155 462 c 128,-1,47
 209 494 209 494 272 494 c 0,48,49
 349 494 349 494 417 451 c 1,50,-1
 486 486 l 1,51,-1
 491 486 l 1,52,-1
 491 63 l 1,53,-1
 562 4 l 1,54,-1
 562 0 l 1,55,-1
 425 0 l 1,56,-1
 425 0 l 1,17,18
EndSplineSet
Validated: 1048581
EndChar

StartChar: w.ss06
Encoding: 65588 -1 334
Width: 720
GlyphClass: 2
Flags: W
AnchorPoint: "Ancre-11" 384 500 basechar 0
AnchorPoint: "Ancre-3" 373 500 basechar 0
AnchorPoint: "Ancre-2" 360 0 basechar 0
LayerCount: 2
Fore
SplineSet
40 419 m 1,0,-1
 -20 478 l 1,1,-1
 -20 482 l 1,2,-1
 214 482 l 1,3,-1
 214 479 l 1,4,-1
 137 424 l 1,5,-1
 255 155 l 1,6,-1
 365 496 l 1,7,-1
 384 496 l 1,8,-1
 529 155 l 1,9,-1
 620 424 l 1,10,-1
 538 479 l 1,11,-1
 538 482 l 1,12,-1
 718 482 l 1,13,-1
 718 478 l 1,14,-1
 664 419 l 1,15,-1
 519 -14 l 1,16,-1
 499 -14 l 1,17,-1
 355 328 l 1,18,-1
 244 -14 l 1,19,-1
 225 -14 l 1,20,-1
 40 419 l 1,0,-1
EndSplineSet
Validated: 1048577
EndChar

StartChar: f_b
Encoding: 65593 -1 339
Width: 935
GlyphClass: 3
Flags: W
LayerCount: 2
Fore
SplineSet
30 4 m 1,0,-1
 108 63 l 1,1,-1
 108 439 l 1,2,-1
 7 439 l 1,3,-1
 7 444 l 1,4,-1
 108 482 l 1,5,6
 109 575 109 575 159.5 637 c 128,-1,7
 210 699 210 699 293.5 728 c 128,-1,8
 377 757 377 757 477 757 c 0,9,10
 517 757 517 757 536 755 c 1,11,-1
 536 425 l 1,12,13
 611 494 611 494 689 494 c 0,14,15
 750 494 750 494 798 462 c 128,-1,16
 846 430 846 430 872.5 373.5 c 128,-1,17
 899 317 899 317 899 246 c 0,18,19
 899 170 899 170 866.5 112 c 128,-1,20
 834 54 834 54 780 22 c 128,-1,21
 726 -10 726 -10 663 -10 c 0,22,23
 554 -10 554 -10 444 66 c 1,24,-1
 444 678 l 1,25,26
 427 687 427 687 404 692 c 128,-1,27
 381 697 381 697 358 697 c 0,28,29
 316 697 316 697 279.5 679 c 128,-1,30
 243 661 243 661 221.5 626.5 c 128,-1,31
 200 592 200 592 200 546 c 2,32,-1
 200 482 l 1,33,-1
 387 482 l 1,34,-1
 364 439 l 1,35,-1
 200 439 l 1,36,-1
 200 63 l 1,37,-1
 296 4 l 1,38,-1
 296 0 l 1,39,-1
 30 0 l 1,40,-1
 30 4 l 1,0,-1
536 195 m 1,41,42
 536 145 536 145 553 108 c 128,-1,43
 570 71 570 71 600 51 c 128,-1,44
 630 31 630 31 667 31 c 0,45,46
 707 31 707 31 737.5 55 c 128,-1,47
 768 79 768 79 784.5 122.5 c 128,-1,48
 801 166 801 166 801 222 c 0,49,50
 801 283 801 283 783 330 c 128,-1,51
 765 377 765 377 730.5 403.5 c 128,-1,52
 696 430 696 430 650 430 c 0,53,54
 625 430 625 430 595.5 418.5 c 128,-1,55
 566 407 566 407 536 385 c 1,56,-1
 536 195 l 1,57,-1
 536 195 l 1,41,42
EndSplineSet
Validated: 5
Ligature2: "sous-table 'dlig' Ligatures facultatives  dans Latin lookup 47" f b
Ligature2: "sous-table 'liga' Ligatures standard dans Latin lookup 23" f b
EndChar

StartChar: f_f
Encoding: 65594 -1 340
Width: 711
GlyphClass: 3
Flags: W
LayerCount: 2
Fore
SplineSet
200 63 m 1,0,-1
 296 4 l 1,1,-1
 296 0 l 1,2,-1
 30 0 l 1,3,-1
 30 4 l 1,4,-1
 108 63 l 1,5,-1
 108 439 l 1,6,-1
 7 439 l 1,7,-1
 7 444 l 1,8,-1
 108 482 l 1,9,10
 109 565 109 565 152.5 627.5 c 128,-1,11
 196 690 196 690 266 722.5 c 128,-1,12
 336 755 336 755 415 755 c 1,13,-1
 430 628 l 1,14,-1
 425 628 l 1,15,16
 382 690 382 690 318 690 c 0,17,18
 287 690 287 690 259.5 675.5 c 128,-1,19
 232 661 232 661 216 632.5 c 128,-1,20
 200 604 200 604 200 564 c 2,21,-1
 200 482 l 1,22,-1
 444 482 l 1,23,24
 445 565 445 565 488 627.5 c 128,-1,25
 531 690 531 690 601.5 722.5 c 128,-1,26
 672 755 672 755 751 755 c 1,27,-1
 766 628 l 1,28,-1
 761 628 l 1,29,30
 718 690 718 690 654 690 c 0,31,32
 622 690 622 690 595 675.5 c 128,-1,33
 568 661 568 661 552 632.5 c 128,-1,34
 536 604 536 604 536 564 c 2,35,-1
 536 482 l 1,36,-1
 723 482 l 1,37,-1
 700 439 l 1,38,-1
 536 439 l 1,39,-1
 536 63 l 1,40,-1
 632 4 l 1,41,-1
 632 0 l 1,42,-1
 366 0 l 1,43,-1
 366 4 l 1,44,-1
 444 63 l 1,45,-1
 444 439 l 1,46,-1
 200 439 l 1,47,-1
 200 63 l 1,0,-1
EndSplineSet
Validated: 1
Ligature2: "sous-table 'liga' Ligatures standard dans Latin lookup 23" f f
EndChar

StartChar: f_f_b
Encoding: 65595 -1 341
Width: 1271
GlyphClass: 3
Flags: W
LayerCount: 2
Fore
SplineSet
200 63 m 1,0,-1
 296 4 l 1,1,-1
 296 0 l 1,2,-1
 30 0 l 1,3,-1
 30 4 l 1,4,-1
 108 63 l 1,5,-1
 108 439 l 1,6,-1
 7 439 l 1,7,-1
 7 444 l 1,8,-1
 108 482 l 1,9,10
 109 565 109 565 152.5 627.5 c 128,-1,11
 196 690 196 690 266 722.5 c 128,-1,12
 336 755 336 755 415 755 c 1,13,-1
 430 628 l 1,14,-1
 425 628 l 1,15,16
 382 690 382 690 318 690 c 0,17,18
 287 690 287 690 259.5 675.5 c 128,-1,19
 232 661 232 661 216 632.5 c 128,-1,20
 200 604 200 604 200 564 c 2,21,-1
 200 482 l 1,22,-1
 444 482 l 1,23,24
 445 575 445 575 495.5 637 c 128,-1,25
 546 699 546 699 629 728 c 128,-1,26
 712 757 712 757 813 757 c 0,27,28
 853 757 853 757 872 755 c 1,29,-1
 872 425 l 1,30,31
 947 494 947 494 1025 494 c 0,32,33
 1086 494 1086 494 1134 462 c 128,-1,34
 1182 430 1182 430 1208.5 373.5 c 128,-1,35
 1235 317 1235 317 1235 246 c 0,36,37
 1235 170 1235 170 1202.5 112 c 128,-1,38
 1170 54 1170 54 1116 22 c 128,-1,39
 1062 -10 1062 -10 999 -10 c 0,40,41
 890 -10 890 -10 780 66 c 1,42,-1
 780 678 l 1,43,44
 763 687 763 687 740 692 c 128,-1,45
 717 697 717 697 694 697 c 0,46,47
 651 697 651 697 615 679 c 128,-1,48
 579 661 579 661 557.5 626.5 c 128,-1,49
 536 592 536 592 536 546 c 2,50,-1
 536 482 l 1,51,-1
 723 482 l 1,52,-1
 700 439 l 1,53,-1
 536 439 l 1,54,-1
 536 63 l 1,55,-1
 632 4 l 1,56,-1
 632 0 l 1,57,-1
 366 0 l 1,58,-1
 366 4 l 1,59,-1
 444 63 l 1,60,-1
 444 439 l 1,61,-1
 200 439 l 1,62,-1
 200 63 l 1,0,-1
872 195 m 1,63,64
 872 145 872 145 889 108 c 128,-1,65
 906 71 906 71 936 51 c 128,-1,66
 966 31 966 31 1003 31 c 0,67,68
 1043 31 1043 31 1073.5 55 c 128,-1,69
 1104 79 1104 79 1120 122.5 c 128,-1,70
 1136 166 1136 166 1136 222 c 0,71,72
 1136 283 1136 283 1118.5 330 c 128,-1,73
 1101 377 1101 377 1066.5 403.5 c 128,-1,74
 1032 430 1032 430 985 430 c 0,75,76
 961 430 961 430 931.5 418.5 c 128,-1,77
 902 407 902 407 872 385 c 1,78,-1
 872 195 l 1,79,-1
 872 195 l 1,63,64
EndSplineSet
Validated: 5
Ligature2: "sous-table 'dlig' Ligatures facultatives  dans Latin lookup 47" f f b
Ligature2: "sous-table 'liga' Ligatures standard dans Latin lookup 23" f f b
EndChar

StartChar: f_f_h
Encoding: 65596 -1 342
Width: 1254
GlyphClass: 3
Flags: W
LayerCount: 2
Fore
SplineSet
200 63 m 1,0,-1
 296 4 l 1,1,-1
 296 0 l 1,2,-1
 30 0 l 1,3,-1
 30 4 l 1,4,-1
 108 63 l 1,5,-1
 108 439 l 1,6,-1
 7 439 l 1,7,-1
 7 444 l 1,8,-1
 108 482 l 1,9,10
 109 565 109 565 152.5 627.5 c 128,-1,11
 196 690 196 690 266 722.5 c 128,-1,12
 336 755 336 755 415 755 c 1,13,-1
 430 628 l 1,14,-1
 425 628 l 1,15,16
 382 690 382 690 318 690 c 0,17,18
 287 690 287 690 259.5 675.5 c 128,-1,19
 232 661 232 661 216 632.5 c 128,-1,20
 200 604 200 604 200 564 c 2,21,-1
 200 482 l 1,22,-1
 444 482 l 1,23,24
 445 575 445 575 495.5 637 c 128,-1,25
 546 699 546 699 629 728 c 128,-1,26
 712 757 712 757 813 757 c 0,27,28
 853 757 853 757 872 755 c 1,29,-1
 872 425 l 1,30,31
 909 458 909 458 948 476 c 128,-1,32
 987 494 987 494 1028 494 c 256,33,34
 1069 494 1069 494 1100 475 c 128,-1,35
 1131 456 1131 456 1148 422.5 c 128,-1,36
 1165 389 1165 389 1165 347 c 2,37,-1
 1165 63 l 1,38,-1
 1243 4 l 1,39,-1
 1243 0 l 1,40,-1
 994 0 l 1,41,-1
 994 4 l 1,42,-1
 1073 63 l 1,43,-1
 1073 331 l 2,44,45
 1073 379 1073 379 1053 404.5 c 128,-1,46
 1033 430 1033 430 990 430 c 0,47,48
 937 430 937 430 872 385 c 1,49,-1
 872 63 l 1,50,-1
 951 4 l 1,51,-1
 951 0 l 1,52,-1
 702 0 l 1,53,-1
 702 4 l 1,54,-1
 780 63 l 1,55,-1
 780 678 l 1,56,57
 763 687 763 687 740 692 c 128,-1,58
 717 697 717 697 694 697 c 0,59,60
 651 697 651 697 615 679 c 128,-1,61
 579 661 579 661 557.5 626.5 c 128,-1,62
 536 592 536 592 536 546 c 2,63,-1
 536 482 l 1,64,-1
 723 482 l 1,65,-1
 700 439 l 1,66,-1
 536 439 l 1,67,-1
 536 63 l 1,68,-1
 632 4 l 1,69,-1
 632 0 l 1,70,-1
 366 0 l 1,71,-1
 366 4 l 1,72,-1
 444 63 l 1,73,-1
 444 439 l 1,74,-1
 200 439 l 1,75,-1
 200 63 l 1,0,-1
EndSplineSet
Validated: 1
Ligature2: "sous-table 'dlig' Ligatures facultatives  dans Latin lookup 47" f f h
Ligature2: "sous-table 'liga' Ligatures standard dans Latin lookup 23" f f h
EndChar

StartChar: f_f_i
Encoding: 65597 -1 343
Width: 943
GlyphClass: 3
Flags: W
LayerCount: 2
Fore
SplineSet
200 63 m 1,0,-1
 296 4 l 1,1,-1
 296 0 l 1,2,-1
 30 0 l 1,3,-1
 30 4 l 1,4,-1
 108 63 l 1,5,-1
 108 439 l 1,6,-1
 7 439 l 1,7,-1
 7 444 l 1,8,-1
 108 482 l 1,9,10
 109 565 109 565 152.5 627.5 c 128,-1,11
 196 690 196 690 266 722.5 c 128,-1,12
 336 755 336 755 415 755 c 1,13,-1
 430 628 l 1,14,-1
 425 628 l 1,15,16
 382 690 382 690 318 690 c 0,17,18
 287 690 287 690 259.5 675.5 c 128,-1,19
 232 661 232 661 216 632.5 c 128,-1,20
 200 604 200 604 200 564 c 2,21,-1
 200 482 l 1,22,-1
 445 482 l 1,23,-1
 445 486 l 2,24,25
 445 568 445 568 487.5 630 c 128,-1,26
 530 692 530 692 591.5 723.5 c 128,-1,27
 653 755 653 755 709 755 c 0,28,29
 753 755 753 755 787 740 c 128,-1,30
 821 725 821 725 839 703 c 128,-1,31
 857 681 857 681 857 662 c 0,32,33
 857 639 857 639 844.5 626.5 c 128,-1,34
 832 614 832 614 812 614 c 0,35,36
 793 614 793 614 781 623 c 128,-1,37
 769 632 769 632 748 657 c 0,38,39
 729 681 729 681 706 691.5 c 128,-1,40
 683 702 683 702 650 702 c 0,41,42
 619 702 619 702 593 688 c 128,-1,43
 567 674 567 674 552 648 c 128,-1,44
 537 622 537 622 537 589 c 2,45,-1
 537 482 l 1,46,-1
 850 482 l 1,47,-1
 850 63 l 1,48,-1
 928 4 l 1,49,-1
 928 0 l 1,50,-1
 680 0 l 1,51,-1
 680 4 l 1,52,-1
 758 63 l 1,53,-1
 758 439 l 1,54,-1
 537 439 l 1,55,-1
 537 63 l 1,56,-1
 633 4 l 1,57,-1
 633 0 l 1,58,-1
 367 0 l 1,59,-1
 367 4 l 1,60,-1
 445 63 l 1,61,-1
 445 439 l 1,62,-1
 200 439 l 1,63,-1
 200 63 l 1,0,-1
EndSplineSet
Validated: 1
Ligature2: "sous-table 'liga' Ligatures standard dans Latin lookup 23" f f i
EndChar

StartChar: f_f_j
Encoding: 65598 -1 344
Width: 921
GlyphClass: 3
Flags: W
LayerCount: 2
Fore
SplineSet
200 63 m 1,0,-1
 296 4 l 1,1,-1
 296 0 l 1,2,-1
 30 0 l 1,3,-1
 30 4 l 1,4,-1
 108 63 l 1,5,-1
 108 439 l 1,6,-1
 7 439 l 1,7,-1
 7 444 l 1,8,-1
 108 482 l 1,9,10
 109 565 109 565 152.5 627.5 c 128,-1,11
 196 690 196 690 266 722.5 c 128,-1,12
 336 755 336 755 415 755 c 1,13,-1
 430 628 l 1,14,-1
 425 628 l 1,15,16
 382 690 382 690 318 690 c 0,17,18
 287 690 287 690 259.5 675.5 c 128,-1,19
 232 661 232 661 216 632.5 c 128,-1,20
 200 604 200 604 200 564 c 2,21,-1
 200 482 l 1,22,-1
 444 482 l 1,23,-1
 444 486 l 2,24,25
 444 568 444 568 486.5 630 c 128,-1,26
 529 692 529 692 590.5 723.5 c 128,-1,27
 652 755 652 755 708 755 c 0,28,29
 752 755 752 755 786 740 c 128,-1,30
 820 725 820 725 838 703 c 128,-1,31
 856 681 856 681 856 662 c 0,32,33
 856 639 856 639 843.5 626.5 c 128,-1,34
 831 614 831 614 811 614 c 0,35,36
 792 614 792 614 780 623 c 128,-1,37
 768 632 768 632 747 657 c 0,38,39
 728 681 728 681 705 691.5 c 128,-1,40
 682 702 682 702 650 702 c 256,41,42
 618 702 618 702 592 688 c 128,-1,43
 566 674 566 674 551 648 c 128,-1,44
 536 622 536 622 536 589 c 2,45,-1
 536 482 l 1,46,-1
 849 482 l 1,47,-1
 849 -16 l 2,48,49
 849 -50 849 -50 840 -73.5 c 128,-1,50
 831 -97 831 -97 806 -123 c 128,-1,51
 781 -149 781 -149 730 -193 c 2,52,-1
 672 -242 l 1,53,-1
 648 -217 l 1,54,-1
 654 -211 l 1,55,56
 710 -163 710 -163 733.5 -122.5 c 128,-1,57
 757 -82 757 -82 757 -33 c 2,58,-1
 757 439 l 1,59,-1
 536 439 l 1,60,-1
 536 63 l 1,61,-1
 632 4 l 1,62,-1
 632 0 l 1,63,-1
 366 0 l 1,64,-1
 366 4 l 1,65,-1
 444 63 l 1,66,-1
 444 439 l 1,67,-1
 200 439 l 1,68,-1
 200 63 l 1,0,-1
EndSplineSet
Validated: 1
Ligature2: "sous-table 'dlig' Ligatures facultatives  dans Latin lookup 47" f f j
Ligature2: "sous-table 'liga' Ligatures standard dans Latin lookup 23" f f j
EndChar

StartChar: f_f_k
Encoding: 65599 -1 345
Width: 1251
GlyphClass: 3
Flags: W
LayerCount: 2
Fore
SplineSet
200 63 m 1,0,-1
 296 4 l 1,1,-1
 296 0 l 1,2,-1
 30 0 l 1,3,-1
 30 4 l 1,4,-1
 108 63 l 1,5,-1
 108 439 l 1,6,-1
 7 439 l 1,7,-1
 7 444 l 1,8,-1
 108 482 l 1,9,10
 109 565 109 565 152.5 627.5 c 128,-1,11
 196 690 196 690 266 722.5 c 128,-1,12
 336 755 336 755 415 755 c 1,13,-1
 430 628 l 1,14,-1
 425 628 l 1,15,16
 382 690 382 690 318 690 c 0,17,18
 287 690 287 690 259.5 675.5 c 128,-1,19
 232 661 232 661 216 632.5 c 128,-1,20
 200 604 200 604 200 564 c 2,21,-1
 200 482 l 1,22,-1
 444 482 l 1,23,24
 445 575 445 575 495.5 637 c 128,-1,25
 546 699 546 699 629 728 c 128,-1,26
 712 757 712 757 813 757 c 0,27,28
 853 757 853 757 872 755 c 1,29,-1
 872 63 l 1,30,-1
 951 4 l 1,31,-1
 951 0 l 1,32,-1
 702 0 l 1,33,-1
 702 4 l 1,34,-1
 780 63 l 1,35,-1
 780 678 l 1,36,37
 763 687 763 687 740 692 c 128,-1,38
 717 697 717 697 694 697 c 0,39,40
 651 697 651 697 615 679 c 128,-1,41
 579 661 579 661 557.5 626.5 c 128,-1,42
 536 592 536 592 536 546 c 2,43,-1
 536 482 l 1,44,-1
 723 482 l 1,45,-1
 700 439 l 1,46,-1
 536 439 l 1,47,-1
 536 63 l 1,48,-1
 632 4 l 1,49,-1
 632 0 l 1,50,-1
 366 0 l 1,51,-1
 366 4 l 1,52,-1
 444 63 l 1,53,-1
 444 439 l 1,54,-1
 200 439 l 1,55,-1
 200 63 l 1,0,-1
1083 426 m 1,56,-1
 1033 481 l 1,57,-1
 1033 484 l 1,58,-1
 1246 484 l 1,59,-1
 1246 480 l 1,60,-1
 1141 421 l 1,61,-1
 989 304 l 1,62,-1
 1259 0 l 1,63,-1
 1141 0 l 1,64,-1
 894 278 l 1,65,-1
 1083 426 l 1,56,-1
EndSplineSet
Validated: 1
Ligature2: "sous-table 'dlig' Ligatures facultatives  dans Latin lookup 47" f f k
Ligature2: "sous-table 'liga' Ligatures standard dans Latin lookup 23" f f k
EndChar

StartChar: f_f_l
Encoding: 65600 -1 346
Width: 965
GlyphClass: 3
Flags: W
LayerCount: 2
Fore
SplineSet
200 63 m 1,0,-1
 296 4 l 1,1,-1
 296 0 l 1,2,-1
 30 0 l 1,3,-1
 30 4 l 1,4,-1
 108 63 l 1,5,-1
 108 439 l 1,6,-1
 7 439 l 1,7,-1
 7 444 l 1,8,-1
 108 482 l 1,9,10
 109 565 109 565 152.5 627.5 c 128,-1,11
 196 690 196 690 266 722.5 c 128,-1,12
 336 755 336 755 415 755 c 1,13,-1
 430 628 l 1,14,-1
 425 628 l 1,15,16
 382 690 382 690 318 690 c 0,17,18
 287 690 287 690 259.5 675.5 c 128,-1,19
 232 661 232 661 216 632.5 c 128,-1,20
 200 604 200 604 200 564 c 2,21,-1
 200 482 l 1,22,-1
 444 482 l 1,23,24
 445 575 445 575 495.5 637 c 128,-1,25
 546 699 546 699 629 728 c 128,-1,26
 712 757 712 757 813 757 c 0,27,28
 853 757 853 757 872 755 c 1,29,-1
 872 63 l 1,30,-1
 951 4 l 1,31,-1
 951 0 l 1,32,-1
 702 0 l 1,33,-1
 702 4 l 1,34,-1
 780 63 l 1,35,-1
 780 678 l 1,36,37
 763 687 763 687 740 692 c 128,-1,38
 717 697 717 697 694 697 c 0,39,40
 651 697 651 697 615 679 c 128,-1,41
 579 661 579 661 557.5 626.5 c 128,-1,42
 536 592 536 592 536 546 c 2,43,-1
 536 482 l 1,44,-1
 723 482 l 1,45,-1
 700 439 l 1,46,-1
 536 439 l 1,47,-1
 536 63 l 1,48,-1
 632 4 l 1,49,-1
 632 0 l 1,50,-1
 366 0 l 1,51,-1
 366 4 l 1,52,-1
 444 63 l 1,53,-1
 444 439 l 1,54,-1
 200 439 l 1,55,-1
 200 63 l 1,0,-1
EndSplineSet
Validated: 1
Ligature2: "sous-table 'liga' Ligatures standard dans Latin lookup 23" f f l
EndChar

StartChar: f_f_t
Encoding: 65601 -1 347
Width: 1065
GlyphClass: 3
Flags: W
LayerCount: 2
Fore
SplineSet
200 63 m 1,0,-1
 296 4 l 1,1,-1
 296 0 l 1,2,-1
 30 0 l 1,3,-1
 30 4 l 1,4,-1
 108 63 l 1,5,-1
 108 439 l 1,6,-1
 7 439 l 1,7,-1
 7 444 l 1,8,-1
 108 482 l 1,9,10
 109 565 109 565 152.5 627.5 c 128,-1,11
 196 690 196 690 266 722.5 c 128,-1,12
 336 755 336 755 415 755 c 1,13,-1
 430 628 l 1,14,-1
 425 628 l 1,15,16
 382 690 382 690 318 690 c 0,17,18
 287 690 287 690 259.5 675.5 c 128,-1,19
 232 661 232 661 216 632.5 c 128,-1,20
 200 604 200 604 200 564 c 2,21,-1
 200 482 l 1,22,-1
 444 482 l 1,23,24
 445 565 445 565 488 627.5 c 128,-1,25
 531 690 531 690 601.5 722.5 c 128,-1,26
 672 755 672 755 751 755 c 1,27,-1
 766 628 l 1,28,-1
 761 628 l 1,29,30
 718 690 718 690 654 690 c 0,31,32
 622 690 622 690 595 675.5 c 128,-1,33
 568 661 568 661 552 632.5 c 128,-1,34
 536 604 536 604 536 564 c 2,35,-1
 536 482 l 1,36,-1
 712 482 l 1,37,-1
 844 578 l 1,38,-1
 849 578 l 1,39,-1
 849 482 l 1,40,-1
 1058 482 l 1,41,-1
 1035 439 l 1,42,-1
 849 439 l 1,43,-1
 849 143 l 2,44,45
 849 97 849 97 870 72.5 c 128,-1,46
 891 48 891 48 925 48 c 0,47,48
 953 48 953 48 981.5 63 c 128,-1,49
 1010 78 1010 78 1045 110 c 1,50,-1
 1068 84 l 1,51,52
 1035 53 1035 53 1009 34 c 128,-1,53
 983 15 983 15 954 2.5 c 128,-1,54
 925 -10 925 -10 892 -10 c 0,55,56
 854 -10 854 -10 823 5.5 c 128,-1,57
 792 21 792 21 774.5 50.5 c 128,-1,58
 757 80 757 80 757 122 c 2,59,-1
 757 439 l 1,60,-1
 536 439 l 1,61,-1
 536 63 l 1,62,-1
 632 4 l 1,63,-1
 632 0 l 1,64,-1
 366 0 l 1,65,-1
 366 4 l 1,66,-1
 444 63 l 1,67,-1
 444 439 l 1,68,-1
 200 439 l 1,69,-1
 200 63 l 1,0,-1
EndSplineSet
Validated: 1
Ligature2: "sous-table 'dlig' Ligatures facultatives  dans Latin lookup 47" f f t
Ligature2: "sous-table 'liga' Ligatures standard dans Latin lookup 23" f f t
EndChar

StartChar: f_h
Encoding: 65602 -1 348
Width: 918
GlyphClass: 3
Flags: W
LayerCount: 2
Fore
SplineSet
30 4 m 1,0,-1
 108 63 l 1,1,-1
 108 439 l 1,2,-1
 7 439 l 1,3,-1
 7 444 l 1,4,-1
 108 482 l 1,5,6
 109 575 109 575 159.5 637 c 128,-1,7
 210 699 210 699 293.5 728 c 128,-1,8
 377 757 377 757 477 757 c 0,9,10
 517 757 517 757 536 755 c 1,11,-1
 536 425 l 1,12,13
 573 458 573 458 612 476 c 128,-1,14
 651 494 651 494 692 494 c 256,15,16
 733 494 733 494 764 475 c 128,-1,17
 795 456 795 456 812 422.5 c 128,-1,18
 829 389 829 389 829 347 c 2,19,-1
 829 63 l 1,20,-1
 907 4 l 1,21,-1
 907 0 l 1,22,-1
 658 0 l 1,23,-1
 658 4 l 1,24,-1
 737 63 l 1,25,-1
 737 331 l 2,26,27
 737 379 737 379 717 404.5 c 128,-1,28
 697 430 697 430 654 430 c 0,29,30
 601 430 601 430 536 385 c 1,31,-1
 536 63 l 1,32,-1
 615 4 l 1,33,-1
 615 0 l 1,34,-1
 366 0 l 1,35,-1
 366 4 l 1,36,-1
 444 63 l 1,37,-1
 444 678 l 1,38,39
 427 687 427 687 404 692 c 128,-1,40
 381 697 381 697 358 697 c 0,41,42
 316 697 316 697 279.5 679 c 128,-1,43
 243 661 243 661 221.5 626.5 c 128,-1,44
 200 592 200 592 200 546 c 2,45,-1
 200 482 l 1,46,-1
 387 482 l 1,47,-1
 364 439 l 1,48,-1
 200 439 l 1,49,-1
 200 63 l 1,50,-1
 296 4 l 1,51,-1
 296 0 l 1,52,-1
 30 0 l 1,53,-1
 30 4 l 1,0,-1
EndSplineSet
Validated: 1
Ligature2: "sous-table 'dlig' Ligatures facultatives  dans Latin lookup 47" f h
Ligature2: "sous-table 'liga' Ligatures standard dans Latin lookup 23" f h
EndChar

StartChar: f_j
Encoding: 65603 -1 349
Width: 585
GlyphClass: 3
Flags: W
LayerCount: 2
Fore
SplineSet
30 4 m 1,0,-1
 108 63 l 1,1,-1
 108 439 l 1,2,-1
 7 439 l 1,3,-1
 7 444 l 1,4,-1
 108 482 l 1,5,-1
 108 486 l 2,6,7
 108 568 108 568 151 630 c 128,-1,8
 194 692 194 692 255.5 723.5 c 128,-1,9
 317 755 317 755 372 755 c 0,10,11
 416 755 416 755 450 740 c 128,-1,12
 484 725 484 725 502 703 c 128,-1,13
 520 681 520 681 520 662 c 0,14,15
 520 639 520 639 507.5 626.5 c 128,-1,16
 495 614 495 614 475 614 c 0,17,18
 456 614 456 614 444 623 c 128,-1,19
 432 632 432 632 411 657 c 0,20,21
 392 681 392 681 369.5 691.5 c 128,-1,22
 347 702 347 702 314 702 c 0,23,24
 282 702 282 702 256 688 c 128,-1,25
 230 674 230 674 215 648 c 128,-1,26
 200 622 200 622 200 589 c 2,27,-1
 200 482 l 1,28,-1
 513 482 l 1,29,-1
 513 -16 l 2,30,31
 513 -50 513 -50 504 -73.5 c 128,-1,32
 495 -97 495 -97 470 -123 c 128,-1,33
 445 -149 445 -149 394 -193 c 2,34,-1
 336 -242 l 1,35,-1
 312 -217 l 1,36,-1
 318 -211 l 1,37,38
 374 -163 374 -163 397.5 -122.5 c 128,-1,39
 421 -82 421 -82 421 -33 c 2,40,-1
 421 439 l 1,41,-1
 200 439 l 1,42,-1
 200 63 l 1,43,-1
 296 4 l 1,44,-1
 296 0 l 1,45,-1
 30 0 l 1,46,-1
 30 4 l 1,0,-1
EndSplineSet
Validated: 1
Ligature2: "sous-table 'dlig' Ligatures facultatives  dans Latin lookup 47" f j
Ligature2: "sous-table 'liga' Ligatures standard dans Latin lookup 23" f j
EndChar

StartChar: f_k
Encoding: 65604 -1 350
Width: 915
GlyphClass: 3
Flags: W
LayerCount: 2
Fore
SplineSet
30 4 m 1,0,-1
 108 63 l 1,1,-1
 108 439 l 1,2,-1
 7 439 l 1,3,-1
 7 444 l 1,4,-1
 108 482 l 1,5,6
 109 575 109 575 159.5 637 c 128,-1,7
 210 699 210 699 293.5 728 c 128,-1,8
 377 757 377 757 477 757 c 0,9,10
 517 757 517 757 536 755 c 1,11,-1
 536 63 l 1,12,-1
 615 4 l 1,13,-1
 615 0 l 1,14,-1
 366 0 l 1,15,-1
 366 4 l 1,16,-1
 444 63 l 1,17,-1
 444 678 l 1,18,19
 427 687 427 687 404 692 c 128,-1,20
 381 697 381 697 358 697 c 0,21,22
 316 697 316 697 279.5 679 c 128,-1,23
 243 661 243 661 221.5 626.5 c 128,-1,24
 200 592 200 592 200 546 c 2,25,-1
 200 482 l 1,26,-1
 387 482 l 1,27,-1
 364 439 l 1,28,-1
 200 439 l 1,29,-1
 200 63 l 1,30,-1
 296 4 l 1,31,-1
 296 0 l 1,32,-1
 30 0 l 1,33,-1
 30 4 l 1,0,-1
747 424 m 1,34,-1
 697 478 l 1,35,-1
 697 482 l 1,36,-1
 910 482 l 1,37,-1
 910 477 l 1,38,-1
 805 419 l 1,39,-1
 653 304 l 1,40,-1
 923 0 l 1,41,-1
 805 0 l 1,42,-1
 559 278 l 1,43,-1
 747 424 l 1,34,-1
EndSplineSet
Validated: 1
Ligature2: "sous-table 'dlig' Ligatures facultatives  dans Latin lookup 47" f k
Ligature2: "sous-table 'liga' Ligatures standard dans Latin lookup 23" f k
EndChar

StartChar: f_t
Encoding: 65605 -1 351
Width: 729
GlyphClass: 3
Flags: W
LayerCount: 2
Fore
SplineSet
30 4 m 1,0,-1
 108 63 l 1,1,-1
 108 439 l 1,2,-1
 7 439 l 1,3,-1
 7 444 l 1,4,-1
 108 482 l 1,5,6
 109 565 109 565 152.5 627.5 c 128,-1,7
 196 690 196 690 266 722.5 c 128,-1,8
 336 755 336 755 415 755 c 1,9,-1
 430 628 l 1,10,-1
 425 628 l 1,11,12
 382 690 382 690 318 690 c 0,13,14
 287 690 287 690 259.5 675.5 c 128,-1,15
 232 661 232 661 216 632.5 c 128,-1,16
 200 604 200 604 200 564 c 2,17,-1
 200 482 l 1,18,-1
 377 482 l 1,19,-1
 508 578 l 1,20,-1
 513 578 l 1,21,-1
 513 482 l 1,22,-1
 722 482 l 1,23,-1
 699 439 l 1,24,-1
 513 439 l 1,25,-1
 513 143 l 2,26,27
 513 97 513 97 534 72.5 c 128,-1,28
 555 48 555 48 590 48 c 0,29,30
 618 48 618 48 646 63 c 128,-1,31
 674 78 674 78 710 110 c 1,32,-1
 732 84 l 1,33,34
 699 53 699 53 673.5 34 c 128,-1,35
 648 15 648 15 619 2.5 c 128,-1,36
 590 -10 590 -10 557 -10 c 0,37,38
 518 -10 518 -10 487 5.5 c 128,-1,39
 456 21 456 21 438.5 50.5 c 128,-1,40
 421 80 421 80 421 122 c 2,41,-1
 421 439 l 1,42,-1
 200 439 l 1,43,-1
 200 63 l 1,44,-1
 296 4 l 1,45,-1
 296 0 l 1,46,-1
 30 0 l 1,47,-1
 30 4 l 1,0,-1
EndSplineSet
Validated: 1
Ligature2: "sous-table 'dlig' Ligatures facultatives  dans Latin lookup 47" f t
Ligature2: "sous-table 'liga' Ligatures standard dans Latin lookup 23" f t
EndChar

StartChar: fi
Encoding: 64257 64257 352
Width: 605
GlyphClass: 3
Flags: W
LayerCount: 2
Fore
SplineSet
31 4 m 1,0,-1
 109 63 l 1,1,-1
 109 439 l 1,2,-1
 8 439 l 1,3,-1
 8 444 l 1,4,-1
 109 482 l 1,5,-1
 109 486 l 2,6,7
 109 568 109 568 152 630 c 128,-1,8
 195 692 195 692 256.5 723.5 c 128,-1,9
 318 755 318 755 373 755 c 0,10,11
 417 755 417 755 451 740 c 128,-1,12
 485 725 485 725 503 703 c 128,-1,13
 521 681 521 681 521 662 c 0,14,15
 521 639 521 639 508.5 626.5 c 128,-1,16
 496 614 496 614 476 614 c 0,17,18
 457 614 457 614 445 623 c 128,-1,19
 433 632 433 632 412 657 c 0,20,21
 393 681 393 681 370.5 691.5 c 128,-1,22
 348 702 348 702 315 702 c 0,23,24
 283 702 283 702 257 688 c 128,-1,25
 231 674 231 674 216 648 c 128,-1,26
 201 622 201 622 201 589 c 2,27,-1
 201 482 l 1,28,-1
 514 482 l 1,29,-1
 514 63 l 1,30,-1
 592 4 l 1,31,-1
 592 0 l 1,32,-1
 344 0 l 1,33,-1
 344 4 l 1,34,-1
 422 63 l 1,35,-1
 422 439 l 1,36,-1
 201 439 l 1,37,-1
 201 63 l 1,38,-1
 297 4 l 1,39,-1
 297 0 l 1,40,-1
 31 0 l 1,41,-1
 31 4 l 1,0,-1
EndSplineSet
Validated: 1
Ligature2: "sous-table 'liga' Ligatures standard dans Latin lookup 23" f i
MultipleSubs2: "sous-table 'ccmp' Composition et d+AOkA-composition de glyphe (CJC) dans Latin lookup 12" f i
EndChar

StartChar: fl
Encoding: 64258 64258 353
Width: 629
GlyphClass: 3
Flags: W
LayerCount: 2
Fore
SplineSet
30 4 m 1,0,-1
 108 63 l 1,1,-1
 108 439 l 1,2,-1
 7 439 l 1,3,-1
 7 444 l 1,4,-1
 108 482 l 1,5,6
 109 575 109 575 159.5 637 c 128,-1,7
 210 699 210 699 293.5 728 c 128,-1,8
 377 757 377 757 477 757 c 0,9,10
 517 757 517 757 536 755 c 1,11,-1
 536 63 l 1,12,-1
 615 4 l 1,13,-1
 615 0 l 1,14,-1
 366 0 l 1,15,-1
 366 4 l 1,16,-1
 444 63 l 1,17,-1
 444 678 l 1,18,19
 427 687 427 687 404 692 c 128,-1,20
 381 697 381 697 358 697 c 0,21,22
 316 697 316 697 279.5 679 c 128,-1,23
 243 661 243 661 221.5 626.5 c 128,-1,24
 200 592 200 592 200 546 c 2,25,-1
 200 482 l 1,26,-1
 387 482 l 1,27,-1
 364 439 l 1,28,-1
 200 439 l 1,29,-1
 200 63 l 1,30,-1
 296 4 l 1,31,-1
 296 0 l 1,32,-1
 30 0 l 1,33,-1
 30 4 l 1,0,-1
EndSplineSet
Validated: 1
Ligature2: "sous-table 'liga' Ligatures standard dans Latin lookup 23" f l
MultipleSubs2: "sous-table 'ccmp' Composition et d+AOkA-composition de glyphe (CJC) dans Latin lookup 12" f l
EndChar

StartChar: w_w_w
Encoding: 65606 -1 354
Width: 1820
GlyphClass: 3
Flags: W
LayerCount: 2
Fore
SplineSet
40 419 m 1,0,-1
 -20 478 l 1,1,-1
 -20 482 l 1,2,-1
 214 482 l 1,3,-1
 214 478 l 1,4,-1
 137 424 l 1,5,-1
 255 155 l 1,6,-1
 365 498 l 1,7,-1
 384 498 l 1,8,-1
 529 155 l 1,9,-1
 639 498 l 1,10,-1
 662 498 l 1,11,-1
 804 155 l 1,12,-1
 915 498 l 1,13,-1
 934 498 l 1,14,-1
 1078 155 l 1,15,-1
 1189 498 l 1,16,-1
 1212 498 l 1,17,-1
 1354 155 l 1,18,-1
 1465 498 l 1,19,-1
 1484 498 l 1,20,-1
 1628 155 l 1,21,-1
 1719 424 l 1,22,-1
 1638 478 l 1,23,-1
 1638 482 l 1,24,-1
 1818 482 l 1,25,-1
 1818 478 l 1,26,-1
 1762 419 l 1,27,-1
 1618 -14 l 1,28,-1
 1599 -14 l 1,29,-1
 1455 330 l 1,30,-1
 1344 -14 l 1,31,-1
 1324 -14 l 1,32,-1
 1180 334 l 1,33,-1
 1069 -14 l 1,34,-1
 1049 -14 l 1,35,-1
 905 330 l 1,36,-1
 794 -14 l 1,37,-1
 774 -14 l 1,38,-1
 630 336 l 1,39,-1
 519 -14 l 1,40,-1
 499 -14 l 1,41,-1
 355 330 l 1,42,-1
 244 -14 l 1,43,-1
 225 -14 l 1,44,-1
 40 419 l 1,0,-1
EndSplineSet
Validated: 1
Ligature2: "sous-table 'dlig' Ligatures facultatives  dans Latin lookup 47" w w w
Ligature2: "sous-table 'liga' Ligatures standard dans Latin lookup 23" w w w
EndChar

StartChar: a.sc
Encoding: 65607 -1 355
Width: 656
GlyphClass: 2
Flags: W
AnchorPoint: "Ancre-11" 291 600 basechar 0
AnchorPoint: "Ancre-10" 549 0 basechar 0
LayerCount: 2
Fore
SplineSet
417 4 m 1,0,-1
 492 60 l 1,1,-1
 424 185 l 1,2,-1
 173 185 l 1,3,-1
 115 62 l 1,4,-1
 188 4 l 1,5,-1
 188 0 l 1,6,-1
 2 0 l 1,7,-1
 2 4 l 1,8,-1
 66 65 l 1,9,-1
 268 496 l 1,10,-1
 228 576 l 1,11,-1
 315 625 l 1,12,-1
 601 65 l 1,13,-1
 668 4 l 1,14,-1
 668 0 l 1,15,-1
 417 0 l 1,16,-1
 417 4 l 1,0,-1
402 229 m 1,17,-1
 293 447 l 1,18,-1
 193 229 l 1,19,-1
 402 229 l 1,17,-1
EndSplineSet
Validated: 1048577
Substitution2: "sous-table 'ss01' Jeu stylistique 1 dans Latin lookup 41" a.sc.ss01
AlternateSubs2: "sous-table 'aalt' Activer toutes les variantes dans Latin lookup 0" a.sc.ss01
EndChar

StartChar: aogonek.sc
Encoding: 65614 -1 362
Width: 656
GlyphClass: 2
Flags: W
AnchorPoint: "Ancre-11" 291 600 basechar 0
AnchorPoint: "Ancre-10" 549 0 basechar 0
LayerCount: 2
Fore
SplineSet
417 4 m 1,0,-1
 492 60 l 1,1,-1
 424 185 l 1,2,-1
 173 185 l 1,3,-1
 115 62 l 1,4,-1
 188 4 l 1,5,-1
 188 0 l 1,6,-1
 2 0 l 1,7,-1
 2 4 l 1,8,-1
 66 65 l 1,9,-1
 268 496 l 1,10,-1
 228 576 l 1,11,-1
 315 625 l 1,12,-1
 601 65 l 1,13,-1
 668 4 l 1,14,-1
 668 0 l 1,15,-1
 570 0 l 1,16,17
 544 -59 544 -59 544 -97 c 0,18,19
 544 -113 544 -113 551.5 -121 c 128,-1,20
 559 -129 559 -129 569 -129 c 0,21,22
 580 -129 580 -129 591 -121 c 1,23,-1
 603 -137 l 1,24,25
 586 -153 586 -153 572 -160 c 128,-1,26
 558 -167 558 -167 541 -167 c 0,27,28
 517 -167 517 -167 499.5 -151.5 c 128,-1,29
 482 -136 482 -136 482 -108 c 0,30,31
 482 -85 482 -85 494.5 -59.5 c 128,-1,32
 507 -34 507 -34 533 0 c 1,33,-1
 417 0 l 1,34,-1
 417 4 l 1,0,-1
402 229 m 1,35,-1
 293 447 l 1,36,-1
 193 229 l 1,37,-1
 402 229 l 1,35,-1
EndSplineSet
Validated: 1048577
Substitution2: "sous-table 'ss01' Jeu stylistique 1 dans Latin lookup 41" aogonek.sc.ss01
AlternateSubs2: "sous-table 'aalt' Activer toutes les variantes dans Latin lookup 0" aogonek.sc.ss01
EndChar

StartChar: ae.sc
Encoding: 65617 -1 365
Width: 941
GlyphClass: 2
Flags: W
AnchorPoint: "Ancre-11" 616 600 basechar 0
LayerCount: 2
Fore
SplineSet
370 4 m 1,0,-1
 451 53 l 1,1,-1
 451 202 l 1,2,-1
 230 202 l 1,3,-1
 123 62 l 1,4,-1
 179 4 l 1,5,-1
 179 0 l 1,6,-1
 -13 0 l 1,7,-1
 -13 4 l 1,8,-1
 66 65 l 1,9,-1
 423 541 l 1,10,-1
 352 596 l 1,11,-1
 352 600 l 1,12,-1
 833 600 l 1,13,-1
 893 411 l 1,14,-1
 889 411 l 1,15,-1
 743 556 l 1,16,-1
 551 556 l 1,17,-1
 551 332 l 1,18,-1
 706 332 l 1,19,-1
 774 431 l 1,20,-1
 780 431 l 1,21,-1
 780 189 l 1,22,-1
 774 189 l 1,23,-1
 706 288 l 1,24,-1
 551 288 l 1,25,-1
 551 44 l 1,26,-1
 766 44 l 1,27,-1
 912 189 l 1,28,-1
 916 189 l 1,29,-1
 856 0 l 1,30,-1
 370 0 l 1,31,-1
 370 4 l 1,0,-1
451 246 m 1,32,-1
 451 500 l 1,33,-1
 263 246 l 1,34,-1
 451 246 l 1,32,-1
EndSplineSet
Validated: 1048577
EndChar

StartChar: b.sc
Encoding: 65620 -1 368
Width: 601
GlyphClass: 1
Flags: W
LayerCount: 2
Fore
SplineSet
29 4 m 1,0,-1
 110 65 l 1,1,-1
 110 535 l 1,2,-1
 29 596 l 1,3,-1
 29 600 l 1,4,-1
 298 600 l 2,5,6
 360 600 360 600 412.5 582.5 c 128,-1,7
 465 565 465 565 496 532.5 c 128,-1,8
 527 500 527 500 527 456 c 0,9,10
 527 410 527 410 490.5 375 c 128,-1,11
 454 340 454 340 393 321 c 1,12,13
 471 307 471 307 520.5 271 c 128,-1,14
 570 235 570 235 570 176 c 0,15,16
 570 127 570 127 541 86.5 c 128,-1,17
 512 46 512 46 458.5 23 c 128,-1,18
 405 0 405 0 335 0 c 2,19,-1
 29 0 l 1,20,-1
 29 4 l 1,0,-1
310 44 m 2,21,22
 385 44 385 44 423 77.5 c 128,-1,23
 461 111 461 111 461 170 c 256,24,25
 461 229 461 229 423 262.5 c 128,-1,26
 385 296 385 296 310 296 c 2,27,-1
 210 296 l 1,28,-1
 210 44 l 1,29,-1
 310 44 l 2,21,22
293 340 m 2,30,31
 331 340 331 340 359 354 c 128,-1,32
 387 368 387 368 402.5 392.5 c 128,-1,33
 418 417 418 417 418 449 c 256,34,35
 418 481 418 481 403 505 c 128,-1,36
 388 529 388 529 359.5 542.5 c 128,-1,37
 331 556 331 556 293 556 c 2,38,-1
 210 556 l 1,39,-1
 210 340 l 1,40,-1
 293 340 l 2,30,31
EndSplineSet
Validated: 1
EndChar

StartChar: c.sc
Encoding: 65621 -1 369
Width: 629
GlyphClass: 2
Flags: W
AnchorPoint: "Ancre-12" 345 0 basechar 0
AnchorPoint: "Ancre-11" 345 600 basechar 0
LayerCount: 2
Fore
SplineSet
350 -10 m 1,0,1
 268 -10 268 -10 195.5 28.5 c 128,-1,2
 123 67 123 67 79.5 136 c 128,-1,3
 36 205 36 205 36 294 c 0,4,5
 36 381 36 381 80 453.5 c 128,-1,6
 124 526 124 526 198.5 568 c 128,-1,7
 273 610 273 610 361 610 c 0,8,9
 413 610 413 610 457 600.5 c 128,-1,10
 501 591 501 591 564 569 c 1,11,-1
 587 387 l 1,12,-1
 582 387 l 1,13,14
 549 450 549 450 515 489 c 128,-1,15
 481 528 481 528 440.5 547.5 c 128,-1,16
 400 567 400 567 348 567 c 0,17,18
 285 567 285 567 236.5 535 c 128,-1,19
 188 503 188 503 161 449.5 c 128,-1,20
 134 396 134 396 134 333 c 0,21,22
 134 251 134 251 168.5 190.5 c 128,-1,23
 203 130 203 130 259 98 c 128,-1,24
 315 66 315 66 378 66 c 0,25,26
 484 66 484 66 578 167 c 1,27,-1
 606 144 l 1,28,29
 566 96 566 96 529 63 c 128,-1,30
 492 30 492 30 447.5 10 c 128,-1,31
 403 -10 403 -10 350 -10 c 1,32,-1
 350 -10 l 1,0,1
EndSplineSet
Validated: 1048581
EndChar

StartChar: ccedilla.sc
Encoding: 65624 -1 372
Width: 629
GlyphClass: 2
Flags: W
AnchorPoint: "Ancre-12" 345 0 basechar 0
AnchorPoint: "Ancre-11" 345 600 basechar 0
LayerCount: 2
Fore
SplineSet
285 -152 m 1,0,1
 318 -140 318 -140 331.5 -128.5 c 128,-1,2
 345 -117 345 -117 345 -102 c 256,3,4
 345 -87 345 -87 331 -75 c 128,-1,5
 317 -63 317 -63 291 -58 c 1,6,-1
 324 -9 l 1,7,8
 246 -3 246 -3 180 36.5 c 128,-1,9
 114 76 114 76 75 143 c 128,-1,10
 36 210 36 210 36 294 c 0,11,12
 36 381 36 381 80 453.5 c 128,-1,13
 124 526 124 526 198.5 568 c 128,-1,14
 273 610 273 610 361 610 c 0,15,16
 413 610 413 610 457 600.5 c 128,-1,17
 501 591 501 591 564 569 c 1,18,-1
 587 387 l 1,19,-1
 582 387 l 1,20,21
 549 450 549 450 515 489 c 128,-1,22
 481 528 481 528 440.5 547.5 c 128,-1,23
 400 567 400 567 348 567 c 0,24,25
 285 567 285 567 236.5 535 c 128,-1,26
 188 503 188 503 161 449.5 c 128,-1,27
 134 396 134 396 134 333 c 0,28,29
 134 251 134 251 168.5 190.5 c 128,-1,30
 203 130 203 130 259 98 c 128,-1,31
 315 66 315 66 378 66 c 0,32,33
 484 66 484 66 578 167 c 1,34,-1
 606 144 l 1,35,36
 566 97 566 97 529.5 64 c 128,-1,37
 493 31 493 31 449 10.5 c 128,-1,38
 405 -10 405 -10 353 -10 c 1,39,-1
 338 -32 l 1,40,41
 368 -39 368 -39 385.5 -55 c 128,-1,42
 403 -71 403 -71 403 -93 c 0,43,44
 403 -112 403 -112 389 -125 c 128,-1,45
 375 -138 375 -138 357 -146.5 c 128,-1,46
 339 -155 339 -155 294 -172 c 1,47,-1
 285 -152 l 1,48,-1
 285 -152 l 1,0,1
EndSplineSet
Validated: 1048581
EndChar

StartChar: d.sc
Encoding: 65627 -1 375
Width: 688
GlyphClass: 2
Flags: W
AnchorPoint: "Ancre-13" 46 332 basechar 0
AnchorPoint: "Ancre-11" 328 600 basechar 0
LayerCount: 2
Fore
SplineSet
29 4 m 1,0,-1
 110 65 l 1,1,-1
 110 535 l 1,2,-1
 29 596 l 1,3,-1
 29 600 l 1,4,-1
 314 600 l 2,5,6
 407 600 407 600 484.5 563 c 128,-1,7
 562 526 562 526 607 460 c 128,-1,8
 652 394 652 394 652 310 c 0,9,10
 652 225 652 225 606.5 154 c 128,-1,11
 561 83 561 83 483.5 41.5 c 128,-1,12
 406 0 406 0 314 0 c 2,13,-1
 29 0 l 1,14,-1
 29 4 l 1,0,-1
314 44 m 2,15,16
 384 44 384 44 435.5 75 c 128,-1,17
 487 106 487 106 515 164 c 128,-1,18
 543 222 543 222 543 300 c 256,19,20
 543 378 543 378 515 436 c 128,-1,21
 487 494 487 494 435.5 525 c 128,-1,22
 384 556 384 556 314 556 c 2,23,-1
 210 556 l 1,24,-1
 210 44 l 1,25,-1
 314 44 l 2,15,16
EndSplineSet
Validated: 1048577
EndChar

StartChar: eth.sc
Encoding: 65628 -1 376
Width: 688
GlyphClass: 2
Flags: W
AnchorPoint: "Ancre-13" 46 332 basechar 0
AnchorPoint: "Ancre-11" 328 600 basechar 0
LayerCount: 2
Fore
SplineSet
29 4 m 1,0,-1
 110 65 l 1,1,-1
 110 290 l 1,2,-1
 23 290 l 1,3,-1
 46 332 l 1,4,-1
 110 332 l 1,5,-1
 110 535 l 1,6,-1
 29 596 l 1,7,-1
 29 600 l 1,8,-1
 314 600 l 2,9,10
 407 600 407 600 484.5 563 c 128,-1,11
 562 526 562 526 607 460 c 128,-1,12
 652 394 652 394 652 310 c 0,13,14
 652 225 652 225 606.5 154 c 128,-1,15
 561 83 561 83 483.5 41.5 c 128,-1,16
 406 0 406 0 314 0 c 2,17,-1
 29 0 l 1,18,-1
 29 4 l 1,0,-1
314 44 m 2,19,20
 384 44 384 44 435.5 75 c 128,-1,21
 487 106 487 106 515 164 c 128,-1,22
 543 222 543 222 543 300 c 256,23,24
 543 378 543 378 515 436 c 128,-1,25
 487 494 487 494 435.5 525 c 128,-1,26
 384 556 384 556 314 556 c 2,27,-1
 210 556 l 1,28,-1
 210 332 l 1,29,-1
 384 332 l 1,30,-1
 362 290 l 1,31,-1
 210 290 l 1,32,-1
 210 44 l 1,33,-1
 314 44 l 2,19,20
EndSplineSet
Validated: 1048577
EndChar

StartChar: e.sc
Encoding: 65631 -1 379
Width: 600
GlyphClass: 2
Flags: W
AnchorPoint: "Ancre-11" 304 600 basechar 0
AnchorPoint: "Ancre-10" 432 0 basechar 0
LayerCount: 2
Fore
SplineSet
29 4 m 1,0,-1
 110 65 l 1,1,-1
 110 535 l 1,2,-1
 29 596 l 1,3,-1
 29 600 l 1,4,-1
 492 600 l 1,5,-1
 552 411 l 1,6,-1
 548 411 l 1,7,-1
 402 556 l 1,8,-1
 210 556 l 1,9,-1
 210 332 l 1,10,-1
 365 332 l 1,11,-1
 433 431 l 1,12,-1
 439 431 l 1,13,-1
 439 189 l 1,14,-1
 433 189 l 1,15,-1
 365 288 l 1,16,-1
 210 288 l 1,17,-1
 210 44 l 1,18,-1
 425 44 l 1,19,-1
 571 189 l 1,20,-1
 575 189 l 1,21,-1
 515 0 l 1,22,-1
 29 0 l 1,23,-1
 29 4 l 1,0,-1
EndSplineSet
Validated: 1048577
EndChar

StartChar: eogonek.sc
Encoding: 65640 -1 388
Width: 600
GlyphClass: 2
Flags: W
AnchorPoint: "Ancre-11" 304 600 basechar 0
AnchorPoint: "Ancre-10" 432 0 basechar 0
LayerCount: 2
Fore
SplineSet
29 4 m 1,0,-1
 110 65 l 1,1,-1
 110 535 l 1,2,-1
 29 596 l 1,3,-1
 29 600 l 1,4,-1
 492 600 l 1,5,-1
 552 411 l 1,6,-1
 548 411 l 1,7,-1
 402 556 l 1,8,-1
 210 556 l 1,9,-1
 210 332 l 1,10,-1
 370 332 l 1,11,-1
 433 431 l 1,12,-1
 439 431 l 1,13,-1
 439 189 l 1,14,-1
 433 189 l 1,15,-1
 370 288 l 1,16,-1
 210 288 l 1,17,-1
 210 44 l 1,18,-1
 425 44 l 1,19,-1
 571 189 l 1,20,-1
 575 189 l 1,21,-1
 515 0 l 1,22,-1
 453 0 l 1,23,24
 427 -59 427 -59 427 -97 c 0,25,26
 427 -113 427 -113 434.5 -121 c 128,-1,27
 442 -129 442 -129 452 -129 c 0,28,29
 463 -129 463 -129 474 -121 c 1,30,-1
 486 -137 l 1,31,32
 469 -153 469 -153 455 -160 c 128,-1,33
 441 -167 441 -167 424 -167 c 0,34,35
 400 -167 400 -167 382.5 -151.5 c 128,-1,36
 365 -136 365 -136 365 -108 c 0,37,38
 365 -85 365 -85 377.5 -59.5 c 128,-1,39
 390 -34 390 -34 416 0 c 1,40,-1
 29 0 l 1,41,-1
 29 4 l 1,0,-1
EndSplineSet
Validated: 1048577
EndChar

StartChar: uni0259.sc
Encoding: 65642 -1 390
Width: 620
GlyphClass: 1
Flags: W
LayerCount: 2
Fore
SplineSet
283 -10 m 1,0,1
 216 -10 216 -10 159.5 17.5 c 128,-1,2
 103 45 103 45 68.5 101 c 128,-1,3
 34 157 34 157 34 239 c 2,4,-1
 35 261 l 1,5,-1
 482 261 l 1,6,-1
 482 275 l 2,7,8
 482 354 482 354 454 414.5 c 128,-1,9
 426 475 426 475 378.5 508 c 128,-1,10
 331 541 331 541 272 541 c 0,11,12
 210 541 210 541 161.5 516 c 128,-1,13
 113 491 113 491 65 440 c 1,14,-1
 36 464 l 1,15,16
 91 531 91 531 154 570.5 c 128,-1,17
 217 610 217 610 296 610 c 0,18,19
 369 610 369 610 434.5 574.5 c 128,-1,20
 500 539 500 539 541.5 469.5 c 128,-1,21
 583 400 583 400 583 305 c 0,22,23
 583 214 583 214 540.5 142 c 128,-1,24
 498 70 498 70 429 30 c 128,-1,25
 360 -10 360 -10 283 -10 c 1,26,-1
 283 -10 l 1,0,1
143 203 m 1,27,28
 143 154 143 154 161 116.5 c 128,-1,29
 179 79 179 79 214.5 57.5 c 128,-1,30
 250 36 250 36 300 36 c 0,31,32
 373 36 373 36 419.5 83.5 c 128,-1,33
 466 131 466 131 478 217 c 1,34,-1
 144 217 l 1,35,36
 143 212 143 212 143 203 c 1,37,-1
 143 203 l 1,27,28
EndSplineSet
Validated: 5
EndChar

StartChar: f.sc
Encoding: 65643 -1 391
Width: 568
GlyphClass: 1
Flags: W
LayerCount: 2
Fore
SplineSet
29 4 m 1,0,-1
 110 65 l 1,1,-1
 110 535 l 1,2,-1
 29 596 l 1,3,-1
 29 600 l 1,4,-1
 500 600 l 1,5,-1
 560 411 l 1,6,-1
 556 411 l 1,7,-1
 410 556 l 1,8,-1
 210 556 l 1,9,-1
 210 327 l 1,10,-1
 362 327 l 1,11,-1
 430 426 l 1,12,-1
 436 426 l 1,13,-1
 436 184 l 1,14,-1
 430 184 l 1,15,-1
 362 283 l 1,16,-1
 210 283 l 1,17,-1
 210 65 l 1,18,-1
 309 4 l 1,19,-1
 309 0 l 1,20,-1
 29 0 l 1,21,-1
 29 4 l 1,0,-1
EndSplineSet
Validated: 1
EndChar

StartChar: g.sc
Encoding: 65644 -1 392
Width: 679
GlyphClass: 2
Flags: W
AnchorPoint: "Ancre-12" 352 0 basechar 0
AnchorPoint: "Ancre-11" 347 600 basechar 0
LayerCount: 2
Fore
SplineSet
349 -10 m 1,0,1
 266 -10 266 -10 194 29 c 128,-1,2
 122 68 122 68 79 137.5 c 128,-1,3
 36 207 36 207 36 294 c 256,4,5
 36 381 36 381 80 453.5 c 128,-1,6
 124 526 124 526 199 568 c 128,-1,7
 274 610 274 610 362 610 c 0,8,9
 414 610 414 610 457 601 c 128,-1,10
 500 592 500 592 564 570 c 1,11,-1
 586 395 l 1,12,-1
 581 395 l 1,13,14
 547 454 547 454 513.5 491.5 c 128,-1,15
 480 529 480 529 440 548 c 128,-1,16
 400 567 400 567 348 567 c 0,17,18
 285 567 285 567 236.5 535.5 c 128,-1,19
 188 504 188 504 161 450.5 c 128,-1,20
 134 397 134 397 134 334 c 0,21,22
 134 252 134 252 168.5 191.5 c 128,-1,23
 203 131 203 131 259 98.5 c 128,-1,24
 315 66 315 66 378 66 c 0,25,26
 416 66 416 66 452 77.5 c 128,-1,27
 488 89 488 89 518 107 c 1,28,-1
 518 278 l 1,29,-1
 321 278 l 1,30,-1
 346 322 l 1,31,-1
 618 322 l 1,32,-1
 618 0 l 1,33,-1
 613 0 l 1,34,-1
 531 68 l 1,35,36
 492 32 492 32 447 11 c 128,-1,37
 402 -10 402 -10 349 -10 c 1,38,-1
 349 -10 l 1,0,1
EndSplineSet
Validated: 1048581
EndChar

StartChar: h.sc
Encoding: 65651 -1 399
Width: 700
GlyphClass: 2
Flags: W
AnchorPoint: "Ancre-13" 350 446 basechar 0
AnchorPoint: "Ancre-11" 350 600 basechar 0
LayerCount: 2
Fore
SplineSet
409 4 m 1,0,-1
 490 65 l 1,1,-1
 490 288 l 1,2,-1
 210 288 l 1,3,-1
 210 65 l 1,4,-1
 291 4 l 1,5,-1
 291 0 l 1,6,-1
 29 0 l 1,7,-1
 29 4 l 1,8,-1
 110 65 l 1,9,-1
 110 535 l 1,10,-1
 29 596 l 1,11,-1
 29 600 l 1,12,-1
 291 600 l 1,13,-1
 291 596 l 1,14,-1
 210 535 l 1,15,-1
 210 332 l 1,16,-1
 490 332 l 1,17,-1
 490 535 l 1,18,-1
 409 596 l 1,19,-1
 409 600 l 1,20,-1
 671 600 l 1,21,-1
 671 596 l 1,22,-1
 590 535 l 1,23,-1
 590 65 l 1,24,-1
 671 4 l 1,25,-1
 671 0 l 1,26,-1
 409 0 l 1,27,-1
 409 4 l 1,0,-1
EndSplineSet
Validated: 1048577
EndChar

StartChar: hbar.sc
Encoding: 65652 -1 400
Width: 700
GlyphClass: 2
Flags: W
AnchorPoint: "Ancre-13" 350 446 basechar 0
AnchorPoint: "Ancre-11" 350 600 basechar 0
LayerCount: 2
Fore
SplineSet
409 4 m 1,0,-1
 490 65 l 1,1,-1
 490 288 l 1,2,-1
 210 288 l 1,3,-1
 210 65 l 1,4,-1
 291 4 l 1,5,-1
 291 0 l 1,6,-1
 29 0 l 1,7,-1
 29 4 l 1,8,-1
 110 65 l 1,9,-1
 110 429 l 1,10,-1
 28 429 l 1,11,-1
 48 464 l 1,12,-1
 110 464 l 1,13,-1
 110 535 l 1,14,-1
 29 596 l 1,15,-1
 29 600 l 1,16,-1
 291 600 l 1,17,-1
 291 596 l 1,18,-1
 210 535 l 1,19,-1
 210 464 l 1,20,-1
 490 464 l 1,21,-1
 490 535 l 1,22,-1
 409 596 l 1,23,-1
 409 600 l 1,24,-1
 671 600 l 1,25,-1
 671 596 l 1,26,-1
 590 535 l 1,27,-1
 590 464 l 1,28,-1
 671 464 l 1,29,-1
 651 429 l 1,30,-1
 590 429 l 1,31,-1
 590 65 l 1,32,-1
 671 4 l 1,33,-1
 671 0 l 1,34,-1
 409 0 l 1,35,-1
 409 4 l 1,0,-1
490 332 m 1,36,-1
 490 429 l 1,37,-1
 210 429 l 1,38,-1
 210 332 l 1,39,-1
 490 332 l 1,36,-1
EndSplineSet
Validated: 1048577
EndChar

StartChar: i.sc
Encoding: 65654 -1 402
Width: 320
GlyphClass: 2
Flags: W
AnchorPoint: "Ancre-11" 160 600 basechar 0
AnchorPoint: "Ancre-10" 159 0 basechar 0
LayerCount: 2
Fore
SplineSet
29 4 m 1,0,-1
 110 65 l 1,1,-1
 110 535 l 1,2,-1
 29 596 l 1,3,-1
 29 600 l 1,4,-1
 291 600 l 1,5,-1
 291 596 l 1,6,-1
 210 535 l 1,7,-1
 210 65 l 1,8,-1
 291 4 l 1,9,-1
 291 0 l 1,10,-1
 29 0 l 1,11,-1
 29 4 l 1,0,-1
EndSplineSet
Validated: 1048577
EndChar

StartChar: iogonek.sc
Encoding: 65663 -1 411
Width: 320
GlyphClass: 2
Flags: W
AnchorPoint: "Ancre-11" 160 600 basechar 0
AnchorPoint: "Ancre-10" 159 0 basechar 0
LayerCount: 2
Fore
SplineSet
29 4 m 1,0,-1
 110 65 l 1,1,-1
 110 535 l 1,2,-1
 29 596 l 1,3,-1
 29 600 l 1,4,-1
 291 600 l 1,5,-1
 291 596 l 1,6,-1
 210 535 l 1,7,-1
 210 65 l 1,8,-1
 291 4 l 1,9,-1
 291 0 l 1,10,-1
 180 0 l 1,11,12
 154 -59 154 -59 154 -97 c 0,13,14
 154 -113 154 -113 161.5 -121 c 128,-1,15
 169 -129 169 -129 179 -129 c 0,16,17
 190 -129 190 -129 201 -121 c 1,18,-1
 213 -137 l 1,19,20
 196 -153 196 -153 182 -160 c 128,-1,21
 168 -167 168 -167 151 -167 c 0,22,23
 127 -167 127 -167 109.5 -151.5 c 128,-1,24
 92 -136 92 -136 92 -108 c 0,25,26
 92 -85 92 -85 104.5 -59.5 c 128,-1,27
 117 -34 117 -34 143 0 c 1,28,-1
 29 0 l 1,29,-1
 29 4 l 1,0,-1
EndSplineSet
Validated: 1048577
EndChar

StartChar: j.sc
Encoding: 65665 -1 413
Width: 307
GlyphClass: 2
Flags: W
AnchorPoint: "Ancre-11" 154 600 basechar 0
LayerCount: 2
Fore
SplineSet
-9 -103 m 1,0,-1
 18 -82 l 2,1,2
 65 -45 65 -45 84.5 -12.5 c 128,-1,3
 104 20 104 20 104 61 c 2,4,-1
 104 535 l 1,5,-1
 23 596 l 1,6,-1
 23 600 l 1,7,-1
 285 600 l 1,8,-1
 285 596 l 1,9,-1
 204 535 l 1,10,-1
 204 78 l 2,11,12
 204 51 204 51 192.5 29.5 c 128,-1,13
 181 8 181 8 157 -14.5 c 128,-1,14
 133 -37 133 -37 85 -74 c 2,15,-1
 15 -128 l 1,16,-1
 -9 -103 l 1,0,-1
EndSplineSet
Validated: 1048577
Substitution2: "sous-table 'ss03' Jeu stylistique 3 dans Latin lookup 43" j.sc.ss03
AlternateSubs2: "sous-table 'aalt' Activer toutes les variantes dans Latin lookup 0" j.sc.ss03
EndChar

StartChar: k.sc
Encoding: 65668 -1 416
Width: 635
GlyphClass: 2
Flags: W
AnchorPoint: "Ancre-12" 370 0 basechar 0
LayerCount: 2
Fore
SplineSet
230 325 m 1,0,-1
 459 540 l 1,1,-1
 399 596 l 1,2,-1
 399 600 l 1,3,-1
 615 600 l 1,4,-1
 615 595 l 1,5,-1
 502 532 l 1,6,-1
 323 364 l 1,7,-1
 644 0 l 1,8,-1
 517 0 l 1,9,-1
 230 325 l 1,0,-1
29 4 m 1,10,-1
 110 65 l 1,11,-1
 110 535 l 1,12,-1
 29 596 l 1,13,-1
 29 600 l 1,14,-1
 291 600 l 1,15,-1
 291 596 l 1,16,-1
 210 535 l 1,17,-1
 210 65 l 1,18,-1
 291 4 l 1,19,-1
 291 0 l 1,20,-1
 29 0 l 1,21,-1
 29 4 l 1,10,-1
EndSplineSet
Validated: 1048577
EndChar

StartChar: l.sc
Encoding: 65671 -1 419
Width: 528
GlyphClass: 2
Flags: W
AnchorPoint: "Ancre-14" 457 600 basechar 0
AnchorPoint: "Ancre-13" 34 259 basechar 0
AnchorPoint: "Ancre-12" 281 0 basechar 0
AnchorPoint: "Ancre-11" 183 600 basechar 0
LayerCount: 2
Fore
SplineSet
29 4 m 1,0,-1
 110 65 l 1,1,-1
 110 535 l 1,2,-1
 29 596 l 1,3,-1
 29 600 l 1,4,-1
 291 600 l 1,5,-1
 291 596 l 1,6,-1
 210 535 l 1,7,-1
 210 44 l 1,8,-1
 371 44 l 1,9,-1
 517 189 l 1,10,-1
 521 189 l 1,11,-1
 461 0 l 1,12,-1
 29 0 l 1,13,-1
 29 4 l 1,0,-1
EndSplineSet
Validated: 1048577
EndChar

StartChar: lslash.sc
Encoding: 65676 -1 424
Width: 528
GlyphClass: 2
Flags: W
AnchorPoint: "Ancre-14" 457 600 basechar 0
AnchorPoint: "Ancre-13" 34 259 basechar 0
AnchorPoint: "Ancre-12" 281 0 basechar 0
AnchorPoint: "Ancre-11" 183 600 basechar 0
LayerCount: 2
Fore
SplineSet
29 4 m 1,0,-1
 110 65 l 1,1,-1
 110 247 l 1,2,-1
 34 215 l 1,3,-1
 34 259 l 1,4,-1
 110 292 l 1,5,-1
 110 535 l 1,6,-1
 29 596 l 1,7,-1
 29 600 l 1,8,-1
 291 600 l 1,9,-1
 291 596 l 1,10,-1
 210 535 l 1,11,-1
 210 335 l 1,12,-1
 358 398 l 1,13,-1
 358 353 l 1,14,-1
 210 290 l 1,15,-1
 210 44 l 1,16,-1
 371 44 l 1,17,-1
 517 189 l 1,18,-1
 521 189 l 1,19,-1
 461 0 l 1,20,-1
 29 0 l 1,21,-1
 29 4 l 1,0,-1
EndSplineSet
Validated: 1048577
EndChar

StartChar: m.sc
Encoding: 65677 -1 425
Width: 870
GlyphClass: 2
Flags: W
AnchorPoint: "Ancre-12" 433 0 basechar 0
LayerCount: 2
Fore
SplineSet
157 522 m 1,0,-1
 157 65 l 1,1,-1
 238 4 l 1,2,-1
 238 0 l 1,3,-1
 28 0 l 1,4,-1
 28 4 l 1,5,-1
 109 65 l 1,6,-1
 109 544 l 1,7,-1
 32 595 l 1,8,-1
 32 600 l 1,9,-1
 227 600 l 1,10,-1
 451 165 l 1,11,-1
 644 600 l 1,12,-1
 841 600 l 1,13,-1
 841 596 l 1,14,-1
 760 535 l 1,15,-1
 760 65 l 1,16,-1
 841 4 l 1,17,-1
 841 0 l 1,18,-1
 579 0 l 1,19,-1
 579 4 l 1,20,-1
 660 65 l 1,21,-1
 660 523 l 1,22,-1
 437 20 l 1,23,-1
 416 20 l 1,24,-1
 157 522 l 1,0,-1
EndSplineSet
Validated: 1048577
EndChar

StartChar: n.sc
Encoding: 65680 -1 428
Width: 714
GlyphClass: 2
Flags: W
AnchorPoint: "Ancre-12" 382 0 basechar 0
AnchorPoint: "Ancre-11" 360 600 basechar 0
LayerCount: 2
Fore
SplineSet
162 455 m 1,0,-1
 162 65 l 1,1,-1
 243 4 l 1,2,-1
 243 0 l 1,3,-1
 33 0 l 1,4,-1
 33 4 l 1,5,-1
 114 65 l 1,6,-1
 114 507 l 1,7,-1
 28 600 l 1,8,-1
 164 600 l 1,9,-1
 562 170 l 1,10,-1
 562 535 l 1,11,-1
 481 596 l 1,12,-1
 481 600 l 1,13,-1
 691 600 l 1,14,-1
 691 596 l 1,15,-1
 610 535 l 1,16,-1
 610 -7 l 1,17,-1
 589 -7 l 1,18,-1
 162 455 l 1,0,-1
EndSplineSet
Validated: 1048577
EndChar

StartChar: uni0272.sc
Encoding: 65686 -1 434
Width: 708
GlyphClass: 1
Flags: W
LayerCount: 2
Fore
SplineSet
156 455 m 1,0,-1
 156 -15 l 2,1,2
 156 -47 156 -47 149 -70.5 c 128,-1,3
 142 -94 142 -94 121.5 -120 c 128,-1,4
 101 -146 101 -146 59 -180 c 2,5,-1
 33 -201 l 1,6,-1
 13 -180 l 1,7,-1
 22 -173 l 2,8,9
 65 -139 65 -139 86.5 -105 c 128,-1,10
 108 -71 108 -71 108 -30 c 2,11,-1
 108 507 l 1,12,-1
 22 600 l 1,13,-1
 158 600 l 1,14,-1
 556 170 l 1,15,-1
 556 535 l 1,16,-1
 475 596 l 1,17,-1
 475 600 l 1,18,-1
 685 600 l 1,19,-1
 685 596 l 1,20,-1
 604 535 l 1,21,-1
 604 -7 l 1,22,-1
 583 -7 l 1,23,-1
 156 455 l 1,0,-1
EndSplineSet
Validated: 1
EndChar

StartChar: eng.sc
Encoding: 65689 -1 437
Width: 714
GlyphClass: 1
Flags: W
LayerCount: 2
Fore
SplineSet
33 4 m 1,0,-1
 114 65 l 1,1,-1
 114 507 l 1,2,-1
 28 600 l 1,3,-1
 164 600 l 1,4,-1
 562 170 l 1,5,-1
 562 535 l 1,6,-1
 481 596 l 1,7,-1
 481 600 l 1,8,-1
 691 600 l 1,9,-1
 691 596 l 1,10,-1
 610 535 l 1,11,-1
 610 -15 l 2,12,13
 610 -47 610 -47 603.5 -70.5 c 128,-1,14
 597 -94 597 -94 576 -120 c 128,-1,15
 555 -146 555 -146 513 -180 c 2,16,-1
 487 -201 l 1,17,-1
 467 -180 l 1,18,-1
 476 -173 l 2,19,20
 520 -139 520 -139 541 -104 c 128,-1,21
 562 -69 562 -69 562 -30 c 2,22,-1
 562 22 l 1,23,-1
 162 455 l 1,24,-1
 162 65 l 1,25,-1
 243 4 l 1,26,-1
 243 0 l 1,27,-1
 33 0 l 1,28,-1
 33 4 l 1,0,-1
EndSplineSet
Validated: 1
EndChar

StartChar: o.sc
Encoding: 65690 -1 438
Width: 710
GlyphClass: 2
Flags: W
AnchorPoint: "Ancre-15" 355 300 basechar 0
AnchorPoint: "Ancre-12" 367 0 basechar 0
AnchorPoint: "Ancre-11" 341 600 basechar 0
LayerCount: 2
Fore
SplineSet
355 -10 m 1,0,1
 268 -10 268 -10 195 30 c 128,-1,2
 122 70 122 70 79 138.5 c 128,-1,3
 36 207 36 207 36 290 c 0,4,5
 36 380 36 380 79 453.5 c 128,-1,6
 122 527 122 527 195 568.5 c 128,-1,7
 268 610 268 610 355 610 c 256,8,9
 442 610 442 610 515 570 c 128,-1,10
 588 530 588 530 631 461.5 c 128,-1,11
 674 393 674 393 674 310 c 0,12,13
 674 220 674 220 631 146.5 c 128,-1,14
 588 73 588 73 515 31.5 c 128,-1,15
 442 -10 442 -10 355 -10 c 1,16,-1
 355 -10 l 1,0,1
143 334 m 1,17,18
 143 257 143 257 171.5 188 c 128,-1,19
 200 119 200 119 253 77 c 128,-1,20
 306 35 306 35 375 35 c 0,21,22
 437 35 437 35 480.5 68 c 128,-1,23
 524 101 524 101 545.5 154 c 128,-1,24
 567 207 567 207 567 266 c 0,25,26
 567 343 567 343 538.5 412 c 128,-1,27
 510 481 510 481 457 523 c 128,-1,28
 404 565 404 565 335 565 c 0,29,30
 273 565 273 565 229.5 532 c 128,-1,31
 186 499 186 499 164.5 446 c 128,-1,32
 143 393 143 393 143 334 c 1,33,-1
 143 334 l 1,17,18
EndSplineSet
Validated: 1048581
EndChar

StartChar: ocommaaccent.sc
Encoding: 65693 -1 441
Width: 710
GlyphClass: 2
Flags: W
AnchorPoint: "Ancre-9" 355 300 basechar 0
AnchorPoint: "Ancre-8" 341 600 basechar 0
AnchorPoint: "Ancre-7" 367 0 basechar 0
LayerCount: 2
Fore
SplineSet
375 35 m 1,0,1
 437 35 437 35 480.5 68 c 128,-1,2
 524 101 524 101 545.5 154 c 128,-1,3
 567 207 567 207 567 266 c 0,4,5
 567 343 567 343 538.5 412 c 128,-1,6
 510 481 510 481 457 523 c 128,-1,7
 404 565 404 565 335 565 c 0,8,9
 273 565 273 565 229.5 532 c 128,-1,10
 186 499 186 499 164.5 446 c 128,-1,11
 143 393 143 393 143 334 c 0,12,13
 143 257 143 257 171.5 188 c 128,-1,14
 200 119 200 119 253 77 c 128,-1,15
 306 35 306 35 375 35 c 1,16,-1
 375 35 l 1,0,1
36 290 m 1,17,18
 36 380 36 380 79 453.5 c 128,-1,19
 122 527 122 527 195 568.5 c 128,-1,20
 268 610 268 610 355 610 c 256,21,22
 442 610 442 610 515 570 c 128,-1,23
 588 530 588 530 631 461.5 c 128,-1,24
 674 393 674 393 674 310 c 0,25,26
 674 223 674 223 634 152 c 128,-1,27
 594 81 594 81 526 38.5 c 128,-1,28
 458 -4 458 -4 375 -9 c 1,29,-1
 360 -32 l 1,30,31
 390 -39 390 -39 407.5 -55 c 128,-1,32
 425 -71 425 -71 425 -93 c 0,33,34
 425 -112 425 -112 411 -125 c 128,-1,35
 397 -138 397 -138 379 -146.5 c 128,-1,36
 361 -155 361 -155 316 -172 c 1,37,-1
 307 -152 l 1,38,39
 340 -140 340 -140 353.5 -128.5 c 128,-1,40
 367 -117 367 -117 367 -102 c 256,41,42
 367 -87 367 -87 353 -75 c 128,-1,43
 339 -63 339 -63 313 -58 c 1,44,-1
 345 -10 l 1,45,46
 261 -8 261 -8 190 32.5 c 128,-1,47
 119 73 119 73 77.5 141 c 128,-1,48
 36 209 36 209 36 290 c 1,49,-1
 36 290 l 1,17,18
EndSplineSet
Validated: 5
EndChar

StartChar: oslash.sc
Encoding: 65700 -1 448
Width: 710
GlyphClass: 2
Flags: W
AnchorPoint: "Ancre-15" 355 300 basechar 0
AnchorPoint: "Ancre-12" 367 0 basechar 0
AnchorPoint: "Ancre-11" 341 600 basechar 0
LayerCount: 2
Fore
SplineSet
355 -10 m 1,0,1
 301 -10 301 -10 251 6 c 128,-1,2
 201 22 201 22 160 52 c 1,3,-1
 99 -15 l 1,4,-1
 60 15 l 1,5,-1
 123 83 l 1,6,7
 82 124 82 124 59 177 c 128,-1,8
 36 230 36 230 36 290 c 0,9,10
 36 380 36 380 79 453.5 c 128,-1,11
 122 527 122 527 195 568.5 c 128,-1,12
 268 610 268 610 355 610 c 0,13,14
 409 610 409 610 459 594 c 128,-1,15
 509 578 509 578 550 548 c 1,16,-1
 611 615 l 1,17,-1
 651 585 l 1,18,-1
 588 516 l 1,19,20
 629 475 629 475 651.5 422 c 128,-1,21
 674 369 674 369 674 310 c 0,22,23
 674 220 674 220 631 146.5 c 128,-1,24
 588 73 588 73 515 31.5 c 128,-1,25
 442 -10 442 -10 355 -10 c 1,26,-1
 355 -10 l 1,0,1
143 334 m 1,27,28
 143 286 143 286 154.5 239.5 c 128,-1,29
 166 193 166 193 188 155 c 1,30,-1
 493 487 l 1,31,32
 463 524 463 524 423 544.5 c 128,-1,33
 383 565 383 565 335 565 c 0,34,35
 273 565 273 565 229.5 532 c 128,-1,36
 186 499 186 499 164.5 446 c 128,-1,37
 143 393 143 393 143 334 c 1,38,-1
 143 334 l 1,27,28
217 113 m 1,39,40
 247 76 247 76 287 55.5 c 128,-1,41
 327 35 327 35 375 35 c 0,42,43
 437 35 437 35 480.5 68 c 128,-1,44
 524 101 524 101 545.5 154 c 128,-1,45
 567 207 567 207 567 266 c 0,46,47
 567 314 567 314 555.5 360 c 128,-1,48
 544 406 544 406 522 445 c 1,49,-1
 217 113 l 1,50,-1
 217 113 l 1,39,40
EndSplineSet
Validated: 1048581
EndChar

StartChar: oe.sc
Encoding: 65703 -1 451
Width: 942
GlyphClass: 1
Flags: W
LayerCount: 2
Fore
SplineSet
356 0 m 1,0,1
 269 0 269 0 196 38.5 c 128,-1,2
 123 77 123 77 79.5 143.5 c 128,-1,3
 36 210 36 210 36 290 c 0,4,5
 36 378 36 378 79 449 c 128,-1,6
 122 520 122 520 195.5 560 c 128,-1,7
 269 600 269 600 356 600 c 2,8,-1
 834 600 l 1,9,-1
 894 411 l 1,10,-1
 890 411 l 1,11,-1
 744 556 l 1,12,-1
 552 556 l 1,13,-1
 552 332 l 1,14,-1
 707 332 l 1,15,-1
 775 431 l 1,16,-1
 781 431 l 1,17,-1
 781 189 l 1,18,-1
 775 189 l 1,19,-1
 707 288 l 1,20,-1
 552 288 l 1,21,-1
 552 44 l 1,22,-1
 767 44 l 1,23,-1
 913 189 l 1,24,-1
 917 189 l 1,25,-1
 857 0 l 1,26,-1
 356 0 l 1,27,-1
 356 0 l 1,0,1
143 333 m 1,28,29
 143 258 143 258 172 191.5 c 128,-1,30
 201 125 201 125 254 84.5 c 128,-1,31
 307 44 307 44 376 44 c 2,32,-1
 452 44 l 1,33,-1
 452 556 l 1,34,-1
 336 556 l 2,35,36
 274 556 274 556 230.5 524.5 c 128,-1,37
 187 493 187 493 165 442 c 128,-1,38
 143 391 143 391 143 333 c 1,39,-1
 143 333 l 1,28,29
EndSplineSet
Validated: 5
EndChar

StartChar: p.sc
Encoding: 65704 -1 452
Width: 556
GlyphClass: 1
Flags: W
LayerCount: 2
Fore
SplineSet
29 4 m 1,0,-1
 110 65 l 1,1,-1
 110 535 l 1,2,-1
 29 596 l 1,3,-1
 29 600 l 1,4,-1
 302 600 l 2,5,6
 367 600 367 600 421 583.5 c 128,-1,7
 475 567 475 567 507.5 532.5 c 128,-1,8
 540 498 540 498 540 448 c 256,9,10
 540 398 540 398 507.5 360 c 128,-1,11
 475 322 475 322 420.5 301 c 128,-1,12
 366 280 366 280 303 280 c 2,13,-1
 210 280 l 1,14,-1
 210 65 l 1,15,-1
 309 4 l 1,16,-1
 309 0 l 1,17,-1
 29 0 l 1,18,-1
 29 4 l 1,0,-1
299 324 m 2,19,20
 337 324 337 324 367 338.5 c 128,-1,21
 397 353 397 353 414 379 c 128,-1,22
 431 405 431 405 431 439 c 256,23,24
 431 473 431 473 414 500 c 128,-1,25
 397 527 397 527 367 541.5 c 128,-1,26
 337 556 337 556 299 556 c 2,27,-1
 210 556 l 1,28,-1
 210 324 l 1,29,-1
 299 324 l 2,19,20
EndSplineSet
Validated: 1
EndChar

StartChar: thorn.sc
Encoding: 65705 -1 453
Width: 568
GlyphClass: 1
Flags: W
LayerCount: 2
Fore
SplineSet
29 4 m 1,0,-1
 110 65 l 1,1,-1
 110 535 l 1,2,-1
 29 596 l 1,3,-1
 29 600 l 1,4,-1
 291 600 l 1,5,-1
 291 596 l 1,6,-1
 210 535 l 1,7,-1
 210 481 l 1,8,-1
 303 481 l 2,9,10
 366 481 366 481 419.5 464.5 c 128,-1,11
 473 448 473 448 506 414 c 128,-1,12
 539 380 539 380 539 330 c 256,13,14
 539 280 539 280 505.5 241.5 c 128,-1,15
 472 203 472 203 418 182 c 128,-1,16
 364 161 364 161 303 161 c 2,17,-1
 210 161 l 1,18,-1
 210 65 l 1,19,-1
 300 4 l 1,20,-1
 300 0 l 1,21,-1
 29 0 l 1,22,-1
 29 4 l 1,0,-1
301 205 m 2,23,24
 338 205 338 205 367.5 220 c 128,-1,25
 397 235 397 235 414 261 c 128,-1,26
 431 287 431 287 431 320 c 256,27,28
 431 353 431 353 414 380 c 128,-1,29
 397 407 397 407 367.5 422 c 128,-1,30
 338 437 338 437 301 437 c 2,31,-1
 210 437 l 1,32,-1
 210 205 l 1,33,-1
 301 205 l 2,23,24
EndSplineSet
Validated: 1
EndChar

StartChar: q.sc
Encoding: 65706 -1 454
Width: 710
GlyphClass: 2
Flags: W
AnchorPoint: "Ancre-15" 355 298 basechar 0
AnchorPoint: "Ancre-11" 318 600 basechar 0
LayerCount: 2
Fore
SplineSet
315 -35 m 1,0,1
 193 5 193 5 114.5 85.5 c 128,-1,2
 36 166 36 166 36 290 c 0,3,4
 36 380 36 380 79 453.5 c 128,-1,5
 122 527 122 527 195 568.5 c 128,-1,6
 268 610 268 610 355 610 c 256,7,8
 442 610 442 610 515 570 c 128,-1,9
 588 530 588 530 631 461.5 c 128,-1,10
 674 393 674 393 674 310 c 256,11,12
 674 227 674 227 633 157 c 128,-1,13
 592 87 592 87 521.5 43.5 c 128,-1,14
 451 0 451 0 366 -8 c 1,15,-1
 851 -71 l 1,16,-1
 851 -76 l 1,17,-1
 676 -153 l 1,18,-1
 315 -35 l 1,19,-1
 315 -35 l 1,0,1
143 334 m 1,20,21
 143 257 143 257 171.5 188 c 128,-1,22
 200 119 200 119 253 77 c 128,-1,23
 306 35 306 35 375 35 c 0,24,25
 437 35 437 35 480.5 68 c 128,-1,26
 524 101 524 101 545.5 154 c 128,-1,27
 567 207 567 207 567 266 c 0,28,29
 567 343 567 343 538.5 412 c 128,-1,30
 510 481 510 481 457 523 c 128,-1,31
 404 565 404 565 335 565 c 0,32,33
 273 565 273 565 229.5 532 c 128,-1,34
 186 499 186 499 164.5 446 c 128,-1,35
 143 393 143 393 143 334 c 1,36,-1
 143 334 l 1,20,21
EndSplineSet
Validated: 1048581
Substitution2: "sous-table 'ss04' Jeu stylistique 4 dans Latin lookup 44" q.sc.ss04
AlternateSubs2: "sous-table 'aalt' Activer toutes les variantes dans Latin lookup 0" q.sc.ss04
EndChar

StartChar: r.sc
Encoding: 65707 -1 455
Width: 631
GlyphClass: 2
Flags: W
AnchorPoint: "Ancre-12" 368 0 basechar 0
AnchorPoint: "Ancre-11" 284 600 basechar 0
LayerCount: 2
Fore
SplineSet
29 4 m 1,0,-1
 110 65 l 1,1,-1
 110 535 l 1,2,-1
 29 596 l 1,3,-1
 29 600 l 1,4,-1
 298 600 l 2,5,6
 363 600 363 600 416.5 584.5 c 128,-1,7
 470 569 470 569 502.5 535.5 c 128,-1,8
 535 502 535 502 535 452 c 0,9,10
 535 397 535 397 495 357.5 c 128,-1,11
 455 318 455 318 390 301 c 1,12,-1
 567 53 l 1,13,-1
 650 4 l 1,14,-1
 650 0 l 1,15,-1
 491 0 l 1,16,-1
 290 289 l 1,17,-1
 210 289 l 1,18,-1
 210 65 l 1,19,-1
 291 4 l 1,20,-1
 291 0 l 1,21,-1
 29 0 l 1,22,-1
 29 4 l 1,0,-1
294 333 m 2,23,24
 332 333 332 333 362 346.5 c 128,-1,25
 392 360 392 360 409 385 c 128,-1,26
 426 410 426 410 426 444 c 256,27,28
 426 478 426 478 409 503.5 c 128,-1,29
 392 529 392 529 362 542.5 c 128,-1,30
 332 556 332 556 294 556 c 2,31,-1
 210 556 l 1,32,-1
 210 333 l 1,33,-1
 294 333 l 2,23,24
EndSplineSet
Validated: 1048577
EndChar

StartChar: s.sc
Encoding: 65711 -1 459
Width: 499
GlyphClass: 2
Flags: W
AnchorPoint: "Ancre-12" 259 0 basechar 0
AnchorPoint: "Ancre-11" 246 600 basechar 0
LayerCount: 2
Fore
SplineSet
255 -10 m 1,0,1
 200 -10 200 -10 156 -1.5 c 128,-1,2
 112 7 112 7 56 24 c 1,3,-1
 45 218 l 1,4,-1
 50 218 l 1,5,6
 97 125 97 125 152 78 c 128,-1,7
 207 31 207 31 275 31 c 0,8,9
 306 31 306 31 332.5 42.5 c 128,-1,10
 359 54 359 54 375 76 c 128,-1,11
 391 98 391 98 391 128 c 0,12,13
 391 155 391 155 378.5 175.5 c 128,-1,14
 366 196 366 196 339 214 c 128,-1,15
 312 232 312 232 266 252 c 2,16,-1
 187 287 l 2,17,18
 116 318 116 318 81.5 357.5 c 128,-1,19
 47 397 47 397 47 451 c 0,20,21
 47 495 47 495 73 531.5 c 128,-1,22
 99 568 99 568 144 589 c 128,-1,23
 189 610 189 610 243 610 c 0,24,25
 284 610 284 610 321 603.5 c 128,-1,26
 358 597 358 597 418 581 c 1,27,-1
 428 403 l 1,28,-1
 423 403 l 1,29,30
 377 489 377 489 332.5 529 c 128,-1,31
 288 569 288 569 231 569 c 0,32,33
 200 569 200 569 174.5 558.5 c 128,-1,34
 149 548 149 548 134.5 529 c 128,-1,35
 120 510 120 510 120 485 c 0,36,37
 120 463 120 463 132 445 c 128,-1,38
 144 427 144 427 170 410.5 c 128,-1,39
 196 394 196 394 240 374 c 2,40,-1
 319 339 l 2,41,42
 390 308 390 308 427 264 c 128,-1,43
 464 220 464 220 464 169 c 256,44,45
 464 118 464 118 436 77.5 c 128,-1,46
 408 37 408 37 360 13.5 c 128,-1,47
 312 -10 312 -10 255 -10 c 1,48,-1
 255 -10 l 1,0,1
EndSplineSet
Validated: 1048581
EndChar

StartChar: scedilla.sc
Encoding: 65714 -1 462
Width: 499
GlyphClass: 2
Flags: W
AnchorPoint: "Ancre-12" 259 0 basechar 0
AnchorPoint: "Ancre-11" 246 600 basechar 0
LayerCount: 2
Fore
SplineSet
199 -152 m 1,0,1
 232 -140 232 -140 245.5 -128.5 c 128,-1,2
 259 -117 259 -117 259 -102 c 256,3,4
 259 -87 259 -87 245 -75 c 128,-1,5
 231 -63 231 -63 205 -58 c 1,6,-1
 237 -10 l 1,7,8
 188 -9 188 -9 148 -0.5 c 128,-1,9
 108 8 108 8 56 24 c 1,10,-1
 45 218 l 1,11,-1
 50 218 l 1,12,13
 97 125 97 125 152 78 c 128,-1,14
 207 31 207 31 275 31 c 0,15,16
 306 31 306 31 332.5 42.5 c 128,-1,17
 359 54 359 54 375 76 c 128,-1,18
 391 98 391 98 391 128 c 0,19,20
 391 155 391 155 378.5 175.5 c 128,-1,21
 366 196 366 196 339 214 c 128,-1,22
 312 232 312 232 266 252 c 2,23,-1
 187 287 l 2,24,25
 116 318 116 318 81.5 357.5 c 128,-1,26
 47 397 47 397 47 451 c 0,27,28
 47 495 47 495 73 531.5 c 128,-1,29
 99 568 99 568 144 589 c 128,-1,30
 189 610 189 610 243 610 c 0,31,32
 284 610 284 610 321 603.5 c 128,-1,33
 358 597 358 597 418 581 c 1,34,-1
 428 403 l 1,35,-1
 423 403 l 1,36,37
 377 489 377 489 332.5 529 c 128,-1,38
 288 569 288 569 231 569 c 0,39,40
 200 569 200 569 174.5 558.5 c 128,-1,41
 149 548 149 548 134.5 529 c 128,-1,42
 120 510 120 510 120 485 c 0,43,44
 120 463 120 463 132 445 c 128,-1,45
 144 427 144 427 170 410.5 c 128,-1,46
 196 394 196 394 240 374 c 2,47,-1
 319 339 l 2,48,49
 390 308 390 308 427 264 c 128,-1,50
 464 220 464 220 464 169 c 0,51,52
 464 120 464 120 438 80 c 128,-1,53
 412 40 412 40 367 16 c 128,-1,54
 322 -8 322 -8 267 -10 c 1,55,-1
 252 -32 l 1,56,57
 282 -39 282 -39 299.5 -55 c 128,-1,58
 317 -71 317 -71 317 -93 c 0,59,60
 317 -112 317 -112 303 -125 c 128,-1,61
 289 -138 289 -138 271 -146.5 c 128,-1,62
 253 -155 253 -155 208 -172 c 1,63,-1
 199 -152 l 1,64,-1
 199 -152 l 1,0,1
EndSplineSet
Validated: 1048581
EndChar

StartChar: germandbls.sc
Encoding: 65717 -1 465
Width: 640
GlyphClass: 1
Flags: W
LayerCount: 2
Fore
SplineSet
401 -10 m 1,0,1
 356 -10 356 -10 317.5 8.5 c 128,-1,2
 279 27 279 27 239 65 c 1,3,-1
 263 88 l 1,4,5
 294 63 294 63 319 53.5 c 128,-1,6
 344 44 344 44 375 44 c 0,7,8
 409 44 409 44 438.5 59.5 c 128,-1,9
 468 75 468 75 486.5 105.5 c 128,-1,10
 505 136 505 136 505 179 c 0,11,12
 505 221 505 221 483.5 254.5 c 128,-1,13
 462 288 462 288 419.5 308 c 128,-1,14
 377 328 377 328 316 328 c 2,15,-1
 295 328 l 1,16,-1
 295 333 l 1,17,-1
 441 556 l 1,18,-1
 210 556 l 1,19,-1
 210 0 l 1,20,-1
 29 0 l 1,21,-1
 29 4 l 1,22,-1
 110 65 l 1,23,-1
 110 535 l 1,24,-1
 29 596 l 1,25,-1
 29 600 l 1,26,-1
 578 600 l 1,27,-1
 578 595 l 1,28,-1
 421 355 l 1,29,30
 471 346 471 346 513 323.5 c 128,-1,31
 555 301 555 301 580 265.5 c 128,-1,32
 605 230 605 230 605 183 c 0,33,34
 605 130 605 130 576.5 85.5 c 128,-1,35
 548 41 548 41 500.5 15.5 c 128,-1,36
 453 -10 453 -10 401 -10 c 1,37,-1
 401 -10 l 1,0,1
EndSplineSet
Validated: 5
EndChar

StartChar: t.sc
Encoding: 65718 -1 466
Width: 572
GlyphClass: 2
Flags: W
AnchorPoint: "Ancre-13" 130 332 basechar 0
AnchorPoint: "Ancre-12" 281 0 basechar 0
AnchorPoint: "Ancre-11" 286 600 basechar 0
LayerCount: 2
Fore
SplineSet
155 4 m 1,0,-1
 236 65 l 1,1,-1
 236 560 l 1,2,-1
 125 560 l 1,3,-1
 23 424 l 1,4,-1
 18 424 l 1,5,-1
 39 623 l 1,6,-1
 113 600 l 1,7,-1
 459 600 l 1,8,-1
 533 623 l 1,9,-1
 554 424 l 1,10,-1
 549 424 l 1,11,-1
 447 560 l 1,12,-1
 336 560 l 1,13,-1
 336 65 l 1,14,-1
 417 4 l 1,15,-1
 417 0 l 1,16,-1
 155 0 l 1,17,-1
 155 4 l 1,0,-1
EndSplineSet
Validated: 1048577
EndChar

StartChar: tbar.sc
Encoding: 65719 -1 467
Width: 572
GlyphClass: 2
Flags: W
AnchorPoint: "Ancre-13" 130 332 basechar 0
AnchorPoint: "Ancre-12" 281 0 basechar 0
AnchorPoint: "Ancre-11" 286 600 basechar 0
LayerCount: 2
Fore
SplineSet
155 4 m 1,0,-1
 236 65 l 1,1,-1
 236 290 l 1,2,-1
 107 290 l 1,3,-1
 130 332 l 1,4,-1
 236 332 l 1,5,-1
 236 560 l 1,6,-1
 125 560 l 1,7,-1
 23 424 l 1,8,-1
 18 424 l 1,9,-1
 39 623 l 1,10,-1
 113 600 l 1,11,-1
 459 600 l 1,12,-1
 533 623 l 1,13,-1
 554 424 l 1,14,-1
 549 424 l 1,15,-1
 447 560 l 1,16,-1
 336 560 l 1,17,-1
 336 332 l 1,18,-1
 468 332 l 1,19,-1
 446 290 l 1,20,-1
 336 290 l 1,21,-1
 336 65 l 1,22,-1
 417 4 l 1,23,-1
 417 0 l 1,24,-1
 155 0 l 1,25,-1
 155 4 l 1,0,-1
EndSplineSet
Validated: 1048577
EndChar

StartChar: u.sc
Encoding: 65723 -1 471
Width: 663
GlyphClass: 2
Flags: W
AnchorPoint: "Ancre-11" 353 600 basechar 0
AnchorPoint: "Ancre-10" 455 0 basechar 0
LayerCount: 2
Fore
SplineSet
349 -10 m 1,0,1
 235 -10 235 -10 164.5 46 c 128,-1,2
 94 102 94 102 94 224 c 2,3,-1
 94 535 l 1,4,-1
 13 596 l 1,5,-1
 13 600 l 1,6,-1
 275 600 l 1,7,-1
 275 596 l 1,8,-1
 194 535 l 1,9,-1
 194 214 l 2,10,11
 194 158 194 158 214.5 118.5 c 128,-1,12
 235 79 235 79 272.5 58.5 c 128,-1,13
 310 38 310 38 362 38 c 0,14,15
 412 38 412 38 447 58.5 c 128,-1,16
 482 79 482 79 500 113 c 128,-1,17
 518 147 518 147 518 185 c 2,18,-1
 518 535 l 1,19,-1
 437 596 l 1,20,-1
 437 600 l 1,21,-1
 647 600 l 1,22,-1
 647 596 l 1,23,-1
 566 535 l 1,24,-1
 566 185 l 2,25,26
 566 136 566 136 540 91 c 128,-1,27
 514 46 514 46 464.5 18 c 128,-1,28
 415 -10 415 -10 349 -10 c 1,29,-1
 349 -10 l 1,0,1
EndSplineSet
Validated: 1048581
EndChar

StartChar: uogonek.sc
Encoding: 65731 -1 479
Width: 663
GlyphClass: 2
Flags: W
AnchorPoint: "Ancre-11" 353 600 basechar 0
AnchorPoint: "Ancre-10" 455 0 basechar 0
LayerCount: 2
Fore
SplineSet
349 -10 m 1,0,1
 235 -10 235 -10 164.5 46 c 128,-1,2
 94 102 94 102 94 224 c 2,3,-1
 94 535 l 1,4,-1
 13 596 l 1,5,-1
 13 600 l 1,6,-1
 275 600 l 1,7,-1
 275 596 l 1,8,-1
 194 535 l 1,9,-1
 194 214 l 2,10,11
 194 158 194 158 214.5 118.5 c 128,-1,12
 235 79 235 79 272.5 58.5 c 128,-1,13
 310 38 310 38 362 38 c 0,14,15
 412 38 412 38 447 58.5 c 128,-1,16
 482 79 482 79 500 113 c 128,-1,17
 518 147 518 147 518 185 c 2,18,-1
 518 535 l 1,19,-1
 437 596 l 1,20,-1
 437 600 l 1,21,-1
 647 600 l 1,22,-1
 647 596 l 1,23,-1
 566 535 l 1,24,-1
 566 185 l 2,25,26
 566 144 566 144 547.5 105 c 128,-1,27
 529 66 529 66 494 38 c 1,28,29
 477 7 477 7 463.5 -31 c 128,-1,30
 450 -69 450 -69 450 -97 c 0,31,32
 450 -113 450 -113 457.5 -121 c 128,-1,33
 465 -129 465 -129 475 -129 c 0,34,35
 486 -129 486 -129 497 -121 c 1,36,-1
 509 -137 l 1,37,38
 492 -153 492 -153 478 -160 c 128,-1,39
 464 -167 464 -167 447 -167 c 0,40,41
 423 -167 423 -167 405.5 -151.5 c 128,-1,42
 388 -136 388 -136 388 -108 c 0,43,44
 388 -84 388 -84 402 -57 c 128,-1,45
 416 -30 416 -30 446 9 c 1,46,47
 402 -10 402 -10 349 -10 c 1,48,-1
 349 -10 l 1,0,1
EndSplineSet
Validated: 1048581
EndChar

StartChar: v.sc
Encoding: 65734 -1 482
Width: 627
GlyphClass: 1
Flags: W
LayerCount: 2
Fore
SplineSet
53 535 m 1,0,-1
 -11 596 l 1,1,-1
 -11 600 l 1,2,-1
 238 600 l 1,3,-1
 238 596 l 1,4,-1
 162 538 l 1,5,-1
 349 144 l 1,6,-1
 516 538 l 1,7,-1
 438 596 l 1,8,-1
 438 600 l 1,9,-1
 625 600 l 1,10,-1
 625 596 l 1,11,-1
 563 535 l 1,12,-1
 332 -13 l 1,13,-1
 311 -13 l 1,14,-1
 53 535 l 1,0,-1
EndSplineSet
Validated: 1
EndChar

StartChar: w.sc
Encoding: 65735 -1 483
Width: 913
GlyphClass: 2
Flags: W
AnchorPoint: "Ancre-11" 454 600 basechar 0
LayerCount: 2
Fore
SplineSet
455 412 m 1,0,-1
 307 -13 l 1,1,-1
 286 -13 l 1,2,-1
 43 535 l 1,3,-1
 -20 596 l 1,4,-1
 -20 600 l 1,5,-1
 227 600 l 1,6,-1
 227 596 l 1,7,-1
 150 538 l 1,8,-1
 318 161 l 1,9,-1
 427 475 l 1,10,-1
 383 576 l 1,11,-1
 471 625 l 1,12,-1
 673 167 l 1,13,-1
 795 538 l 1,14,-1
 712 596 l 1,15,-1
 712 600 l 1,16,-1
 899 600 l 1,17,-1
 899 596 l 1,18,-1
 842 535 l 1,19,-1
 663 -13 l 1,20,-1
 642 -13 l 1,21,-1
 455 412 l 1,0,-1
EndSplineSet
Validated: 1048577
Substitution2: "sous-table 'ss02' Jeu stylistique 2 dans Latin lookup 42" w.sc.ss02
AlternateSubs2: "sous-table 'aalt' Activer toutes les variantes dans Latin lookup 0" w.sc.ss02
EndChar

StartChar: x.sc
Encoding: 65740 -1 488
Width: 615
GlyphClass: 1
Flags: W
LayerCount: 2
Fore
SplineSet
372 4 m 1,0,-1
 437 60 l 1,1,-1
 283 264 l 1,2,-1
 128 60 l 1,3,-1
 192 4 l 1,4,-1
 192 0 l 1,5,-1
 -2 0 l 1,6,-1
 -2 4 l 1,7,-1
 74 65 l 1,8,-1
 255 303 l 1,9,-1
 81 535 l 1,10,-1
 3 596 l 1,11,-1
 3 600 l 1,12,-1
 262 600 l 1,13,-1
 262 596 l 1,14,-1
 197 540 l 1,15,-1
 326 371 l 1,16,-1
 450 540 l 1,17,-1
 384 596 l 1,18,-1
 384 600 l 1,19,-1
 578 600 l 1,20,-1
 578 596 l 1,21,-1
 502 535 l 1,22,-1
 354 332 l 1,23,-1
 553 65 l 1,24,-1
 632 4 l 1,25,-1
 632 0 l 1,26,-1
 372 0 l 1,27,-1
 372 4 l 1,0,-1
EndSplineSet
Validated: 1
EndChar

StartChar: y.sc
Encoding: 65741 -1 489
Width: 633
GlyphClass: 2
Flags: W
AnchorPoint: "Ancre-11" 339 600 basechar 0
LayerCount: 2
Fore
SplineSet
188 4 m 1,0,-1
 269 65 l 1,1,-1
 269 283 l 1,2,-1
 78 535 l 1,3,-1
 0 596 l 1,4,-1
 0 600 l 1,5,-1
 259 600 l 1,6,-1
 259 596 l 1,7,-1
 194 540 l 1,8,-1
 351 336 l 1,9,-1
 497 540 l 1,10,-1
 430 596 l 1,11,-1
 430 600 l 1,12,-1
 623 600 l 1,13,-1
 623 596 l 1,14,-1
 547 535 l 1,15,-1
 369 286 l 1,16,-1
 369 65 l 1,17,-1
 450 4 l 1,18,-1
 450 0 l 1,19,-1
 188 0 l 1,20,-1
 188 4 l 1,0,-1
EndSplineSet
Validated: 1048577
EndChar

StartChar: z.sc
Encoding: 65748 -1 496
Width: 543
GlyphClass: 2
Flags: W
AnchorPoint: "Ancre-13" 109 332 basechar 0
AnchorPoint: "Ancre-11" 269 600 basechar 0
LayerCount: 2
Fore
SplineSet
23 4 m 1,0,-1
 356 556 l 1,1,-1
 160 556 l 1,2,-1
 38 411 l 1,3,-1
 34 411 l 1,4,-1
 69 600 l 1,5,-1
 493 600 l 1,6,-1
 493 596 l 1,7,-1
 160 44 l 1,8,-1
 389 44 l 1,9,-1
 518 199 l 1,10,-1
 522 199 l 1,11,-1
 479 0 l 1,12,-1
 23 0 l 1,13,-1
 23 4 l 1,0,-1
EndSplineSet
Validated: 1048577
EndChar

StartChar: uni01B6.sc
Encoding: 65752 -1 500
Width: 543
GlyphClass: 2
Flags: W
AnchorPoint: "Ancre-13" 109 332 basechar 0
AnchorPoint: "Ancre-11" 269 600 basechar 0
LayerCount: 2
Fore
SplineSet
23 4 m 1,0,-1
 196 290 l 1,1,-1
 86 290 l 1,2,-1
 109 332 l 1,3,-1
 221 332 l 1,4,-1
 356 556 l 1,5,-1
 160 556 l 1,6,-1
 38 411 l 1,7,-1
 34 411 l 1,8,-1
 69 600 l 1,9,-1
 493 600 l 1,10,-1
 493 596 l 1,11,-1
 334 332 l 1,12,-1
 447 332 l 1,13,-1
 425 290 l 1,14,-1
 308 290 l 1,15,-1
 160 44 l 1,16,-1
 389 44 l 1,17,-1
 518 199 l 1,18,-1
 522 199 l 1,19,-1
 479 0 l 1,20,-1
 23 0 l 1,21,-1
 23 4 l 1,0,-1
EndSplineSet
Validated: 1048577
EndChar

StartChar: a.sc.ss01
Encoding: 65753 -1 501
Width: 654
GlyphClass: 2
Flags: W
AnchorPoint: "Ancre-11" 318 600 basechar 0
AnchorPoint: "Ancre-10" 554 0 basechar 0
LayerCount: 2
Fore
SplineSet
2 4 m 1,0,-1
 65 65 l 1,1,-1
 309 613 l 1,2,-1
 330 613 l 1,3,-1
 601 65 l 1,4,-1
 668 4 l 1,5,-1
 668 0 l 1,6,-1
 418 0 l 1,7,-1
 418 4 l 1,8,-1
 493 62 l 1,9,-1
 428 185 l 1,10,-1
 171 185 l 1,11,-1
 115 62 l 1,12,-1
 189 4 l 1,13,-1
 189 0 l 1,14,-1
 2 0 l 1,15,-1
 2 4 l 1,0,-1
406 229 m 1,16,-1
 292 464 l 1,17,-1
 190 229 l 1,18,-1
 406 229 l 1,16,-1
EndSplineSet
Validated: 1048577
EndChar

StartChar: aogonek.sc.ss01
Encoding: 65760 -1 508
Width: 654
GlyphClass: 2
Flags: W
AnchorPoint: "Ancre-11" 318 600 basechar 0
AnchorPoint: "Ancre-10" 554 0 basechar 0
LayerCount: 2
Fore
SplineSet
2 4 m 1,0,-1
 65 65 l 1,1,-1
 309 613 l 1,2,-1
 330 613 l 1,3,-1
 601 65 l 1,4,-1
 668 4 l 1,5,-1
 668 0 l 1,6,-1
 575 0 l 1,7,8
 549 -59 549 -59 549 -97 c 0,9,10
 549 -113 549 -113 556.5 -121 c 128,-1,11
 564 -129 564 -129 574 -129 c 0,12,13
 585 -129 585 -129 596 -121 c 1,14,-1
 608 -137 l 1,15,16
 591 -153 591 -153 577 -160 c 128,-1,17
 563 -167 563 -167 546 -167 c 0,18,19
 522 -167 522 -167 504.5 -151.5 c 128,-1,20
 487 -136 487 -136 487 -108 c 0,21,22
 487 -85 487 -85 499.5 -59.5 c 128,-1,23
 512 -34 512 -34 538 0 c 1,24,-1
 418 0 l 1,25,-1
 418 4 l 1,26,-1
 493 62 l 1,27,-1
 428 185 l 1,28,-1
 171 185 l 1,29,-1
 116 62 l 1,30,-1
 189 4 l 1,31,-1
 189 0 l 1,32,-1
 2 0 l 1,33,-1
 2 4 l 1,0,-1
406 229 m 1,34,-1
 292 464 l 1,35,-1
 190 229 l 1,36,-1
 406 229 l 1,34,-1
EndSplineSet
Validated: 1048577
EndChar

StartChar: w.sc.ss02
Encoding: 65763 -1 511
Width: 913
GlyphClass: 2
Flags: W
AnchorPoint: "Ancre-11" 468 600 basechar 0
LayerCount: 2
Fore
SplineSet
43 535 m 1,0,-1
 -20 596 l 1,1,-1
 -20 600 l 1,2,-1
 227 600 l 1,3,-1
 227 596 l 1,4,-1
 150 538 l 1,5,-1
 316 165 l 1,6,-1
 460 613 l 1,7,-1
 481 613 l 1,8,-1
 673 167 l 1,9,-1
 795 538 l 1,10,-1
 712 596 l 1,11,-1
 712 600 l 1,12,-1
 899 600 l 1,13,-1
 899 596 l 1,14,-1
 842 535 l 1,15,-1
 663 -13 l 1,16,-1
 642 -13 l 1,17,-1
 450 432 l 1,18,-1
 307 -13 l 1,19,-1
 286 -13 l 1,20,-1
 43 535 l 1,0,-1
EndSplineSet
Validated: 1048577
EndChar

